<?xml version="1.0" encoding="iso-8859-1"?>
<!-- Generator: Adobe Illustrator 19.0.0, SVG Export Plug-In . SVG Version: 6.00 Build 0)  -->
<svg version="1.1" id="Capa_1" xmlns="http://www.w3.org/2000/svg" xmlns:xlink="http://www.w3.org/1999/xlink" x="0px" y="0px"
	 viewBox="0 0 479.18 479.18" style="enable-background:new 0 0 479.18 479.18;" xml:space="preserve">
<path style="fill:#602D81;" d="M453.804,91.846c12.357,12.635,12.132,32.895-0.503,45.252
	c-12.435,12.162-32.307,12.163-44.745,0.004L453.804,91.846z"/>
<path style="fill:#FFF89B;" d="M183.156,155.342c0,35.346-28.654,64-64,64s-64-28.654-64-64H183.156z"/>
<path style="fill:#C9DA53;" d="M103.156,89.102L80.34,66.246c12.421-4.524,18.823-18.261,14.3-30.682s-18.261-18.823-30.682-14.3
	c-2.301,0.838-4.46,2.024-6.402,3.518C47.064,10.62,27.079,7.645,12.917,18.137S-4.219,48.614,6.272,62.776
	c0.726,0.979,1.507,1.916,2.339,2.806C-1.509,74.086-2.82,89.185,5.684,99.306s23.603,11.432,33.724,2.927
	c1.634-1.373,3.078-2.959,4.292-4.715l25.536,25.528L103.156,89.102z"/>
<path style="fill:#F8C09C;" d="M31.156,227.35c-8.837,0-16-7.163-16-16s7.163-16,16-16s16,7.163,16,16S39.992,227.35,31.156,227.35z
	"/>
<path style="fill:#DD95C1;" d="M388.532,38.998l-38.176-2.552c-24.11-1.604-44.956,16.641-46.56,40.752
	c-0.064,0.967-0.096,1.936-0.096,2.904c0,24.153,19.575,43.735,43.728,43.744c24.164,0,43.752-19.588,43.752-43.752
	c0-0.969-0.032-1.938-0.096-2.904L388.532,38.998z"/>
<path style="fill:#8FC33E;" d="M215.156,307.35V189.286c0.001-6.365,2.531-12.468,7.032-16.968l8-8
	c9.372-9.369,24.564-9.369,33.936,0c4.501,4.5,7.031,10.603,7.032,16.968v30.064l46.08-46.064c6.366-6.364,14.999-9.938,24-9.936h8
	c18.734,0.013,33.916,15.202,33.92,33.936c-0.001,9.002-3.578,17.635-9.944,24l-30.056,30.064H377.9
	c8.488-0.002,16.629,3.367,22.632,9.368c12.497,12.496,12.498,32.758,0.001,45.255c0,0-0.001,0.001-0.001,0.001
	c-6.002,6.004-14.143,9.376-22.632,9.376L215.156,307.35z"/>
<g>
	<path style="fill:#1F8B94;" d="M249.522,278.209l55.997-55.997l11.314,11.314l-55.997,55.997L249.522,278.209z"/>
	<path style="fill:#1F8B94;" d="M247.18,243.35h16v40h-16V243.35z"/>
	<path style="fill:#1F8B94;" d="M279.18,251.35h32v16h-32V251.35z"/>
</g>
<path style="fill:#8FC33E;" d="M135.156,291.846V267.35c-0.001-6.367,2.529-12.474,7.032-16.976c9.372-9.369,24.564-9.369,33.936,0
	c4.503,4.502,7.033,10.609,7.032,16.976v24.496H135.156z"/>
<path style="fill:#4FB86A;" d="M239.156,11.846c-3.48,0.005-6.911,0.827-10.016,2.4c-3.784,1.86-8.216,1.86-12,0
	c-6.275-3.232-13.725-3.232-20,0c-3.784,1.86-8.216,1.86-12,0c-3.095-1.568-6.514-2.39-9.984-2.4c-17.672,0-32,21.488-32,48
	s14.328,48,32,48c3.48-0.009,6.91-0.83,10.016-2.4c3.784-1.86,8.216-1.86,12,0c6.278,3.221,13.722,3.221,20,0
	c3.784-1.86,8.216-1.86,12,0c3.096,1.565,6.515,2.387,9.984,2.4c17.672,0,32-21.488,32-48S256.852,11.846,239.156,11.846z"/>
<g>
	<path style="fill:#1F8B94;" d="M223.18,35.846h16v48h-16L223.18,35.846z"/>
	<path style="fill:#1F8B94;" d="M175.18,35.846h16v48h-16V35.846z"/>
</g>
<g>
	<path style="fill:#DD95C1;" d="M385.529,30.183l24.002-24.002l11.314,11.314l-24.002,24.002L385.529,30.183z"/>
	<path style="fill:#DD95C1;" d="M423.156,43.846h-32c-4.418,0-8-3.582-8-8v-32h16v24h24V43.846z"/>
</g>
<path style="fill:#C9DA53;" d="M169.82,194.382l-38.848-39.032h-23.608l-38.912,38.896c3.247,4.244,7.009,8.069,11.2,11.384
	l31.504-31.472v44.632c5.307,0.747,10.693,0.747,16,0v-44.544l31.36,31.512C162.742,202.451,166.54,198.629,169.82,194.382
	L169.82,194.382z"/>
<path style="fill:#EE8EB4;" d="M23.156,307.846h416l0,0v129.088c0,21.208-17.192,38.4-38.4,38.4h-339.2
	c-21.208,0-38.4-17.192-38.4-38.4L23.156,307.846C23.156,307.846,23.156,307.846,23.156,307.846z"/>
<g>
	<path style="fill:#701E49;" d="M47.18,339.35h16v16h-16V339.35z"/>
	<path style="fill:#701E49;" d="M79.18,339.35h16v16h-16V339.35z"/>
	<path style="fill:#701E49;" d="M111.18,339.35h16v16h-16V339.35z"/>
	<path style="fill:#701E49;" d="M143.18,339.35h16v16h-16V339.35z"/>
	<path style="fill:#701E49;" d="M175.18,339.35h16v16h-16V339.35z"/>
	<path style="fill:#701E49;" d="M207.18,339.35h16v16h-16V339.35z"/>
	<path style="fill:#701E49;" d="M239.18,339.35h16v16h-16V339.35z"/>
	<path style="fill:#701E49;" d="M271.18,339.35h16v16h-16V339.35z"/>
	<path style="fill:#701E49;" d="M303.18,339.35h16v16h-16V339.35z"/>
	<path style="fill:#701E49;" d="M335.18,339.35h16v16h-16V339.35z"/>
	<path style="fill:#701E49;" d="M367.18,339.35h16v16h-16V339.35z"/>
	<path style="fill:#701E49;" d="M399.18,339.35h16v16h-16V339.35z"/>
	<path style="fill:#701E49;" d="M47.18,435.35h16v16h-16V435.35z"/>
	<path style="fill:#701E49;" d="M79.18,435.35h16v16h-16V435.35z"/>
	<path style="fill:#701E49;" d="M111.18,435.35h16v16h-16V435.35z"/>
	<path style="fill:#701E49;" d="M143.18,435.35h16v16h-16V435.35z"/>
	<path style="fill:#701E49;" d="M175.18,435.35h16v16h-16V435.35z"/>
	<path style="fill:#701E49;" d="M207.18,435.35h16v16h-16V435.35z"/>
	<path style="fill:#701E49;" d="M239.18,435.35h16v16h-16V435.35z"/>
	<path style="fill:#701E49;" d="M271.18,435.35h16v16h-16V435.35z"/>
	<path style="fill:#701E49;" d="M303.18,435.35h16v16h-16V435.35z"/>
	<path style="fill:#701E49;" d="M335.18,435.35h16v16h-16V435.35z"/>
	<path style="fill:#701E49;" d="M367.18,435.35h16v16h-16V435.35z"/>
	<path style="fill:#701E49;" d="M399.18,435.35h16v16h-16V435.35z"/>
	<path style="fill:#701E49;" d="M47.18,371.35h16v16h-16V371.35z"/>
	<path style="fill:#701E49;" d="M79.18,371.35h16v16h-16V371.35z"/>
	<path style="fill:#701E49;" d="M111.18,371.35h16v16h-16V371.35z"/>
	<path style="fill:#701E49;" d="M143.18,371.35h16v16h-16V371.35z"/>
	<path style="fill:#701E49;" d="M175.18,371.35h16v16h-16V371.35z"/>
	<path style="fill:#701E49;" d="M207.18,371.35h16v16h-16V371.35z"/>
	<path style="fill:#701E49;" d="M239.18,371.35h16v16h-16V371.35z"/>
	<path style="fill:#701E49;" d="M271.18,371.35h16v16h-16V371.35z"/>
	<path style="fill:#701E49;" d="M303.18,371.35h16v16h-16V371.35z"/>
	<path style="fill:#701E49;" d="M335.18,371.35h16v16h-16V371.35z"/>
	<path style="fill:#701E49;" d="M367.18,371.35h16v16h-16V371.35z"/>
	<path style="fill:#701E49;" d="M399.18,371.35h16v16h-16V371.35z"/>
	<path style="fill:#701E49;" d="M47.18,403.35h16v16h-16V403.35z"/>
	<path style="fill:#701E49;" d="M79.18,403.35h16v16h-16V403.35z"/>
	<path style="fill:#701E49;" d="M111.18,403.35h16v16h-16V403.35z"/>
	<path style="fill:#701E49;" d="M143.18,403.35h16v16h-16V403.35z"/>
	<path style="fill:#701E49;" d="M175.18,403.35h16v16h-16V403.35z"/>
	<path style="fill:#701E49;" d="M207.18,403.35h16v16h-16V403.35z"/>
	<path style="fill:#701E49;" d="M239.18,403.35h16v16h-16V403.35z"/>
	<path style="fill:#701E49;" d="M271.18,403.35h16v16h-16V403.35z"/>
	<path style="fill:#701E49;" d="M303.18,403.35h16v16h-16V403.35z"/>
	<path style="fill:#701E49;" d="M335.18,403.35h16v16h-16V403.35z"/>
	<path style="fill:#701E49;" d="M367.18,403.35h16v16h-16V403.35z"/>
	<path style="fill:#701E49;" d="M399.18,403.35h16v16h-16V403.35z"/>
</g>
<path style="fill:#FFBF41;" d="M7.18,283.35h472v32h-472L7.18,283.35z"/>
<g>
</g>
<g>
</g>
<g>
</g>
<g>
</g>
<g>
</g>
<g>
</g>
<g>
</g>
<g>
</g>
<g>
</g>
<g>
</g>
<g>
</g>
<g>
</g>
<g>
</g>
<g>
</g>
<g>
</g>
</svg>
