<?xml version="1.0" encoding="iso-8859-1"?>
<!-- Generator: Adobe Illustrator 19.0.0, SVG Export Plug-In . SVG Version: 6.00 Build 0)  -->
<svg version="1.1" id="Capa_1" xmlns="http://www.w3.org/2000/svg" xmlns:xlink="http://www.w3.org/1999/xlink" x="0px" y="0px"
	 viewBox="0 0 512.016 512.016" style="enable-background:new 0 0 512.016 512.016;" xml:space="preserve">
<circle style="fill:#E95454;" cx="362.832" cy="309.672" r="65.648"/>
<path style="fill:#ED6362;" d="M362.832,244.024v131.312c36.256,0,65.648-29.392,65.648-65.648
	C428.496,273.416,399.104,244.024,362.832,244.024z"/>
<circle style="fill:#E95454;" cx="149.152" cy="309.672" r="65.648"/>
<path style="fill:#ED6362;" d="M149.152,244.024v131.312c36.256,0,65.648-29.392,65.648-65.648
	C214.816,273.416,185.424,244.024,149.152,244.024z"/>
<circle style="fill:#E95454;" cx="256" cy="277.432" r="77.92"/>
<path style="fill:#ED6362;" d="M256,199.512v155.84c43.04,0,77.92-34.88,77.92-77.92C333.92,234.392,299.04,199.512,256,199.512z"/>
<path style="fill:#F89E62;" d="M485.152,350.744H26.848V231.176C26.848,104.824,129.648,2.024,256,2.024
	s229.152,102.8,229.152,229.152L485.152,350.744L485.152,350.744z M58.848,318.744h394.304v-87.568
	c0-108.72-88.432-197.152-197.152-197.152S58.848,122.472,58.848,231.192V318.744z"/>
<path style="fill:#FDBC4B;" d="M0,300.92v79.168c0,71.744,58.16,129.904,129.904,129.904h252.208
	c71.744,0,129.904-58.16,129.904-129.904V300.92L0,300.92L0,300.92z"/>
<path style="fill:#F4A637;" d="M5.776,418.504c16.384,52.992,65.744,91.488,124.112,91.488h252.208
	c58.368,0,107.728-38.496,124.112-91.488H5.776z"/>
<path style="opacity:0.2;fill:#FFFFFF;enable-background:new    ;" d="M399.952,419.912h-96.208
	c-7.248,0-13.184-5.936-13.184-13.168l0.096-0.912v-0.208c-0.096-7.648,6.128-13.888,13.776-13.888h57.344
	c8.544,0,16.096-6.336,16.592-14.88c0.4-8.96-6.736-16.496-15.696-16.496h-61.168c-7.536,0-13.168-6.336-13.072-13.872
	c0-0.096,0-0.096,0-0.208c0-0.096,0-0.096,0-0.208c-0.096-7.536,5.536-13.872,13.072-13.872H404c8.448,0,16-6.336,16.496-14.784
	c0.4-9.056-6.736-16.496-15.696-16.496l-265.968,0.064c-8.32,0.16-15.04,7.04-15.04,15.36c0,8.48,7.04,15.36,15.52,15.36h44.8
	c7.04,0,12.96,5.92,12.8,13.12v0.96c0.48,7.04-5.12,12.96-12.16,12.96h-42.72c-8.32,0-15.84,6.24-16.32,14.56
	c-0.32,8.96,6.72,16.32,15.52,16.32h23.84c7.04,0,12.96,5.92,12.96,12.96l-0.16,0.96v0.16c0.16,7.52-6.08,13.6-13.6,13.6h-56.48
	c-8.32,0-15.84,6.24-16.32,14.72c-0.32,8.8,6.72,16.32,15.52,16.32h90.64c8.48,0,15.36,6.88,15.36,15.36s-6.88,15.36-15.36,15.36
	h-40.4c-8.32,0.32-15.04,7.04-15.04,15.52c0,8.48,7.04,15.36,15.52,15.36l221.344,0.048c8.432-0.24,15.248-7.152,15.248-15.648
	c0-8.656-7.04-15.696-15.696-15.696h-94.16c-7.248,0-13.168-5.936-13.072-13.168v-1.104c-0.496-7.136,5.232-13.184,12.368-13.184
	h115.312c8.544,0,16.096-6.336,16.592-14.784C416.048,427.352,408.912,419.912,399.952,419.912z"/>
<g>
</g>
<g>
</g>
<g>
</g>
<g>
</g>
<g>
</g>
<g>
</g>
<g>
</g>
<g>
</g>
<g>
</g>
<g>
</g>
<g>
</g>
<g>
</g>
<g>
</g>
<g>
</g>
<g>
</g>
</svg>
