<?xml version="1.0" encoding="iso-8859-1"?>
<!-- Generator: Adobe Illustrator 19.0.0, SVG Export Plug-In . SVG Version: 6.00 Build 0)  -->
<svg version="1.1" id="Layer_1" xmlns="http://www.w3.org/2000/svg" xmlns:xlink="http://www.w3.org/1999/xlink" x="0px" y="0px"
	 viewBox="0 0 511.992 511.992" style="enable-background:new 0 0 511.992 511.992;" xml:space="preserve">
<path style="fill:#DA4453;" d="M373.556,234.325c-11.031-22.437-26.406-44.671-45.625-66.093
	c-32.561-36.265-64.732-57.546-66.076-58.436c-3.562-2.328-8.156-2.328-11.703,0c-1.359,0.89-33.531,22.171-66.077,58.436
	c-19.234,21.422-34.593,43.656-45.64,66.093c-14,28.437-21.093,57.234-21.093,85.671c0,49.654,14.937,97.404,42.046,134.496
	c26.718,36.531,61.937,57.5,96.624,57.5c34.672,0,69.889-20.969,96.576-57.5c27.125-37.092,42.062-84.842,42.062-134.496
	C394.649,291.558,387.556,262.762,373.556,234.325z"/>
<path style="fill:#434A54;" d="M192.574,488.742c19.89,15.062,41.765,23.25,63.437,23.25c21.703,0,43.672-8.25,63.576-23.375
	c-10.248-3.094-32.936-8.625-63.576-8.625C224.886,479.992,202.402,485.68,192.574,488.742z"/>
<path style="opacity:0.1;fill:#FFFFFF;enable-background:new    ;" d="M373.556,234.325c-11.031-22.437-26.406-44.671-45.625-66.093
	c-32.561-36.265-64.732-57.546-66.076-58.436c-3.562-2.328-8.156-2.328-11.703,0c-0.281,0.203-2,1.328-4.812,3.328
	c10.344,7.375,35.688,26.609,61.25,55.108c19.248,21.422,34.592,43.656,45.654,66.093c13.969,28.437,21.094,57.234,21.094,85.671
	c0,49.654-14.938,97.404-42.062,134.496c-23.998,32.781-54.811,53.031-85.936,56.812c3.547,0.438,7.109,0.688,10.672,0.688
	c34.672,0,69.889-20.969,96.576-57.5c27.125-37.092,42.062-84.842,42.062-134.496C394.649,291.558,387.556,262.762,373.556,234.325z
	"/>
<path style="fill:#F6BB42;" d="M304.026,236.887c-2.469-1.422-5.375-1.812-8.094-1.094c-2.75,0.734-5.094,2.531-6.5,4.984
	l-33.422,57.906l-33.437-57.906c-1.422-2.453-3.75-4.25-6.5-4.984c-2.734-0.719-5.656-0.328-8.094,1.094
	c-29.546,17.141-47.937,48.984-47.968,83.109c-0.016,2.844,1.109,5.562,3.109,7.562s4.719,3.125,7.547,3.125h66.858l-33.437,57.904
	c-1.406,2.438-1.797,5.375-1.062,8.094c0.734,2.75,2.516,5.062,4.968,6.469c14.547,8.406,31.14,12.844,48.015,12.844
	c16.859,0,33.453-4.438,47.984-12.844c2.469-1.406,4.25-3.719,4.969-6.469c0.75-2.719,0.344-5.656-1.062-8.094l-33.438-57.904
	h66.873c2.812,0,5.531-1.125,7.531-3.125s3.125-4.719,3.125-7.562C351.962,285.871,333.556,254.028,304.026,236.887z"/>
<path style="fill:#FFCE54;" d="M256.011,287.996c-17.656,0-32,14.344-32,32c0,17.623,14.343,31.998,32,31.998
	c17.64,0,31.984-14.375,31.984-31.998C287.995,302.34,273.651,287.996,256.011,287.996z"/>
<path style="fill:#DA4453;" d="M373.337,0H138.669c-5.891,0-10.656,4.766-10.656,10.656v127.998c0,5.891,4.766,10.672,10.656,10.672
	h234.668c5.875,0,10.656-4.781,10.656-10.672V10.657C383.993,4.766,379.212,0,373.337,0z"/>
<rect x="181.335" style="fill:#ED5564;" width="149.31" height="149.33"/>
<g>
</g>
<g>
</g>
<g>
</g>
<g>
</g>
<g>
</g>
<g>
</g>
<g>
</g>
<g>
</g>
<g>
</g>
<g>
</g>
<g>
</g>
<g>
</g>
<g>
</g>
<g>
</g>
<g>
</g>
</svg>
