<?xml version="1.0" encoding="iso-8859-1"?>
<!-- Generator: Adobe Illustrator 19.0.0, SVG Export Plug-In . SVG Version: 6.00 Build 0)  -->
<svg version="1.1" id="Capa_1" xmlns="http://www.w3.org/2000/svg" xmlns:xlink="http://www.w3.org/1999/xlink" x="0px" y="0px"
	 viewBox="0 0 512 512" style="enable-background:new 0 0 512 512;" xml:space="preserve">
<path style="fill:#BF6015;" d="M362.057,75.069c0,9.895-7.497,14.994-14.994,14.994s-14.994-5.099-14.994-14.994
	c0-24.891-20.09-44.983-44.983-44.983H135.144c-24.892,0-44.983,20.091-44.983,44.983v119.954c0,19.791-29.989,19.791-29.989,0
	V75.069c0-41.384,33.587-74.971,74.971-74.971h151.942c24.593,0,46.483,11.994,59.977,30.288
	C356.661,42.68,362.057,58.275,362.057,75.069z"/>
<path style="fill:#994C0F;" d="M362.057,75.069c0,9.895-7.497,14.994-14.994,14.994V30.386
	C356.661,42.68,362.057,58.275,362.057,75.069z"/>
<path style="fill:#E50027;" d="M291.449,234.909c-2.841,3.236-6.97,5.096-11.275,5.096h-85.053c-8.288,0-14.994-6.706-14.994-14.994
	V105.057c0-24.804,22.178-44.983,46.982-44.983h29.989c24.805,0,44.983,20.178,44.983,44.983v113.058
	c0,4.334-1.875,8.449-5.154,11.305C295.022,231.088,293.119,232.991,291.449,234.909z"/>
<g>
	<path style="fill:#C1001F;" d="M512,225.011c0,8.288-6.706,14.994-14.994,14.994h-83.054c-4.305,0-8.435-1.859-11.275-5.096
		c-1.669-1.918-3.573-3.822-5.477-5.491c-3.281-2.855-5.154-6.97-5.154-11.305V105.057c0-24.805,20.178-44.983,44.983-44.983h29.989
		c24.805,0,44.983,20.178,44.983,44.983V225.011z"/>
	<path style="fill:#C1001F;" d="M512,466.919c0,24.805-20.178,44.983-44.983,44.983h-29.989c-24.805,0-44.983-20.178-44.983-44.983
		V351.862c0-4.334,1.873-8.449,5.154-11.305c1.903-1.669,3.808-3.573,5.477-5.491c2.841-3.236,6.97-5.096,11.275-5.096h83.054
		c8.288,0,14.994,6.706,14.994,14.994V466.919z"/>
</g>
<path style="fill:#E50027;" d="M302.08,466.919c0,24.805-20.178,44.983-44.983,44.983h-29.989
	c-24.805,0-46.982-20.178-46.982-44.983V344.965c0-8.288,6.706-14.994,14.994-14.994h85.053c4.305,0,8.435,1.859,11.275,5.096
	c1.669,1.918,3.573,3.822,5.477,5.491c3.28,2.855,5.154,6.97,5.154,11.305V466.919z"/>
<path style="fill:#0059AA;" d="M512,359.96h-98.048c-12.953,0-19.899-15.489-11.041-25.156c9.05-9.81,15.111-21.877,17.571-34.894
	c4.568-23.839-1.845-47.443-17.63-64.824c-8.734-9.601-1.88-25.068,11.1-25.068H512V359.96z"/>
<path style="fill:#0D70B2;" d="M291.273,334.891c8.734,9.601,1.88,25.068-11.1,25.068H180.127V210.017h100.048
	c12.953,0,19.899,15.489,11.041,25.156c-9.05,9.81-15.111,21.877-17.571,34.894C269.075,293.906,275.488,317.51,291.273,334.891z"/>
<path style="fill:#FD003A;" d="M422.034,105.057c0-24.891-20.09-44.983-44.983-44.983h-59.977
	c-24.892,0-44.983,20.091-44.983,44.983v113.056c0,13.195,15.595,19.793,25.193,11.098c9.891-8.998,21.891-15.294,34.784-17.694
	c5.096-0.901,10.199-1.499,14.994-1.499c18.593,0,35.985,6.596,49.778,19.193c9.598,8.696,25.193,2.097,25.193-11.098V105.057z"/>
<path style="fill:#E50027;" d="M422.034,105.057v113.056c0,13.195-15.595,19.793-25.193,11.098
	c-13.794-12.596-31.186-19.193-49.778-19.193V60.075h29.989C401.944,60.074,422.034,80.166,422.034,105.057z"/>
<path style="fill:#FD003A;" d="M396.841,340.766c-9.891,8.997-21.891,15.294-34.784,17.694c-5.096,0.899-10.199,1.499-14.994,1.499
	c-18.593,0-35.985-6.598-49.778-19.193c-9.898-8.696-25.193-1.799-25.193,11.096V466.92c0,24.889,20.09,44.983,44.983,44.983h59.977
	c24.892,0,44.983-20.093,44.983-44.983V351.862C422.034,338.667,406.439,332.07,396.841,340.766z"/>
<path style="fill:#E50027;" d="M396.841,340.766c9.598-8.696,25.193-2.099,25.193,11.096v115.057
	c0,24.889-20.09,44.983-44.983,44.983h-29.989V359.96c4.795,0,9.898-0.601,14.994-1.499
	C374.949,356.061,386.95,349.763,396.841,340.766z"/>
<path style="fill:#C5C9F7;" d="M435.227,302.681c-6.596,34.788-35.684,63.876-70.469,70.474c-6,1.199-11.999,1.799-17.696,1.799
	c-23.992,0-46.483-9.296-63.576-26.39c-21.595-21.593-30.589-50.98-24.589-81.27c6.596-34.786,35.684-63.876,70.469-70.472
	c6-1.201,11.999-1.799,17.696-1.799c23.992,0,46.483,9.296,63.576,26.39C432.232,243.003,441.227,272.391,435.227,302.681z"/>
<path style="fill:#E1E4FB;" d="M421.134,210.916c-19.789-20.091-46.483-30.887-74.071-30.887c-6.896,0-13.494,0.599-20.39,1.799
	c-41.388,8.096-74.671,41.384-82.468,82.768c-6.896,34.486,3.895,69.872,28.788,94.463c19.789,20.093,46.183,30.889,74.071,30.889
	h0.3c6.596,0,13.494-0.601,20.09-1.799c41.388-8.098,74.671-41.384,82.468-82.768C456.818,270.893,446.026,235.506,421.134,210.916z
	 M420.533,299.682c-5.396,29.088-29.689,53.379-58.777,58.779c-5.096,0.899-9.598,1.499-14.694,1.499
	c-19.789,0-38.686-7.497-53.081-21.893c-17.692-17.992-25.189-42.583-20.39-67.772c5.396-29.09,29.689-53.381,58.777-58.778
	c4.795-0.901,9.898-1.499,14.694-1.499c20.09,0,38.686,7.797,53.081,21.891C417.835,249.9,425.332,274.491,420.533,299.682z"/>
<path style="fill:#A8AFF1;" d="M435.227,302.681c-6.596,34.788-35.684,63.876-70.469,70.474c-6,1.199-11.999,1.799-17.696,1.799
	V195.023c23.992,0,46.483,9.296,63.576,26.39C432.232,243.003,441.227,272.391,435.227,302.681z"/>
<path style="fill:#C5C9F7;" d="M449.921,305.38c-7.797,41.384-41.08,74.671-82.468,82.768c-6.596,1.199-13.494,1.799-20.09,1.799
	h-0.3V359.96c5.096,0,9.598-0.601,14.694-1.499c29.088-5.4,53.381-29.691,58.777-58.779c4.799-25.191-2.698-49.782-20.39-67.774
	c-14.393-14.094-32.99-21.891-53.081-21.891v-29.989c27.587,0,54.281,10.796,74.071,30.887
	C446.026,235.506,456.818,270.893,449.921,305.38z"/>
<g>
	<path style="fill:#FFCC33;" d="M60.173,314.977v-29.989c0-19.765,29.989-19.846,29.989,0v29.989
		C90.161,334.742,60.173,334.823,60.173,314.977z"/>
	<path style="fill:#FFCC33;" d="M4.588,259.392l29.989-29.989c13.94-13.94,35.257,7.148,21.203,21.203l-29.989,29.989
		C11.793,294.594-9.41,273.391,4.588,259.392z"/>
	<path style="fill:#FFCC33;" d="M135.144,284.988c-3.837,0-7.673-1.464-10.601-4.393l-29.989-29.989
		c-5.857-5.857-5.857-15.346,0-21.203s15.346-5.857,21.203,0l29.989,29.989C155.202,268.849,148.409,284.988,135.144,284.988z"/>
</g>
<path style="fill:#0D70B2;" d="M377.052,299.983h-29.989c-8.398,0-14.994-6.599-14.994-14.994v-59.977
	c0-9.897,7.497-14.994,14.994-14.994s14.994,5.097,14.994,14.994v44.983h14.994C396.841,269.994,396.841,299.983,377.052,299.983z"
	/>
<path style="fill:#0059AA;" d="M377.052,299.983h-29.989v-89.966c7.497,0,14.994,5.097,14.994,14.994v44.983h14.994
	C396.841,269.994,396.841,299.983,377.052,299.983z"/>
<g>
</g>
<g>
</g>
<g>
</g>
<g>
</g>
<g>
</g>
<g>
</g>
<g>
</g>
<g>
</g>
<g>
</g>
<g>
</g>
<g>
</g>
<g>
</g>
<g>
</g>
<g>
</g>
<g>
</g>
</svg>
