<?xml version="1.0" encoding="iso-8859-1"?>
<!-- Generator: Adobe Illustrator 19.0.0, SVG Export Plug-In . SVG Version: 6.00 Build 0)  -->
<svg version="1.1" id="Capa_1" xmlns="http://www.w3.org/2000/svg" xmlns:xlink="http://www.w3.org/1999/xlink" x="0px" y="0px"
	 viewBox="0 0 512 512" style="enable-background:new 0 0 512 512;" xml:space="preserve">
<path style="fill:#DA2F47;" d="M52.728,407.016c72.703,8.192,140.618-24.16,200.282-88.403
	c71.543-77.044,74.338-193.279,74.338-208.146s168.153-45.436,163.544,74.338c-6.378,166.458-110.451,311.417-296.118,325.839
	c-88.938,6.913-143.903-13.797-169.297-34.865C-14.503,442.609,14.325,402.69,52.728,407.016"/>
<g>
	<path style="fill:#77B255;" d="M309.813,119.58c6.631-23.09,49.227-56.898,106.556-43.979
		c63.187,14.243,89.399,44.157,89.399,98.662c0,54.519-53.479,7.27-60.912-9.456s-38.403,33.452-65.462-19.031
		C370.234,128.025,298.186,160.051,309.813,119.58"/>
	<path style="fill:#77B255;" d="M382.597,14.367c16.92,17.246,45.123,40.618,32.783,78.293
		c-12.355,37.674,18.986,37.036,26.746,14.14c7.731-22.881,10.065-72.123-6.467-94.112C419.142-9.302,369.797,1.313,382.597,14.367"
		/>
</g>
<g>
</g>
<g>
</g>
<g>
</g>
<g>
</g>
<g>
</g>
<g>
</g>
<g>
</g>
<g>
</g>
<g>
</g>
<g>
</g>
<g>
</g>
<g>
</g>
<g>
</g>
<g>
</g>
<g>
</g>
</svg>
