<?xml version="1.0" encoding="iso-8859-1"?>
<!-- Generator: Adobe Illustrator 19.0.0, SVG Export Plug-In . SVG Version: 6.00 Build 0)  -->
<svg version="1.1" id="Capa_1" xmlns="http://www.w3.org/2000/svg" xmlns:xlink="http://www.w3.org/1999/xlink" x="0px" y="0px"
	 viewBox="0 0 512.001 512.001" style="enable-background:new 0 0 512.001 512.001;" xml:space="preserve">
<path style="fill:#8FA835;" d="M358.552,62.844c0-4.276,3.466-7.742,7.742-7.742s7.742,3.466,7.742,7.742
	c0,23.476,45.026,31.516,62.903,16.255c3.253-2.776,8.14-2.39,10.915,0.861c2.776,3.252,2.391,8.14-0.861,10.916
	C419.591,114.268,358.552,101.054,358.552,62.844z"/>
<path style="fill:#9AB748;" d="M509.897,45.883c-56.889,4.691-88.641,44.213-105.728,78.932
	c10.742,2.931,20.837,8.502,29.313,16.728c18.099-53.663,58.141-83.07,77.399-91.996C512.84,48.64,512.049,45.706,509.897,45.883z"
	/>
<path style="fill:#8FA835;" d="M474.485,76.005c13.765-13.582,27.366-22.271,36.396-26.456c1.959-0.908,1.167-3.842-0.985-3.665
	c-56.889,4.691-88.641,44.213-105.728,78.932c6.482,1.768,12.724,4.505,18.522,8.199C433.841,112.146,450.376,90.381,474.485,76.005
	z"/>
<path style="fill:#83CC8E;" d="M1.356,412.004c-7.396-36.539,16.228-72.154,52.766-79.551
	c80.252-16.245,151.469-51.85,211.672-105.826c42.572-38.168,63.419-71.82,63.61-72.143c19.014-32.067,60.424-42.648,92.488-23.637
	c32.067,19.012,42.649,60.42,23.637,92.488c-4.612,7.777-115.799,191.066-364.623,241.435
	C44.375,472.168,8.753,448.548,1.356,412.004z"/>
<path style="fill:#78C181;" d="M22.002,426.738c-7.396-36.539,16.228-72.154,52.766-79.551
	c80.252-16.245,151.469-51.85,211.672-105.826c42.571-38.168,63.419-71.82,63.61-72.143c17.8-30.02,55.227-41.206,86.24-26.915
	c-4.161-4.355-8.963-8.233-14.399-11.456c-32.064-19.011-73.474-8.43-92.488,23.637c-0.191,0.323-21.039,33.974-63.61,72.143
	c-60.203,53.975-131.42,89.581-211.672,105.826c-36.539,7.396-60.162,43.012-52.766,79.55c4.444,21.955,19.081,39.233,37.977,47.935
	C30.819,451.034,24.627,439.706,22.002,426.738z"/>
<path style="fill:#3BBC56;" d="M424.992,185.339c8.515-14.362,11.077-30.595,8.448-45.852
	c-31.672-29.407-82.16-21.893-104.035,14.999c-0.191,0.323-21.039,33.974-63.61,72.143
	c-60.203,53.975-131.42,89.581-211.672,105.826c-35.881,7.263-59.286,41.739-53.114,77.579
	c15.622,14.507,37.488,21.171,59.361,16.741C309.193,376.405,420.381,193.116,424.992,185.339z"/>
<g>
	<path style="fill:#30AA44;" d="M433.443,139.502c-0.063-0.059-0.124-0.119-0.188-0.178c-0.831-0.766-1.677-1.504-2.533-2.219
		c-0.206-0.172-0.412-0.343-0.62-0.512c-0.835-0.682-1.68-1.341-2.536-1.976c-0.294-0.217-0.595-0.428-0.893-0.641
		c-0.579-0.415-1.165-0.816-1.753-1.21c-0.728-0.486-1.468-0.959-2.221-1.42c-0.315-0.193-0.629-0.388-0.946-0.575
		c-0.913-0.538-1.833-1.053-2.76-1.543c-0.076-0.04-0.151-0.081-0.227-0.121c-0.963-0.505-1.933-0.985-2.91-1.439
		c-0.056-0.026-0.112-0.052-0.168-0.077c-0.984-0.454-1.974-0.884-2.97-1.287c-0.063-0.025-0.126-0.049-0.189-0.074
		c-0.991-0.398-1.987-0.772-2.989-1.12c-0.074-0.025-0.148-0.048-0.222-0.073c-0.997-0.342-1.998-0.664-3.004-0.957
		c-0.052-0.015-0.105-0.027-0.157-0.042c-1.664-0.481-3.34-0.878-5.021-1.226c-0.442-0.091-0.882-0.198-1.325-0.279
		c-0.347-0.065-0.696-0.109-1.044-0.168c-0.844-0.142-1.689-0.281-2.536-0.391c-0.288-0.038-0.577-0.062-0.866-0.096
		c-0.914-0.106-1.828-0.202-2.743-0.27c-0.251-0.019-0.502-0.03-0.753-0.047c-0.96-0.061-1.92-0.106-2.88-0.126
		c-0.218-0.005-0.435-0.006-0.653-0.009c-1.002-0.011-2.004-0.002-3.005,0.031c-0.18,0.006-0.36,0.012-0.54,0.019
		c-1.055,0.043-2.108,0.111-3.16,0.203c-0.127,0.011-0.255,0.02-0.382,0.032c-1.144,0.107-2.284,0.241-3.421,0.405
		c-0.035,0.005-0.07,0.009-0.105,0.014c-3.541,0.517-7.04,1.318-10.462,2.386c-0.335,0.105-0.667,0.223-1,0.333
		c-0.739,0.243-1.475,0.494-2.206,0.763c-0.481,0.178-0.958,0.367-1.435,0.556c-0.567,0.223-1.132,0.452-1.694,0.69
		c-0.558,0.238-1.112,0.485-1.663,0.738c-0.461,0.211-0.919,0.429-1.375,0.65c-0.612,0.298-1.221,0.6-1.824,0.916
		c-0.367,0.192-0.731,0.394-1.095,0.593c-0.665,0.364-1.328,0.731-1.982,1.118c-0.246,0.146-0.488,0.301-0.732,0.451
		c-3.332,2.033-6.504,4.367-9.473,6.991c-0.221,0.195-0.446,0.384-0.664,0.582c-0.569,0.516-1.123,1.052-1.676,1.589
		c-0.31,0.301-0.62,0.601-0.925,0.909c-0.492,0.497-0.974,1.007-1.453,1.522c-0.356,0.384-0.709,0.772-1.058,1.166
		c-0.426,0.48-0.847,0.967-1.261,1.461c-0.395,0.473-0.781,0.956-1.165,1.442c-0.357,0.451-0.715,0.901-1.062,1.364
		c-0.452,0.604-0.889,1.224-1.324,1.847c-0.264,0.378-0.536,0.748-0.794,1.133c-0.688,1.029-1.357,2.078-1.997,3.157
		c-0.191,0.323-21.039,33.974-63.61,72.143c-60.203,53.975-131.42,89.581-211.672,105.826c-0.031,0.006-0.061,0.015-0.092,0.021
		c-1.099,0.224-2.188,0.472-3.263,0.747c-0.394,0.1-0.777,0.221-1.168,0.329c-0.706,0.194-1.416,0.382-2.111,0.597
		c-0.459,0.142-0.907,0.306-1.361,0.457c-0.613,0.204-1.231,0.4-1.835,0.621c-0.49,0.179-0.968,0.379-1.453,0.569
		c-0.553,0.217-1.112,0.425-1.657,0.655c-0.506,0.214-0.998,0.448-1.497,0.673c-0.51,0.23-1.024,0.452-1.526,0.694
		c-0.514,0.248-1.014,0.515-1.52,0.775c-0.47,0.242-0.946,0.475-1.409,0.727c-0.522,0.284-1.031,0.588-1.544,0.885
		c-0.43,0.249-0.865,0.49-1.289,0.748c-0.527,0.321-1.04,0.66-1.557,0.995c-0.393,0.255-0.792,0.502-1.179,0.765
		c-0.53,0.359-1.045,0.735-1.563,1.109c-0.357,0.257-0.719,0.507-1.07,0.771c-0.531,0.399-1.048,0.814-1.566,1.228
		c-0.321,0.256-0.646,0.506-0.962,0.767c-0.532,0.44-1.048,0.896-1.565,1.352c-0.285,0.251-0.575,0.497-0.855,0.752
		c-0.53,0.483-1.044,0.981-1.557,1.48c-0.251,0.244-0.506,0.483-0.753,0.73c-0.524,0.526-1.033,1.065-1.539,1.608
		c-0.219,0.235-0.443,0.465-0.659,0.703c-0.517,0.57-1.018,1.153-1.515,1.74c-0.188,0.222-0.381,0.44-0.566,0.665
		c-0.508,0.615-0.999,1.243-1.484,1.876c-0.159,0.207-0.322,0.411-0.478,0.619c-0.495,0.661-0.973,1.333-1.443,2.011
		c-0.132,0.19-0.268,0.378-0.398,0.57c-0.479,0.705-0.94,1.422-1.392,2.145c-0.108,0.172-0.219,0.343-0.325,0.516
		c-0.459,0.75-0.901,1.51-1.331,2.278c-0.086,0.153-0.175,0.305-0.259,0.459c-0.437,0.794-0.856,1.598-1.261,2.41
		c-0.066,0.133-0.135,0.265-0.2,0.398c-0.411,0.836-0.802,1.683-1.179,2.536c-0.05,0.114-0.102,0.226-0.151,0.34
		c-0.381,0.878-0.743,1.765-1.087,2.66c-0.036,0.093-0.073,0.185-0.108,0.278c-0.348,0.918-0.676,1.844-0.984,2.778
		c-0.024,0.073-0.049,0.146-0.073,0.219c-0.311,0.954-0.601,1.916-0.871,2.886c-0.016,0.056-0.032,0.112-0.047,0.168
		c-0.271,0.987-0.52,1.981-0.747,2.983c-0.009,0.04-0.019,0.081-0.028,0.121c-0.228,1.016-0.433,2.04-0.614,3.07
		c-0.005,0.027-0.01,0.054-0.014,0.081c-0.182,1.043-0.34,2.093-0.473,3.148c-0.002,0.014-0.004,0.029-0.005,0.043
		c-0.134,1.067-0.242,2.14-0.324,3.218c0,0.004-0.001,0.008-0.001,0.012c-0.414,5.432-0.172,10.996,0.792,16.594v0.002
		c5.986,5.559,12.891,9.961,20.36,13.034c-5.157-35.224,18.087-68.731,53.401-75.879c80.252-16.245,151.469-51.85,211.672-105.826
		c42.571-38.168,63.419-71.82,63.61-72.143c17.306-29.187,53.164-40.564,83.644-28.038
		C433.613,140.621,433.538,140.06,433.443,139.502z"/>
	<path style="fill:#30AA44;" d="M27.529,391.289c248.824-50.368,360.011-233.657,364.623-241.435
		c5.068-8.548,8.013-17.76,9.029-27.035c-27.452-5.696-56.676,6.199-71.776,31.666c-0.191,0.323-21.039,33.974-63.61,72.143
		c-60.203,53.975-131.42,89.581-211.672,105.826c-29.513,5.974-50.59,30.361-53.711,58.772
		C9.445,393.106,18.554,393.106,27.529,391.289z"/>
</g>
<path style="fill:#269E35;" d="M54.03,332.475c-1.015,0.207-2.018,0.44-3.013,0.689c-0.311,0.078-0.617,0.165-0.926,0.247
	c-0.163,0.048-0.328,0.093-0.492,0.138c-0.553,0.152-1.104,0.307-1.652,0.467c-0.335,0.101-0.667,0.205-0.999,0.311
	c-0.273,0.093-0.547,0.184-0.821,0.275c-0.421,0.14-0.84,0.283-1.26,0.426c-0.294,0.104-0.589,0.206-0.88,0.314
	c-0.384,0.147-0.765,0.3-1.148,0.45c-0.458,0.179-0.917,0.357-1.371,0.542c-0.111,0.046-0.224,0.088-0.334,0.135
	c-0.488,0.208-0.966,0.433-1.448,0.651c-0.486,0.22-0.977,0.433-1.457,0.662c-0.137,0.066-0.271,0.137-0.408,0.204
	c-0.395,0.198-0.788,0.4-1.181,0.602c-0.38,0.195-0.76,0.388-1.137,0.587c-0.245,0.132-0.488,0.268-0.731,0.403
	c-0.363,0.206-0.725,0.413-1.086,0.622c-0.29,0.168-0.581,0.337-0.871,0.506c-0.24,0.144-0.48,0.288-0.718,0.435
	c-0.421,0.264-0.839,0.533-1.256,0.803c-0.268,0.173-0.535,0.347-0.802,0.52c-0.157,0.105-0.316,0.206-0.472,0.312
	c-0.496,0.339-0.981,0.691-1.468,1.041c-0.357,0.257-0.719,0.507-1.07,0.771c-0.531,0.399-1.048,0.814-1.566,1.228
	c-0.285,0.227-0.573,0.452-0.855,0.682c-0.133,0.11-0.263,0.224-0.396,0.335c-0.429,0.363-0.855,0.731-1.276,1.102
	c-0.196,0.172-0.391,0.344-0.587,0.517c-0.181,0.163-0.359,0.328-0.538,0.493c-0.434,0.403-0.863,0.811-1.287,1.223
	c-0.129,0.126-0.258,0.251-0.388,0.376c-0.167,0.165-0.336,0.329-0.501,0.496c-0.476,0.482-0.942,0.972-1.403,1.466
	c-0.219,0.235-0.443,0.465-0.659,0.703c-0.517,0.57-1.018,1.153-1.515,1.74c-0.188,0.222-0.381,0.44-0.566,0.665
	c-0.508,0.615-0.999,1.243-1.484,1.876c-0.121,0.157-0.242,0.314-0.363,0.471c-0.098,0.13-0.193,0.261-0.289,0.392
	c-0.432,0.583-0.855,1.172-1.269,1.767c-0.045,0.065-0.091,0.131-0.137,0.195c-0.135,0.196-0.268,0.392-0.401,0.589
	c-0.42,0.624-0.83,1.255-1.229,1.893c-0.131,0.209-0.263,0.417-0.392,0.627c-0.444,0.726-0.872,1.462-1.288,2.204
	c-0.086,0.153-0.175,0.305-0.259,0.459c-0.437,0.794-0.856,1.598-1.261,2.41c-0.066,0.133-0.135,0.265-0.2,0.398
	c-0.411,0.836-0.802,1.683-1.179,2.536c-0.013,0.03-0.027,0.061-0.041,0.091c-0.068,0.154-0.132,0.309-0.199,0.464
	c-0.33,0.768-0.647,1.541-0.948,2.322c-0.073,0.189-0.146,0.378-0.217,0.567c-0.313,0.831-0.61,1.668-0.89,2.512
	c-0.037,0.111-0.076,0.22-0.112,0.331c-0.31,0.95-0.599,1.907-0.867,2.872c-0.016,0.056-0.032,0.112-0.047,0.168
	c-0.271,0.987-0.52,1.981-0.747,2.983c-0.009,0.04-0.019,0.081-0.028,0.121c-0.22,0.982-0.417,1.971-0.593,2.966
	c-0.021,0.117-0.04,0.235-0.06,0.353c-0.161,0.937-0.303,1.879-0.424,2.826c-0.013,0.099-0.026,0.198-0.039,0.298
	c-0.038,0.306-0.059,0.616-0.093,0.924c7.899,1.641,15.856,1.845,23.73,0.652c7.432-22.096,26.108-39.738,50.6-44.696
	c80.252-16.245,151.469-51.85,211.672-105.826c42.571-38.168,63.419-71.82,63.61-72.143c10.757-18.142,28.682-29.396,48.027-32.313
	c1.552-4.626,2.583-9.347,3.102-14.086c-0.005-0.001-0.011-0.002-0.016-0.004c-0.848-0.176-1.697-0.335-2.548-0.477
	c-0.028-0.005-0.055-0.008-0.083-0.013c-1.431-0.237-2.866-0.418-4.302-0.562c-0.351-0.036-0.702-0.073-1.053-0.104
	c-0.592-0.05-1.185-0.088-1.777-0.122c-0.528-0.031-1.056-0.051-1.583-0.069c-0.5-0.017-0.999-0.039-1.498-0.045
	c-0.961-0.011-1.922,0-2.882,0.03c-0.411,0.013-0.821,0.037-1.231,0.057c-0.697,0.035-1.393,0.078-2.088,0.134
	c-0.398,0.032-0.796,0.063-1.193,0.101c-1.003,0.098-2.004,0.213-3.002,0.355c-0.638,0.091-1.272,0.2-1.906,0.309
	c-0.228,0.039-0.456,0.072-0.684,0.114c-0.562,0.103-1.121,0.221-1.681,0.338c-0.303,0.064-0.608,0.121-0.91,0.189
	c-0.51,0.114-1.016,0.242-1.524,0.367c-0.346,0.086-0.693,0.167-1.039,0.259c-0.501,0.133-0.999,0.277-1.497,0.421
	c-0.335,0.097-0.67,0.19-1.004,0.292c-0.517,0.158-1.03,0.328-1.542,0.498c-0.493,0.163-0.982,0.336-1.472,0.509
	c-0.384,0.137-0.767,0.275-1.149,0.42c-0.299,0.116-0.599,0.23-0.897,0.348c-0.32,0.126-0.638,0.26-0.956,0.39
	c-0.255,0.105-0.512,0.205-0.765,0.313c-0.339,0.145-0.674,0.298-1.011,0.448c-0.328,0.146-0.656,0.294-0.982,0.446
	c-0.328,0.153-0.657,0.306-0.983,0.465c-0.259,0.126-0.516,0.258-0.774,0.388c-0.362,0.18-0.727,0.357-1.086,0.545
	c-0.178,0.093-0.354,0.191-0.531,0.288c-0.298,0.16-0.593,0.325-0.889,0.489c-0.424,0.233-0.845,0.471-1.264,0.713
	c-0.412,0.24-0.819,0.488-1.226,0.737c-3.295,2.019-6.433,4.329-9.372,6.926c-0.06,0.053-0.12,0.106-0.181,0.159
	c-0.274,0.244-0.545,0.49-0.816,0.739c-0.452,0.419-0.9,0.843-1.343,1.274c-0.31,0.301-0.62,0.601-0.925,0.909
	c-0.492,0.497-0.974,1.007-1.453,1.522c-0.356,0.384-0.709,0.772-1.058,1.166c-0.426,0.48-0.847,0.967-1.261,1.461
	c-0.395,0.473-0.781,0.956-1.165,1.442c-0.346,0.437-0.692,0.873-1.028,1.32c-0.032,0.042-0.063,0.085-0.094,0.128
	c-0.43,0.578-0.848,1.169-1.264,1.763c-0.183,0.262-0.366,0.523-0.549,0.784c-0.119,0.175-0.239,0.35-0.357,0.526
	c-0.647,0.973-1.28,1.961-1.884,2.979c-0.09,0.151-4.718,7.626-13.995,19.456c-2.474,3.155-5.278,6.619-8.415,10.337
	c-0.784,0.929-1.589,1.875-2.415,2.835c-8.259,9.603-18.6,20.702-31.057,32.418c-2.491,2.343-5.067,4.711-7.728,7.097
	c-28.22,25.301-58.861,46.566-91.717,63.692c-4.381,2.284-8.801,4.493-13.26,6.63c-4.459,2.136-8.957,4.198-13.494,6.187
	c-4.537,1.988-9.111,3.902-13.724,5.742s-9.264,3.605-13.952,5.297c-21.097,7.61-42.954,13.71-65.524,18.279
	C54.091,332.46,54.061,332.468,54.03,332.475z"/>
<g>
</g>
<g>
</g>
<g>
</g>
<g>
</g>
<g>
</g>
<g>
</g>
<g>
</g>
<g>
</g>
<g>
</g>
<g>
</g>
<g>
</g>
<g>
</g>
<g>
</g>
<g>
</g>
<g>
</g>
</svg>
