<?xml version="1.0" encoding="iso-8859-1"?>
<!-- Generator: Adobe Illustrator 19.0.0, SVG Export Plug-In . SVG Version: 6.00 Build 0)  -->
<svg version="1.1" id="Layer_1" xmlns="http://www.w3.org/2000/svg" xmlns:xlink="http://www.w3.org/1999/xlink" x="0px" y="0px"
	 viewBox="0 0 512.001 512.001" style="enable-background:new 0 0 512.001 512.001;" xml:space="preserve">
<path style="fill:#67B32E;" d="M388.514,181.235c-6.033,8.001-13.352,15.245-21.906,21.412
	c-21.9,15.788-87.979,69.302-133.366,167.661c20.338,15.077,31.44,38.283,42.891,62.215c19.489,40.736,66.492,68.937,66.492,68.937
	s47.003-28.202,66.492-68.937c19.49-40.736,44.748-79.044,92.273-79.044C467.443,314.971,464.541,209.992,388.514,181.235z"/>
<path style="fill:#34602B;" d="M112.896,501.459c-10.007,0-20.181-1.478-30.243-4.586c-54.017-16.685-84.279-74-67.594-128.016
	c23.074-74.702,58.517-144.12,105.345-206.321C167.73,99.671,215.306,59.339,246.883,36.575
	c45.86-33.064,109.836-22.688,142.899,23.172c33.061,45.859,22.687,109.837-23.173,142.899
	c-25.935,18.697-113.827,90.298-155.939,226.632C197.092,473.233,156.611,501.459,112.896,501.459z"/>
<path d="M340.665,444.459c-5.769,0-10.445-4.676-10.445-10.445v-0.137c0-5.769,4.676-10.445,10.445-10.445
	c5.769,0,10.445,4.676,10.445,10.445v0.137C351.11,439.782,346.434,444.459,340.665,444.459z"/>
<path d="M482.153,290.214c-14.965-40.482-33.327-90.073-78.1-113.418c6.986-11.895,11.773-25.105,14.048-39.129
	c1.23-7.586,1.684-15.179,1.391-22.688c2.468,1.832,5.061,3.526,7.793,5.044c8.874,4.931,18.493,7.27,27.99,7.269
	c20.334-0.002,40.091-10.732,50.648-29.733c12.949-23.306,4.524-52.801-18.782-65.751c-19.652-10.919-44.522-3.813-55.441,15.838
	c-4.503,8.103-5.58,17.475-3.033,26.389c2.546,8.914,8.411,16.302,16.515,20.804c6.971,3.873,15.034,4.8,22.699,2.61
	c7.668-2.19,14.024-7.235,17.897-14.206c2.802-5.043,0.985-11.402-4.057-14.203c-5.044-2.803-11.402-0.984-14.203,4.057
	c-2.401,4.321-7.869,5.883-12.189,3.481c-3.225-1.792-5.561-4.734-6.574-8.282c-1.013-3.548-0.585-7.279,1.207-10.505
	c5.325-9.582,17.453-13.047,27.035-7.723c13.237,7.355,18.022,24.107,10.668,37.344c-4.792,8.626-12.656,14.868-22.144,17.578
	c-9.487,2.709-19.462,1.563-28.088-3.229c-11.391-6.33-19.636-16.715-23.215-29.245c-3.378-11.826-2.213-24.224,3.248-35.157
	l23.545-18.629c4.525-3.58,5.289-10.148,1.711-14.672c-3.578-4.525-10.147-5.29-14.672-1.711l-44.143,34.926
	c-16.227-15.272-36.617-25.376-59.101-29.023c-29.744-4.821-59.586,2.225-84.029,19.848
	C208.611,51.29,160.171,92.345,112.06,156.253c-47.554,63.168-83.548,133.66-106.98,209.522c-8.893,28.79-6.041,59.321,8.028,85.967
	s37.674,46.218,66.464,55.111c10.852,3.352,22.064,5.052,33.326,5.052c23.59,0,47.145-7.672,66.325-21.601
	c19.846-14.412,34.17-34.448,41.427-57.942c4.878-15.792,10.387-30.681,16.34-44.711c12.42,13.249,20.879,30.896,29.721,49.38
	c20.608,43.073,68.512,72.168,70.541,73.386c1.653,0.992,3.514,1.488,5.374,1.488c1.86,0,3.721-0.496,5.374-1.488
	c2.029-1.218,49.933-30.313,70.541-73.386c18.167-37.97,40.777-73.107,82.85-73.107c4.106,0,7.831-2.406,9.52-6.147
	c1.69-3.741,1.031-8.126-1.684-11.205C498.481,334.383,490.55,312.929,482.153,290.214z M200.689,426.196
	c-11.975,38.77-47.257,64.819-87.793,64.819c-9.169,0-18.307-1.387-27.16-4.122c-23.459-7.246-42.692-23.194-54.157-44.905
	c-11.464-21.712-13.787-46.588-6.542-70.048c22.718-73.549,57.612-141.889,103.71-203.122
	c46.537-61.817,93.249-101.427,124.243-123.771c15.825-11.409,34.427-17.38,53.559-17.38c4.947,0,9.929,0.399,14.908,1.206
	c24.236,3.93,45.49,17.063,59.849,36.981c14.359,19.916,20.102,44.232,16.171,68.467c-3.93,24.237-17.063,45.491-36.98,59.85
	C333.899,213.35,243.76,286.756,200.689,426.196z M399.696,428.014c-14.124,29.519-44.684,52.514-57.071,60.974
	c-12.392-8.465-42.949-31.458-57.073-60.978c-10.42-21.779-21.163-44.216-39.39-60.604c25.919-53.691,57.881-93.054,84.059-119.439
	v54.196l-62.68,62.68c-4.079,4.079-4.079,10.693,0,14.772c2.04,2.039,4.713,3.059,7.386,3.059s5.347-1.02,7.386-3.059l47.907-47.907
	v68.378c0,5.769,4.676,10.445,10.445,10.445s10.445-4.676,10.445-10.445v-68.379l47.908,47.908c2.04,2.039,4.713,3.059,7.386,3.059
	s5.347-1.02,7.386-3.059c4.079-4.079,4.079-10.693,0-14.772l-62.68-62.68v-60.863l47.908,47.908c2.04,2.04,4.713,3.059,7.386,3.059
	s5.347-1.02,7.386-3.059c4.079-4.079,4.079-10.693,0-14.772l-53.654-53.654c5.049-4.097,9.318-7.309,12.581-9.662
	c7.022-5.063,13.353-10.827,18.931-17.173c39.636,18.964,56.211,63.742,70.913,103.512c6.38,17.259,12.512,33.847,20.206,47.428
	C440.909,353.54,417.339,391.137,399.696,428.014z"/>
<path d="M93.461,358.206c-1.402,0-2.826-0.283-4.193-0.884c-5.282-2.319-7.684-8.48-5.367-13.762l5.629-12.824
	c2.318-5.283,8.48-7.687,13.762-5.367c5.282,2.319,7.684,8.48,5.367,13.762l-5.629,12.824
	C101.313,355.874,97.481,358.206,93.461,358.206z"/>
<path d="M102.476,441.903c-0.797,0-1.606-0.092-2.416-0.283c-5.614-1.33-9.086-6.958-7.757-12.572l3.228-13.628
	c1.329-5.613,6.96-9.084,12.572-7.757c5.614,1.33,9.086,6.958,7.757,12.572l-3.228,13.628
	C111.493,438.666,107.207,441.903,102.476,441.903z"/>
<path d="M171.306,343.135c-2.062,0-4.144-0.609-5.963-1.877c-4.733-3.299-5.895-9.809-2.597-14.542l8.008-11.49
	c3.299-4.733,9.809-5.895,14.542-2.597s5.895,9.809,2.597,14.542l-8.008,11.49C177.854,341.575,174.607,343.135,171.306,343.135z"/>
<path d="M239.676,168.867c-2.062,0-4.144-0.609-5.963-1.877c-4.733-3.299-5.895-9.809-2.597-14.542l8.008-11.49
	c3.299-4.733,9.809-5.895,14.542-2.597c4.733,3.299,5.895,9.809,2.597,14.542l-8.008,11.49
	C246.224,167.305,242.977,168.867,239.676,168.867z"/>
<path d="M316.734,169.421c-3.61,0-7.12-1.873-9.055-5.224c-2.885-4.996-1.173-11.384,3.823-14.268l12.129-7.002
	c4.996-2.885,11.384-1.174,14.268,3.823c2.885,4.996,1.173,11.384-3.823,14.268l-12.129,7.002
	C320.302,168.97,318.505,169.421,316.734,169.421z"/>
<path d="M252.188,251.78c-2.062,0-4.144-0.609-5.963-1.877c-4.733-3.299-5.895-9.809-2.597-14.542l8.008-11.49
	c3.299-4.733,9.81-5.895,14.542-2.597c4.733,3.299,5.895,9.809,2.597,14.542l-8.008,11.49
	C258.736,250.219,255.489,251.78,252.188,251.78z"/>
<path d="M152.96,260.328c-2.062,0-4.144-0.609-5.963-1.877c-4.733-3.299-5.895-9.809-2.597-14.542l8.008-11.49
	c3.299-4.733,9.809-5.895,14.542-2.597c4.733,3.299,5.895,9.809,2.597,14.542l-8.008,11.49
	C159.508,258.767,156.261,260.328,152.96,260.328z"/>
<g>
</g>
<g>
</g>
<g>
</g>
<g>
</g>
<g>
</g>
<g>
</g>
<g>
</g>
<g>
</g>
<g>
</g>
<g>
</g>
<g>
</g>
<g>
</g>
<g>
</g>
<g>
</g>
<g>
</g>
</svg>
