<?xml version="1.0" encoding="iso-8859-1"?>
<!-- Generator: Adobe Illustrator 19.0.0, SVG Export Plug-In . SVG Version: 6.00 Build 0)  -->
<svg version="1.1" id="Capa_1" xmlns="http://www.w3.org/2000/svg" xmlns:xlink="http://www.w3.org/1999/xlink" x="0px" y="0px"
	 viewBox="0 0 512.002 512.002" style="enable-background:new 0 0 512.002 512.002;" xml:space="preserve">
<path style="fill:#C8C6CD;" d="M341.774,215.912c-3.978,0-7.954-1.517-10.989-4.552c-6.069-6.069-6.07-15.909-0.001-21.979
	c22.341-22.343,37.423-50.531,43.617-81.514c1.683-8.418,9.862-13.877,18.287-12.194c8.416,1.683,13.877,9.869,12.194,18.287
	c-7.401,37.022-25.421,70.702-52.116,97.399C349.73,214.394,345.751,215.912,341.774,215.912z"/>
<path style="fill:#AEADB3;" d="M330.784,211.36L330.784,211.36c3.036,3.035,7.013,4.552,10.99,4.552
	c3.978,0,7.956-1.518,10.99-4.553c18.489-18.491,32.812-40.332,42.333-64.313L330.784,211.36z"/>
<path style="fill:#FD3426;" d="M151.566,512.001c-3.978,0-7.955-1.517-10.989-4.553L34.694,401.567c-6.07-6.07-6.07-15.91,0-21.979
	l243.149-243.149c2.915-2.915,6.867-4.553,10.989-4.553c4.123,0,8.076,1.638,10.989,4.553l105.881,105.882
	c6.07,6.07,6.07,15.91,0,21.979L162.554,507.448C159.521,510.484,155.544,512.001,151.566,512.001z"/>
<g>
	<path style="fill:#FE8821;" d="M401.999,56.002c-0.938,0-1.888-0.085-2.844-0.262c-8.44-1.561-14.017-9.67-12.455-18.111
		l4.609-24.912c1.562-8.44,9.664-14.017,18.111-12.455c8.44,1.561,14.017,9.67,12.455,18.111l-4.609,24.912
		C415.879,50.769,409.345,56.002,401.999,56.002z"/>
	<path style="fill:#FE8821;" d="M445.457,84.206c-4.944,0-9.806-2.354-12.82-6.736c-4.864-7.073-3.074-16.749,3.998-21.613
		l20.874-14.356c7.073-4.864,16.748-3.074,21.613,3.998c4.864,7.073,3.074,16.749-3.998,21.613L454.25,81.469
		C451.56,83.318,448.493,84.206,445.457,84.206z"/>
	<path style="fill:#FE8821;" d="M351.317,66.789c-4.944,0-9.806-2.354-12.82-6.736l-14.356-20.874
		c-4.864-7.073-3.074-16.749,3.998-21.613s16.748-3.074,21.613,3.998l14.356,20.874c4.864,7.073,3.074,16.749-3.998,21.613
		C357.42,65.902,354.353,66.789,351.317,66.789z"/>
</g>
<path style="fill:#C81019;" d="M405.705,242.321l-52.941-52.941L87.636,454.508l52.941,52.941c3.035,3.035,7.013,4.553,10.989,4.553
	c3.978,0,7.955-1.517,10.99-4.553l243.149-243.148C411.775,258.231,411.775,248.391,405.705,242.321z"/>
<g>
</g>
<g>
</g>
<g>
</g>
<g>
</g>
<g>
</g>
<g>
</g>
<g>
</g>
<g>
</g>
<g>
</g>
<g>
</g>
<g>
</g>
<g>
</g>
<g>
</g>
<g>
</g>
<g>
</g>
</svg>
