<?xml version="1.0" encoding="iso-8859-1"?>
<!-- Generator: Adobe Illustrator 19.0.0, SVG Export Plug-In . SVG Version: 6.00 Build 0)  -->
<svg version="1.1" id="Layer_1" xmlns="http://www.w3.org/2000/svg" xmlns:xlink="http://www.w3.org/1999/xlink" x="0px" y="0px"
	 viewBox="0 0 512 512" style="enable-background:new 0 0 512 512;" xml:space="preserve">
<path style="fill:#2C3E50;" d="M312.407,86.78c-23.96,0-43.39-19.43-43.39-43.39c0-14.379-11.655-26.034-26.034-26.034
	S216.949,29.01,216.949,43.39v52.068c0,4.79-3.888,8.678-8.678,8.678c-4.79,0-8.678-3.888-8.678-8.678V43.39
	c0-23.96,19.43-43.39,43.39-43.39s43.39,19.43,43.39,43.39c0,14.379,11.654,26.034,26.034,26.034
	c14.379,0,26.034-11.655,26.034-26.034c0-4.79,3.888-8.678,8.678-8.678s8.678,3.888,8.678,8.678
	C355.797,67.35,336.367,86.78,312.407,86.78z"/>
<path style="fill:#E64C3C;" d="M173.559,86.78h69.424c9.589,0,17.356,7.767,17.356,17.356v390.508
	c0,9.589-7.767,17.356-17.356,17.356h-69.424c-9.589,0-17.356-7.767-17.356-17.356V104.136
	C156.203,94.546,163.97,86.78,173.559,86.78z"/>
<rect x="156.203" y="225.627" style="fill:#7F6E5D;" width="104.136" height="138.847"/>
<g>
</g>
<g>
</g>
<g>
</g>
<g>
</g>
<g>
</g>
<g>
</g>
<g>
</g>
<g>
</g>
<g>
</g>
<g>
</g>
<g>
</g>
<g>
</g>
<g>
</g>
<g>
</g>
<g>
</g>
</svg>
