<?xml version="1.0" encoding="iso-8859-1"?>
<!-- Generator: Adobe Illustrator 21.0.0, SVG Export Plug-In . SVG Version: 6.00 Build 0)  -->
<svg version="1.1" id="Capa_1" xmlns="http://www.w3.org/2000/svg" xmlns:xlink="http://www.w3.org/1999/xlink" x="0px" y="0px"
	 viewBox="0 0 512 512" style="enable-background:new 0 0 512 512;" xml:space="preserve">
<g>
	<path style="fill:#FE4583;" d="M210.964,221.432l-0.02,236.642c0,9.028,7.324,16.352,16.352,16.352h19.398
		c9.028,0,16.352-7.324,16.352-16.352V221.432H210.964z"/>
	<path style="fill:#FE4583;" d="M106.761,221.432l-0.02,236.642c0,9.028,7.324,16.352,16.352,16.352h19.398
		c9.028,0,16.352-7.324,16.352-16.352V221.432H106.761z"/>
</g>
<g>
	<path style="fill:#FE715A;" d="M158.863,221.432l-0.02,236.642c0,9.028,7.324,16.352,16.352,16.352h19.398
		c9.028,0,16.352-7.324,16.352-16.352V221.432H158.863z"/>
	<path style="fill:#FE715A;" d="M263.066,221.432l-0.02,236.642c0,9.028,7.324,16.352,16.352,16.352h19.398
		c9.028,0,16.352-7.324,16.352-16.352V221.432H263.066z"/>
	<path style="fill:#FE715A;" d="M132.812,251.491l-0.02,236.642c0,9.028,7.324,16.352,16.352,16.352h19.398
		c9.028,0,16.352-7.324,16.352-16.352V251.491H132.812z"/>
</g>
<path style="fill:#FE4583;" d="M184.913,251.491l-0.02,236.642c0,9.028,7.324,16.352,16.352,16.352h19.398
	c9.028,0,16.352-7.324,16.352-16.352V251.491H184.913z"/>
<path style="fill:#FE715A;" d="M237.015,251.491l-0.02,236.642c0,9.028,7.324,16.352,16.352,16.352h19.398
	c9.028,0,16.352-7.324,16.352-16.352V251.491H237.015z"/>
<g>
	<path style="fill:#FE4583;" d="M80.71,251.491l-0.02,236.642c0,9.028,7.324,16.352,16.352,16.352h19.398
		c9.028,0,16.352-7.324,16.352-16.352V251.491H80.71z"/>
	<path style="fill:#FE4583;" d="M289.117,251.491l-0.02,236.642c0,9.028,7.324,16.352,16.352,16.352h19.398
		c9.028,0,16.352-7.324,16.352-16.352V251.491H289.117z"/>
</g>
<path style="fill:#F75B4B;" d="M160.69,488.133l0.02-236.642h-27.897l-0.02,236.642c0,9.028,7.324,16.352,16.352,16.352h19.398
	c1.473,0,2.893-0.212,4.25-0.578C165.827,502.033,160.69,495.688,160.69,488.133z"/>
<path style="fill:#FC3268;" d="M212.792,488.133l0.02-236.642h-27.897l-0.02,236.642c0,9.028,7.324,16.352,16.352,16.352h19.398
	c1.473,0,2.893-0.212,4.25-0.578C217.929,502.033,212.792,495.688,212.792,488.133z"/>
<path style="fill:#F75B4B;" d="M264.894,488.133l0.02-236.642h-27.897l-0.02,236.642c0,9.028,7.324,16.352,16.352,16.352h19.398
	c1.473,0,2.893-0.212,4.25-0.578C270.031,502.033,264.894,495.688,264.894,488.133z"/>
<g>
	<path style="fill:#FC3268;" d="M108.588,488.133l0.02-236.642H80.71l-0.02,236.642c0,9.028,7.324,16.352,16.352,16.352h19.398
		c1.473,0,2.893-0.212,4.25-0.578C113.725,502.033,108.588,495.688,108.588,488.133z"/>
	<path style="fill:#FC3268;" d="M316.995,488.133l0.02-236.642h-27.897l-0.02,236.642c0,9.028,7.324,16.352,16.352,16.352h19.398
		c1.473,0,2.893-0.212,4.25-0.578C322.133,502.033,316.995,495.688,316.995,488.133z"/>
</g>
<path style="fill:#F8D46E;" d="M377.3,50.599l7.294,13.526l-6.212,11.523h-35.229c-7.986,0-14.478,6.493-14.478,14.478v26.602
	c0,20.991-17.083,38.074-38.074,38.074s-38.074-17.083-38.074-38.074v-4.509c0-8.016-6.513-14.528-14.528-14.528
	s-14.528,6.513-14.528,14.528v115.726h-25.049V112.219c0-21.823,17.755-39.577,39.577-39.577s39.577,17.755,39.577,39.577v4.509
	c0,7.184,5.841,13.025,13.025,13.025s13.025-5.841,13.025-13.025V90.126c0-21.793,17.735-39.527,39.527-39.527
	C343.154,50.599,377.3,50.599,377.3,50.599z"/>
<g>
	<path style="fill:#F7C852;" d="M301.919,129.753c7.184,0,13.025-5.841,13.025-13.025V90.126c0-21.793,17.735-39.527,39.527-39.527
		h-11.318c-21.793,0-39.527,17.735-39.527,39.527v26.602c0,5.154-3.014,9.604-7.366,11.714
		C297.974,129.273,299.889,129.753,301.919,129.753z"/>
	<path style="fill:#F7C852;" d="M263.845,116.728v-4.509c0-8.016-6.513-14.528-14.528-14.528c-2.007,0-3.92,0.409-5.659,1.146
		c5.209,2.209,8.869,7.373,8.869,13.382v4.509c0,20.991,17.083,38.074,38.074,38.074c1.923,0,3.811-0.146,5.659-0.423
		C277.942,151.637,263.845,135.796,263.845,116.728z"/>
	<path style="fill:#F7C852;" d="M243.657,73.053c-1.85-0.266-3.737-0.411-5.659-0.411c-21.823,0-39.577,17.755-39.577,39.577
		v115.726h11.318V112.219C209.739,92.318,224.507,75.808,243.657,73.053z"/>
</g>
<g>
	<path style="fill:#FEE395;" d="M326.17,236.462c8.296,0,15.029,6.733,15.029,15.029c0,4.148-1.683,7.905-4.409,10.621
		c-2.715,2.725-6.473,4.409-10.621,4.409h-22.043c-8.296,0-15.029-6.733-15.029-15.029c0-4.148,1.683-7.905,4.409-10.621
		c2.204-2.214,5.1-3.737,8.336-4.238c0.741-0.11,1.503-0.17,2.284-0.17H326.17z"/>
	<path style="fill:#FEE395;" d="M300.12,206.403c8.296,0,15.029,6.733,15.029,15.029c0,4.148-1.683,7.905-4.409,10.621
		c-2.345,2.345-5.451,3.928-8.927,4.308c-0.551,0.07-1.122,0.1-1.693,0.1h-22.043c-0.571,0-1.142-0.03-1.693-0.1
		c-7.505-0.842-13.336-7.204-13.336-14.929c0-4.148,1.683-7.905,4.409-10.621c2.715-2.725,6.473-4.409,10.621-4.409L300.12,206.403
		L300.12,206.403z"/>
	<path style="fill:#FEE395;" d="M276.353,236.632c7.214,1.102,12.745,7.344,12.745,14.859c0,4.148-1.683,7.905-4.409,10.621
		c-2.715,2.725-6.473,4.409-10.621,4.409h-22.043c-8.296,0-15.029-6.733-15.029-15.029c0-4.148,1.683-7.905,4.409-10.621
		c2.204-2.214,5.1-3.737,8.336-4.238c0.741-0.11,1.503-0.17,2.284-0.17h22.043C274.85,236.462,275.612,236.522,276.353,236.632z"/>
	<path style="fill:#FEE395;" d="M248.018,206.403c8.296,0,15.029,6.733,15.029,15.029c0,4.148-1.683,7.905-4.409,10.621
		c-2.345,2.345-5.451,3.928-8.927,4.308c-0.551,0.07-1.122,0.1-1.693,0.1h-22.043c-0.571,0-1.142-0.03-1.693-0.1
		c-7.505-0.842-13.336-7.204-13.336-14.929c0-4.148,1.683-7.905,4.409-10.621c2.184-2.194,5.04-3.707,8.236-4.218
		c0.771-0.13,1.573-0.19,2.385-0.19H248.018z"/>
	<path style="fill:#FEE395;" d="M224.251,236.2c7.214,1.102,12.745,7.344,12.745,14.859c0,4.148-1.683,7.905-4.409,10.621
		c-2.715,2.725-6.473,4.409-10.621,4.409h-22.043c-8.296,0-15.029-6.733-15.029-15.029c0-4.148,1.683-7.905,4.409-10.621
		c2.204-2.214,5.1-3.737,8.336-4.238c0.741-0.11,1.503-0.17,2.284-0.17h22.043C222.748,236.03,223.51,236.09,224.251,236.2z"/>
	<path style="fill:#FEE395;" d="M198.301,206.594c7.164,1.142,12.645,7.354,12.645,14.839c0,4.148-1.683,7.905-4.409,10.621
		c-2.345,2.345-5.451,3.928-8.927,4.308c-0.551,0.07-1.122,0.1-1.693,0.1h-22.043c-0.782,0-1.543-0.06-2.284-0.17
		c-7.214-1.102-12.745-7.344-12.745-14.859c0-4.148,1.683-7.905,4.409-10.621c2.715-2.725,6.473-4.409,10.621-4.409h22.043
		C196.728,206.403,197.529,206.463,198.301,206.594z"/>
	<path style="fill:#FEE395;" d="M171.558,236.13c7.505,0.842,13.336,7.204,13.336,14.929c0,4.148-1.683,7.905-4.409,10.621
		c-2.715,2.725-6.473,4.409-10.621,4.409h-22.043c-8.296,0-15.029-6.733-15.029-15.029c0-4.148,1.683-7.905,4.409-10.621
		c2.204-2.214,5.1-3.737,8.336-4.238c0.741-0.11,1.503-0.17,2.284-0.17h22.043C170.436,236.03,171.007,236.06,171.558,236.13z"/>
	<path style="fill:#FEE395;" d="M143.814,206.403c8.296,0,15.029,6.733,15.029,15.029c0,4.148-1.683,7.905-4.409,10.621
		c-2.345,2.345-5.451,3.928-8.927,4.308c-0.551,0.07-1.122,0.1-1.693,0.1h-22.043c-0.782,0-1.543-0.06-2.284-0.17
		c-7.214-1.102-12.745-7.344-12.745-14.859c0-4.148,1.683-7.905,4.409-10.621c2.715-2.725,6.473-4.409,10.621-4.409L143.814,206.403
		L143.814,206.403z"/>
	<path style="fill:#FEE395;" d="M119.457,236.13c7.505,0.842,13.336,7.204,13.336,14.929c0,4.148-1.683,7.905-4.409,10.621
		c-2.715,2.725-6.473,4.409-10.621,4.409H95.72c-8.296,0-15.029-6.733-15.029-15.029c0-4.148,1.683-7.905,4.409-10.621
		c2.715-2.725,6.473-4.409,10.621-4.409h22.043C118.334,236.03,118.906,236.06,119.457,236.13z"/>
</g>
<g>
	<path style="fill:#F9D270;" d="M337.755,257.572h-22.043c-8.296,0-15.029-6.733-15.029-15.029c0-2.101,0.435-4.101,1.216-5.918
		c-0.018,0.003-0.038,0.004-0.056,0.006c-3.236,0.501-6.132,2.024-8.336,4.238c-2.725,2.715-4.409,6.473-4.409,10.621
		c0,8.296,6.733,15.029,15.029,15.029h22.043c4.148,0,7.905-1.683,10.621-4.409c1.351-1.346,2.443-2.947,3.203-4.724
		C339.262,257.497,338.519,257.572,337.755,257.572z"/>
	<path style="fill:#F9D270;" d="M313.397,227.413c-0.551,0.07-1.122,0.1-1.693,0.1h-22.043c-0.571,0-1.142-0.03-1.693-0.1
		c-7.505-0.842-13.336-7.204-13.336-14.929c0-2.093,0.431-4.086,1.205-5.897c-3.25,0.488-6.166,2-8.382,4.223
		c-2.725,2.715-4.409,6.473-4.409,10.621c0,7.725,5.831,14.088,13.336,14.929c0.551,0.07,1.122,0.1,1.693,0.1h22.043
		c0.571,0,1.142-0.03,1.693-0.1c3.477-0.381,6.583-1.964,8.927-4.308c1.35-1.345,2.442-2.947,3.202-4.724
		C313.76,227.356,313.582,227.393,313.397,227.413z"/>
	<path style="fill:#F9D270;" d="M285.653,257.572H263.61c-8.296,0-15.029-6.733-15.029-15.029c0-2.101,0.435-4.101,1.216-5.918
		c-0.018,0.003-0.038,0.004-0.056,0.006c-3.236,0.501-6.132,2.024-8.336,4.238c-2.725,2.715-4.409,6.473-4.409,10.621
		c0,8.296,6.733,15.029,15.029,15.029h22.043c4.148,0,7.905-1.683,10.621-4.409c1.351-1.346,2.443-2.947,3.203-4.724
		C287.16,257.497,286.417,257.572,285.653,257.572z"/>
	<path style="fill:#F9D270;" d="M261.296,227.413c-0.551,0.07-1.122,0.1-1.693,0.1h-22.043c-0.571,0-1.142-0.03-1.693-0.1
		c-7.505-0.842-13.336-7.204-13.336-14.929c0-2.098,0.434-4.095,1.212-5.91c-0.05,0.008-0.102,0.01-0.152,0.019
		c-3.196,0.511-6.052,2.024-8.236,4.218c-2.725,2.715-4.409,6.473-4.409,10.621c0,7.725,5.831,14.088,13.336,14.929
		c0.551,0.07,1.122,0.1,1.693,0.1h22.043c0.571,0,1.142-0.03,1.693-0.1c3.477-0.381,6.583-1.964,8.927-4.308
		c1.35-1.345,2.442-2.947,3.202-4.724C261.658,227.356,261.48,227.393,261.296,227.413z"/>
	<path style="fill:#F9D270;" d="M233.551,257.141h-22.043c-8.296,0-15.029-6.733-15.029-15.029c0-2.101,0.435-4.101,1.216-5.918
		c-0.018,0.003-0.038,0.004-0.056,0.006c-3.236,0.501-6.132,2.024-8.336,4.238c-2.725,2.715-4.409,6.473-4.409,10.621
		c0,8.296,6.733,15.029,15.029,15.029h22.043c4.148,0,7.905-1.683,10.621-4.409c1.351-1.346,2.443-2.947,3.203-4.724
		C235.058,257.066,234.315,257.141,233.551,257.141z"/>
	<path style="fill:#F9D270;" d="M209.194,227.413c-0.551,0.07-1.122,0.1-1.693,0.1h-22.043c-0.782,0-1.543-0.06-2.284-0.17
		c-7.214-1.102-12.745-7.344-12.745-14.859c0-2.093,0.431-4.086,1.205-5.897c-3.25,0.488-6.166,2-8.382,4.223
		c-2.725,2.715-4.409,6.473-4.409,10.621c0,7.515,5.531,13.757,12.745,14.859c0.741,0.11,1.503,0.17,2.284,0.17h22.043
		c0.571,0,1.142-0.03,1.693-0.1c3.477-0.381,6.583-1.964,8.927-4.308c1.35-1.345,2.442-2.947,3.202-4.724
		C209.557,227.356,209.378,227.393,209.194,227.413z"/>
	<path style="fill:#F9D270;" d="M181.45,257.141h-22.043c-8.296,0-15.029-6.733-15.029-15.029c0-2.101,0.435-4.101,1.216-5.918
		c-0.018,0.003-0.038,0.004-0.056,0.006c-3.236,0.501-6.132,2.024-8.336,4.238c-2.725,2.715-4.409,6.473-4.409,10.621
		c0,8.296,6.733,15.029,15.029,15.029h22.043c4.148,0,7.905-1.683,10.621-4.409c1.351-1.346,2.443-2.947,3.203-4.724
		C182.957,257.066,182.213,257.141,181.45,257.141z"/>
	<path style="fill:#F9D270;" d="M157.092,227.413c-0.551,0.07-1.122,0.1-1.693,0.1h-22.043c-0.782,0-1.543-0.06-2.284-0.17
		c-7.214-1.102-12.745-7.344-12.745-14.859c0-2.093,0.431-4.086,1.205-5.897c-3.25,0.488-6.166,2-8.382,4.223
		c-2.725,2.715-4.409,6.473-4.409,10.621c0,7.515,5.531,13.757,12.745,14.859c0.741,0.11,1.503,0.17,2.284,0.17h22.043
		c0.571,0,1.142-0.03,1.693-0.1c3.477-0.381,6.583-1.964,8.927-4.308c1.35-1.345,2.442-2.947,3.202-4.724
		C157.455,227.356,157.277,227.393,157.092,227.413z"/>
	<path style="fill:#F9D270;" d="M129.348,257.141h-22.043c-8.296,0-15.029-6.733-15.029-15.029c0-2.093,0.431-4.086,1.205-5.897
		c-3.25,0.488-6.166,2-8.382,4.223c-2.725,2.715-4.409,6.473-4.409,10.621c0,8.296,6.733,15.029,15.029,15.029h22.043
		c4.148,0,7.905-1.683,10.621-4.409c1.351-1.346,2.443-2.947,3.203-4.724C130.855,257.066,130.111,257.141,129.348,257.141z"/>
</g>
<path style="fill:#FE715A;" d="M447.566,39.108L434.66,63.031c-0.369,0.682-0.369,1.505,0,2.187l12.906,23.923
	c0.815,1.509-0.246,3.347-1.961,3.397l-27.166,0.788c-0.776,0.022-1.487,0.434-1.894,1.093l-14.27,23.137
	c-0.9,1.459-3.022,1.459-3.922,0l-14.27-23.137c-0.407-0.66-1.119-1.071-1.894-1.093l-27.165-0.788
	c-1.714-0.05-2.775-1.888-1.961-3.397l7.283-13.494l5.623-10.429c0.368-0.682,0.368-1.504,0-2.186l-6.706-12.432l-6.201-11.49
	c-0.815-1.509,0.246-3.348,1.961-3.397l27.165-0.788c0.775-0.022,1.487-0.434,1.894-1.093l14.27-23.137
	c0.9-1.459,3.022-1.459,3.922,0l14.27,23.137c0.407,0.66,1.119,1.071,1.894,1.093l27.166,0.788
	C447.32,35.762,448.381,37.599,447.566,39.108z"/>
<path style="fill:#FF4C39;" d="M383.981,84.928l5.623-10.429c0.368-0.682,0.368-1.504,0-2.187l-6.705-12.433l-6.201-11.49
	c-0.815-1.509,0.246-3.348,1.961-3.397l27.165-0.788c0.776-0.022,1.487-0.434,1.894-1.093l7.275-11.796l-12.718-20.62
	c-0.9-1.46-3.022-1.46-3.922,0l-14.27,23.137c-0.407,0.66-1.119,1.071-1.894,1.093l-27.165,0.788
	c-1.714,0.05-2.775,1.888-1.961,3.397l6.201,11.49l6.705,12.433c0.368,0.682,0.368,1.504,0,2.187l-5.623,10.428l-7.283,13.494
	c-0.815,1.509,0.246,3.348,1.961,3.397l24.466,0.709L383.981,84.928z"/>
<path style="fill:#EDE6F5;" d="M339.917,331.648h-50.819h-32.814h-90.677h-32.814H81.973c-10.671,0-19.318,8.647-19.318,19.318
	v27.494c0,10.671,8.647,19.318,19.318,19.318h50.819h32.814h90.677h32.814h50.819c10.671,0,19.318-8.647,19.318-19.318v-27.494
	C359.235,340.295,350.588,331.648,339.917,331.648z"/>
<path style="fill:#E0D3F2;" d="M357.952,372.728h-50.819h-32.814h-90.677h-32.814h-29.122c-22.652,0-41.016-18.363-41.016-41.016
	l0,0c-10.07,0.663-18.035,9.016-18.035,19.254v27.494c0,10.669,8.649,19.318,19.318,19.318h50.819h32.814h90.677h32.814h50.819
	c10.669,0,19.318-8.649,19.318-19.318v-5.795C358.809,372.691,358.385,372.728,357.952,372.728z"/>
<circle style="fill:#F8D46E;" cx="210.94" cy="365.684" r="57.613"/>
<path style="fill:#F7C852;" d="M235.79,417.145c-31.821,0-57.617-25.795-57.617-57.617c0-22.477,12.879-41.934,31.653-51.43
	c-31.303,0.598-56.498,26.143-56.498,57.589c0,31.821,25.795,57.617,57.617,57.617c9.343,0,18.159-2.238,25.963-6.186
	C236.535,417.124,236.166,417.145,235.79,417.145z"/>
<path d="M442.611,64.125l13.344-24.737c1.237-2.294,1.197-5.067-0.105-7.325c-1.303-2.258-3.685-3.679-6.29-3.754l-28.096-0.813
	L406.712,3.571C405.343,1.352,402.922,0,400.315,0s-5.029,1.352-6.397,3.571l-14.752,23.925l-28.096,0.813
	c-2.606,0.075-4.988,1.497-6.29,3.754c-1.303,2.257-1.344,5.031-0.105,7.325l1.994,3.696h-3.517
	c-25.939,0-47.041,21.103-47.041,47.042v26.602c0,3.039-2.473,5.511-5.511,5.511c-3.039,0-5.511-2.472-5.511-5.511v-4.509
	c0-25.967-21.125-47.092-47.092-47.092s-47.092,21.125-47.092,47.092v86.669h-17.033c-5.769,0-11.038,2.181-15.029,5.759
	c-3.992-3.578-9.26-5.759-15.029-5.759h-22.043c-12.431,0-22.544,10.113-22.544,22.544c0,2.634,0.459,5.163,1.293,7.515H95.72
	c-12.431,0-22.544,10.113-22.544,22.544v74.131c-10.486,3.651-18.035,13.63-18.035,25.344v27.494
	c0,11.715,7.549,21.692,18.035,25.344v84.326c0,13.164,10.708,23.872,23.872,23.872h19.389c6.326,0,12.081-2.478,16.357-6.509
	c4.276,4.03,10.031,6.509,16.357,6.509h19.389c6.326,0,12.081-2.478,16.357-6.509c4.276,4.03,10.031,6.509,16.357,6.509h19.389
	c6.326,0,12.081-2.478,16.357-6.509c4.276,4.03,10.031,6.509,16.357,6.509h19.389c6.325,0,12.081-2.478,16.356-6.509
	c4.276,4.03,10.031,6.509,16.356,6.509h19.39c13.163,0,23.871-10.709,23.871-23.872v-84.326
	c10.487-3.651,18.035-13.629,18.035-25.344v-27.494c0-11.715-7.549-21.693-18.035-25.344v-74.131
	c0-12.431-10.114-22.544-22.544-22.544h-4.799c0.835-2.352,1.293-4.881,1.293-7.515c0-12.431-10.114-22.544-22.544-22.544h-22.043
	c-5.769,0-11.038,2.181-15.029,5.759c-3.992-3.578-9.26-5.759-15.029-5.759h-17.033v-86.669c0-3.868,3.146-7.014,7.014-7.014
	s7.014,3.146,7.014,7.014v4.509c0,25.138,20.451,45.589,45.589,45.589s45.589-20.451,45.589-45.589V90.126
	c0-3.84,3.123-6.964,6.963-6.964h4.598l-3.075,5.7c-1.237,2.294-1.197,5.067,0.105,7.325c1.303,2.258,3.685,3.679,6.29,3.754
	l28.096,0.813l14.752,23.925c1.368,2.219,3.788,3.571,6.397,3.571s5.029-1.352,6.396-3.571l14.752-23.925l28.096-0.813
	c2.606-0.075,4.988-1.497,6.29-3.754s1.344-5.031,0.105-7.325L442.611,64.125z M173.873,213.918h22.043
	c4.144,0,7.515,3.371,7.515,7.515c0,4.144-3.371,7.515-7.515,7.515h-22.043c-4.144,0-7.515-3.371-7.515-7.515
	C166.358,217.288,169.729,213.918,173.873,213.918z M289.098,306.098c-4.151,0-7.515,3.365-7.515,7.515v10.521h-21.674
	c-4.369-5.262-9.572-9.803-15.398-13.436v-37.954c2.352,0.835,4.881,1.293,7.515,1.293h22.043c2.634,0,5.163-0.459,7.515-1.293
	v10.811c0,4.15,3.364,7.515,7.515,7.515c4.151,0,7.515-3.365,7.515-7.515v-10.811c2.352,0.835,4.881,1.293,7.515,1.293h22.043
	c2.634,0,5.163-0.459,7.515-1.293v51.39h-37.072v-10.521C296.613,309.462,293.248,306.098,289.098,306.098z M210.945,413.307
	c-26.795,0-48.595-21.8-48.595-48.595c0-26.795,21.8-48.595,48.595-48.595s48.595,21.8,48.595,48.595
	C259.54,391.508,237.741,413.307,210.945,413.307z M88.206,324.133v-51.39c2.352,0.835,4.881,1.293,7.515,1.293h22.043
	c2.634,0,5.163-0.459,7.515-1.293v51.39H88.206z M210.945,301.088c-6.447,0-12.668,0.971-18.536,2.762v-31.108
	c2.352,0.835,4.881,1.293,7.515,1.293h22.043c2.634,0,5.163-0.459,7.515-1.293v31.108
	C223.613,302.059,217.391,301.088,210.945,301.088z M199.924,243.977h22.043c4.144,0,7.515,3.371,7.515,7.515
	c0,4.144-3.371,7.515-7.515,7.515h-22.043c-4.144,0-7.515-3.371-7.515-7.515C192.409,247.347,195.78,243.977,199.924,243.977z
	 M147.822,243.977h22.043c4.144,0,7.515,3.371,7.515,7.515c0,4.144-3.371,7.515-7.515,7.515h-22.043
	c-4.144,0-7.515-3.371-7.515-7.515C140.307,247.347,143.678,243.977,147.822,243.977z M281.583,251.491
	c0,4.144-3.371,7.515-7.515,7.515h-22.043c-4.144,0-7.515-3.371-7.515-7.515c0-4.144,3.371-7.515,7.515-7.515h22.043
	C278.213,243.977,281.583,247.347,281.583,251.491z M140.307,272.743c2.352,0.835,4.881,1.293,7.515,1.293h22.043
	c2.634,0,5.163-0.459,7.515-1.293v37.954c-5.826,3.633-11.03,8.174-15.398,13.436h-21.674V272.743z M121.771,213.918h22.043
	c4.144,0,7.515,3.371,7.515,7.515c0,4.144-3.371,7.515-7.515,7.515h-22.043c-4.144,0-7.515-3.371-7.515-7.515
	C114.257,217.288,117.627,213.918,121.771,213.918z M95.72,243.977h22.043c4.144,0,7.515,3.371,7.515,7.515
	c0,4.144-3.371,7.515-7.515,7.515H95.72c-4.144,0-7.515-3.371-7.515-7.515C88.206,247.347,91.576,243.977,95.72,243.977z
	 M70.17,350.965c0-6.509,5.295-11.803,11.803-11.803h50.819h19.902c-3.446,7.826-5.374,16.465-5.374,25.55
	c0,9.085,1.928,17.724,5.374,25.55h-19.902H81.973c-6.509,0-11.803-5.294-11.803-11.803V350.965z M116.436,496.971H97.048
	c-4.876,0-8.842-3.967-8.842-8.842v-82.837h37.072v82.837C125.278,493.004,121.311,496.971,116.436,496.971z M220.639,496.971
	h-19.388c-4.876,0-8.842-3.966-8.842-8.842v-10.195c0-4.15-3.365-7.515-7.515-7.515c-4.15,0-7.515,3.365-7.515,7.515v10.195
	c0,4.876-3.967,8.842-8.842,8.842H149.15c-4.876,0-8.842-3.967-8.842-8.842v-82.837h21.674c4.369,5.262,9.572,9.803,15.398,13.436
	v29.147c0,4.15,3.365,7.515,7.515,7.515c4.15,0,7.515-3.365,7.515-7.515v-22.301c5.868,1.79,12.09,2.762,18.536,2.762
	s12.668-0.971,18.536-2.762v62.554C229.482,493.005,225.515,496.971,220.639,496.971z M272.742,496.971h-19.389
	c-4.876,0-8.842-3.967-8.842-8.842v-69.401c5.826-3.633,11.03-8.174,15.398-13.436h21.674v82.837
	C281.583,493.004,277.617,496.971,272.742,496.971z M333.685,488.128c0,4.876-3.967,8.842-8.841,8.842h-19.39
	c-4.875,0-8.841-3.967-8.841-8.842v-82.837h37.072V488.128z M351.72,378.459c0,6.509-5.294,11.803-11.803,11.803h-50.819h-19.902
	c3.446-7.826,5.374-16.465,5.374-25.55c0-9.085-1.928-17.724-5.374-25.55h19.902h50.819c6.509,0,11.803,5.295,11.803,11.803V378.459
	z M333.685,251.491c0,4.144-3.371,7.515-7.515,7.515h-22.043c-4.144,0-7.515-3.371-7.515-7.515c0-4.144,3.371-7.515,7.515-7.515
	h22.043C330.314,243.977,333.685,247.347,333.685,251.491z M278.076,213.918h22.043c4.144,0,7.515,3.371,7.515,7.515
	c0,4.144-3.371,7.515-7.515,7.515h-22.043c-4.144,0-7.515-3.371-7.515-7.515C270.562,217.288,273.932,213.918,278.076,213.918z
	 M255.532,221.432c0,4.144-3.371,7.515-7.515,7.515h-22.043c-4.144,0-7.515-3.371-7.515-7.515c0-4.144,3.371-7.515,7.515-7.515
	h22.043C252.162,213.918,255.532,217.288,255.532,221.432z M343.153,68.133c-12.127,0-21.992,9.866-21.992,21.993v26.602
	c0,16.851-13.71,30.56-30.56,30.56s-30.56-13.709-30.56-30.56v-4.509c0-12.155-9.888-22.043-22.043-22.043
	s-22.043,9.888-22.043,22.043v86.168h-10.02v-86.168c0-17.68,14.383-32.063,32.063-32.063s32.063,14.383,32.063,32.063v4.509
	c0,11.326,9.214,20.54,20.54,20.54s20.54-9.214,20.54-20.54V90.126c0-17.651,14.36-32.013,32.012-32.013h11.624l3.243,6.012
	l-2.162,4.008H343.153z M427.459,67.693l9.483,17.578l-19.965,0.577c-2.529,0.073-4.851,1.415-6.179,3.568l-10.482,17.001
	l-10.482-17.001c-1.328-2.153-3.65-3.495-6.179-3.568l-19.965-0.577l3.239-6.005c0.015-0.027,0.029-0.053,0.043-0.08l6.2-11.493
	c1.201-2.226,1.201-4.909,0-7.135l-7.283-13.501c-0.013-0.024-0.026-0.049-0.039-0.073l-2.16-4.004l19.965-0.577
	c2.529-0.073,4.852-1.415,6.179-3.568l10.482-17.001l10.482,17.001c1.328,2.153,3.65,3.495,6.179,3.568l19.965,0.577l-9.483,17.578
	C426.257,62.785,426.257,65.466,427.459,67.693z"/>
<path d="M218.46,361.6v-21.937c0-4.15-3.365-7.515-7.515-7.515s-7.515,3.365-7.515,7.515v25.049c0,1.993,0.792,3.905,2.201,5.313
	l21.041,21.041c1.467,1.467,3.391,2.201,5.313,2.201s3.847-0.733,5.313-2.201c2.935-2.935,2.935-7.693,0-10.627L218.46,361.6z"/>
<g>
</g>
<g>
</g>
<g>
</g>
<g>
</g>
<g>
</g>
<g>
</g>
<g>
</g>
<g>
</g>
<g>
</g>
<g>
</g>
<g>
</g>
<g>
</g>
<g>
</g>
<g>
</g>
<g>
</g>
</svg>
