<?xml version="1.0" encoding="iso-8859-1"?>
<!-- Generator: Adobe Illustrator 19.0.0, SVG Export Plug-In . SVG Version: 6.00 Build 0)  -->
<svg xmlns="http://www.w3.org/2000/svg" xmlns:xlink="http://www.w3.org/1999/xlink" version="1.1" id="Layer_1" x="0px" y="0px" viewBox="0 0 408.98 408.98" style="enable-background:new 0 0 408.98 408.98;" xml:space="preserve" width="512" height="512">
<g>
	<path style="fill:#F7B239;" d="M238.608,59.941L232.989,7.5h-56.997l-5.62,52.441c-3.261,30.429-22.515,56.777-50.477,69.215   c-51.174,22.762-85.646,65.537-85.646,114.56c0,72.898,76.22,131.993,170.241,131.993s170.241-59.095,170.241-131.993   c0-49.023-34.472-91.798-85.646-114.56C261.123,116.718,241.869,90.37,238.608,59.941z"/>
	<path style="fill:#E09B2D;" d="M204.489,375.709c-94.02,0-170.24-59.1-170.24-131.99c0-49.03,34.47-91.8,85.64-114.56   c27.96-12.44,47.22-38.79,50.48-69.22l5.62-52.44h15.42l-2.57,52.44c-1.5,30.43-10.33,56.78-23.16,69.22   c-23.47,22.76-39.29,65.53-39.29,114.56C126.388,316.609,161.359,375.709,204.489,375.709z"/>
	<path style="fill:#FFFFFF;" d="M328.897,309.251c-1.729,0-3.467-0.595-4.882-1.81c-3.143-2.699-3.503-7.434-0.805-10.576   c13.752-16.016,21.021-34.395,21.021-53.15c0-14.495-4.579-29.224-13.241-42.596c-2.252-3.477-1.259-8.12,2.218-10.373   c3.475-2.251,8.12-1.259,10.372,2.217c10.239,15.807,15.651,33.356,15.651,50.751c0,22.39-8.521,44.148-24.64,62.922   C333.108,308.365,331.009,309.251,328.897,309.251z"/>
	<path style="fill:#FFFFFF;" d="M235.226,121.172c-2.348,0-4.659-1.099-6.122-3.158c-8.447-11.896-14.515-25.068-18.035-39.148   c-1.004-4.019,1.438-8.091,5.457-9.095c4.018-1.003,8.091,1.438,9.096,5.457c3.065,12.261,8.352,23.735,15.713,34.102   c2.398,3.377,1.604,8.06-1.773,10.458C238.243,120.722,236.727,121.172,235.226,121.172z"/>
	<path style="fill:#FFFFFF;" d="M214.113,54.8c-3.784,0-7.036-2.854-7.448-6.701l-1.801-16.799   c-0.441-4.118,2.539-7.815,6.657-8.257c4.126-0.441,7.815,2.54,8.257,6.658l1.801,16.799c0.441,4.118-2.539,7.815-6.657,8.257   C214.65,54.785,214.38,54.8,214.113,54.8z"/>
	<circle style="fill:#FFFFFF;" cx="321.808" cy="177.83" r="7.5"/>
	<g>
		<path style="fill:#333333;" d="M292.133,122.303c-25.453-11.322-43.105-35.524-46.067-63.161l-5.62-52.441    C240.037,2.89,236.821,0,232.988,0h-56.997c-3.833,0-7.049,2.89-7.457,6.701l-5.619,52.441    c-2.963,27.638-20.615,51.84-46.068,63.162c-55.574,24.719-90.098,71.241-90.098,121.412c0,37.627,18.739,72.878,52.767,99.261    c29.525,22.891,67.553,36.701,108.464,39.636l-4.703,4.703c-2.929,2.929-2.929,7.678,0,10.606c2.93,2.929,7.678,2.929,10.607,0    l3.105-3.106v6.665c0,4.142,3.357,7.5,7.5,7.5s7.5-3.358,7.5-7.5v-6.665l3.105,3.106c1.465,1.464,3.385,2.197,5.304,2.197    s3.839-0.732,5.304-2.197c2.929-2.929,2.929-7.678,0-10.606L221,382.612c40.912-2.935,78.94-16.745,108.464-39.636    c34.027-26.383,52.767-61.634,52.767-99.261C382.231,193.545,347.708,147.022,292.133,122.303z M204.49,368.209    c-89.735,0-162.741-55.848-162.741-124.494c0-44.16,31.111-85.431,81.193-107.707c30.325-13.488,51.356-42.329,54.887-75.268    L182.73,15h43.519l4.902,45.74v0c3.529,32.939,24.561,61.78,54.886,75.268c50.082,22.276,81.194,63.547,81.194,107.707    C367.231,312.361,294.226,368.209,204.49,368.209z"/>
		<path style="fill:#333333;" d="M129.956,144.79c-3.159-2.678-7.892-2.287-10.57,0.873c-22.259,26.265-34.518,61.085-34.518,98.049    c0,29.364,7.719,57.441,22.32,81.197c1.416,2.304,3.877,3.574,6.396,3.574c1.34,0,2.696-0.359,3.921-1.111    c3.528-2.169,4.631-6.788,2.462-10.317c-13.149-21.392-20.1-46.753-20.1-73.343c0-33.416,10.995-64.792,30.961-88.351    C133.507,152.201,133.116,147.468,129.956,144.79z"/>
		<path style="fill:#333333;" d="M279.02,144.79c-3.16,2.678-3.551,7.411-0.873,10.571c19.966,23.558,30.961,54.935,30.961,88.351    c0,26.589-6.95,51.951-20.1,73.343c-2.169,3.529-1.066,8.147,2.462,10.317c1.226,0.753,2.581,1.111,3.921,1.111    c2.52,0,4.98-1.27,6.396-3.574c14.602-23.756,22.32-51.833,22.32-81.197c0-36.963-12.259-71.784-34.518-98.049    C286.912,142.503,282.18,142.112,279.02,144.79z"/>
		<path style="fill:#333333;" d="M224.712,128.156c-3.775,1.704-5.454,6.146-3.75,9.922c10.729,23.765,17.136,63.254,17.136,105.633    c0,34.742-4.203,67.245-11.835,91.521c-1.242,3.951,0.955,8.162,4.906,9.404c0.748,0.235,1.506,0.347,2.251,0.347    c3.188,0,6.146-2.05,7.152-5.253c8.077-25.692,12.525-59.793,12.525-96.019c0-44.401-6.902-86.198-18.464-111.806    C232.929,128.131,228.487,126.45,224.712,128.156z"/>
		<path style="fill:#333333;" d="M184.276,128.157c-3.778-1.708-8.218-0.028-9.924,3.746    c-11.562,25.586-18.465,67.383-18.465,111.808c0,36.228,4.448,70.328,12.526,96.02c1.007,3.203,3.964,5.252,7.152,5.252    c0.745,0,1.503-0.112,2.251-0.347c3.952-1.242,6.148-5.453,4.905-9.404c-7.632-24.275-11.835-56.778-11.835-91.521    c0-42.401,6.405-81.889,17.135-105.631C189.728,134.306,188.051,129.863,184.276,128.157z"/>
	</g>
</g>















</svg>
