<?xml version="1.0" encoding="iso-8859-1"?>
<!-- Generator: Adobe Illustrator 19.0.0, SVG Export Plug-In . SVG Version: 6.00 Build 0)  -->
<svg version="1.1" id="Layer_1" xmlns="http://www.w3.org/2000/svg" xmlns:xlink="http://www.w3.org/1999/xlink" x="0px" y="0px"
	 viewBox="0 0 512.005 512.005" style="enable-background:new 0 0 512.005 512.005;" xml:space="preserve">
<path style="fill:#76B580;" d="M256.003,0c0,0-13.47,65.313-17.655,158.897v70.621h35.31v-70.621
	C269.449,65.666,256.003,0,256.003,0z"/>
<path style="fill:#CDA046;" d="M288.727,496.931l-26.455-26.455c-0.218-0.221-0.448-0.429-0.69-0.626
	c-0.041-0.033-0.084-0.061-0.125-0.093c-0.184-0.146-0.373-0.288-0.569-0.418c-0.088-0.059-0.18-0.108-0.269-0.163
	c-0.154-0.095-0.308-0.191-0.469-0.277c-0.105-0.056-0.214-0.104-0.321-0.155c-0.152-0.073-0.302-0.149-0.459-0.213
	c-0.111-0.046-0.226-0.083-0.339-0.124c-0.157-0.057-0.312-0.117-0.472-0.165c-0.119-0.035-0.241-0.062-0.362-0.093
	c-0.157-0.041-0.313-0.084-0.473-0.116c-0.147-0.029-0.294-0.046-0.441-0.067c-0.137-0.02-0.271-0.045-0.409-0.059
	c-0.578-0.057-1.162-0.057-1.74,0c-0.139,0.013-0.274,0.04-0.41,0.06c-0.147,0.022-0.295,0.039-0.441,0.067
	c-0.161,0.032-0.317,0.075-0.474,0.116c-0.12,0.031-0.242,0.057-0.361,0.093c-0.161,0.049-0.317,0.108-0.473,0.165
	c-0.113,0.041-0.227,0.078-0.339,0.124c-0.157,0.065-0.308,0.14-0.46,0.214c-0.107,0.052-0.215,0.098-0.32,0.154
	c-0.161,0.086-0.314,0.182-0.47,0.278c-0.089,0.055-0.181,0.105-0.269,0.163c-0.198,0.131-0.387,0.275-0.573,0.422
	c-0.04,0.031-0.082,0.057-0.12,0.09c-0.241,0.196-0.471,0.405-0.69,0.626l-26.455,26.455c-3.448,3.448-3.448,9.035,0,12.483
	c1.725,1.725,3.982,2.586,6.241,2.586s4.518-0.862,6.241-2.586l11.417-11.418v5.172c0,4.879,3.953,8.828,8.828,8.828
	s8.828-3.948,8.828-8.828v-5.173l11.414,11.414c1.725,1.725,3.982,2.586,6.241,2.586s4.518-0.862,6.241-2.586
	C292.175,505.965,292.175,500.38,288.727,496.931z"/>
<path style="fill:#FAD264;" d="M273.658,267.154v-19.981l-17.655,26.483l-17.655-26.483v19.618c0,13.864-7.791,26.945-20.537,32.399
	c-36.9,15.793-62.044,53.741-58.595,97.158c3.837,48.305,44.538,87.235,92.959,89.096c55.373,2.129,100.932-42.13,100.932-97.03
	c0-40.003-24.207-74.303-58.763-89.161C281.634,293.789,273.658,280.988,273.658,267.154z"/>
<path style="fill:#82D78C;" d="M105.934,35.31c95.633,90.891,132.414,168.705,132.414,211.862h35.31
	C256.739,114.432,105.934,35.31,105.934,35.31z"/>
<path style="fill:#A0EB87;" d="M238.348,247.172l17.655,26.483l17.655-26.483c0-43.157,36.781-120.971,132.414-211.862
	C406.072,35.31,255.267,114.432,238.348,247.172z"/>
<path style="fill:#FADC6E;" d="M308.973,443.948c-2.073,0-4.16-0.724-5.836-2.207c-3.656-3.224-4.004-8.802-0.78-12.457
	c9.956-11.284,15.439-25.802,15.439-40.871c0-8.018-1.513-15.828-4.495-23.198c-1.832-4.517,0.349-9.664,4.871-11.491
	c4.518-1.827,9.668,0.353,11.491,4.871c3.84,9.482,5.789,19.517,5.789,29.818c0,19.371-7.052,38.035-19.853,52.543
	C313.852,442.94,311.417,443.948,308.973,443.948z"/>
<path style="fill:#FAE17D;" d="M302.705,344.267c-2.073,0-4.156-0.724-5.832-2.207c-5.271-4.647-11.224-8.328-17.689-10.948
	c-4.518-1.827-6.698-6.974-4.866-11.491c1.827-4.526,6.987-6.69,11.496-4.871c8.314,3.362,15.966,8.104,22.733,14.069
	c3.659,3.224,4.009,8.802,0.785,12.457C307.585,343.258,305.154,344.267,302.705,344.267z"/>
<g>
	<polygon style="fill:#FAC15E;" points="273.658,247.951 273.658,247.172 273.432,247.512 	"/>
	<path style="fill:#FAC15E;" d="M212.109,396.348c-2.665-43.416,16.764-81.365,45.278-97.158c9.849-5.454,15.87-18.536,15.87-32.399
		v-19.016l-17.254,25.88l-17.655-26.483v19.617c0,13.864-7.791,26.945-20.537,32.399c-36.9,15.794-62.044,53.742-58.595,97.158
		c3.837,48.303,44.538,87.235,92.959,89.096c7.357,0.283,14.522-0.307,21.449-1.578
		C240.904,476.104,214.796,440.126,212.109,396.348z"/>
</g>
<g>
</g>
<g>
</g>
<g>
</g>
<g>
</g>
<g>
</g>
<g>
</g>
<g>
</g>
<g>
</g>
<g>
</g>
<g>
</g>
<g>
</g>
<g>
</g>
<g>
</g>
<g>
</g>
<g>
</g>
</svg>
