<?xml version="1.0" encoding="iso-8859-1"?>
<!-- Generator: Adobe Illustrator 19.0.0, SVG Export Plug-In . SVG Version: 6.00 Build 0)  -->
<svg version="1.1" id="Capa_1" xmlns="http://www.w3.org/2000/svg" xmlns:xlink="http://www.w3.org/1999/xlink" x="0px" y="0px"
	 viewBox="0 0 485.6 485.6" style="enable-background:new 0 0 485.6 485.6;" xml:space="preserve">
<g>
	<path style="fill:#735127;" d="M210.8,480h-16v-12.8l-13.6-13.6c-2.4-2.4-3.2-5.6-1.6-8l8-24l15.2,4.8l-6.4,19.2l12.8,12.8
		c1.6,1.6,2.4,3.2,2.4,5.6v16H210.8z"/>
	<path style="fill:#735127;" d="M144.4,485.6l-11.2-11.2l12-12l-5.6-11.2c-1.6-3.2-0.8-6.4,1.6-9.6l24-24l11.2,11.2l-20,20L162,460
		c1.6,3.2,0.8,6.4-1.6,9.6L144.4,485.6z"/>
	<path style="fill:#735127;" d="M245.2,485.6l-16-16c-2.4-2.4-3.2-6.4-1.6-9.6l5.6-11.2l-20-20l11.2-11.2l24,24
		c2.4,2.4,3.2,6.4,1.6,9.6l-5.6,11.2l12,12L245.2,485.6z"/>
</g>
<path style="fill:#862154;" d="M335.6,177.6c-7.2-8.8-15.2-16.8-24.8-24c-43.2-34.4-68-87.2-68-142.4V0l-32,64l-24-64l-24,64l-32-64
	v11.2c0,55.2-24.8,108-68,142.4c-36.8,28-59.2,72-60,118.4c0,88,82.4,160,184,160c32.8,0,65.6-8,95.2-23.2"/>
<circle style="fill:#530A30;" cx="354.8" cy="304" r="128"/>
<circle style="fill:#862154;" cx="354.8" cy="304" r="96"/>
<circle style="fill:#BF84A5;" cx="354.8" cy="304" r="64"/>
<g>
	<path style="fill:#530A30;" d="M179.6,404l-24-40c-16.8-27.2-24.8-58.4-24.8-90.4v-3.2c0-32,8.8-63.2,24.8-90.4l24-40l13.6,8
		l-24,40c-14.4,24.8-22.4,53.6-22.4,82.4v3.2c0,28.8,8,57.6,23.2,82.4l24,40L179.6,404z"/>
	<path style="fill:#530A30;" d="M101.2,373.6L83.6,356c-20.8-20.8-32.8-49.6-32.8-79.2v-1.6c0-29.6,12-58.4,32.8-79.2l17.6-17.6
		l11.2,11.2l-17.6,17.6c-18.4,17.6-28,42.4-28,68v1.6c0,25.6,10.4,49.6,28,68l17.6,17.6L101.2,373.6z"/>
</g>
<g>
</g>
<g>
</g>
<g>
</g>
<g>
</g>
<g>
</g>
<g>
</g>
<g>
</g>
<g>
</g>
<g>
</g>
<g>
</g>
<g>
</g>
<g>
</g>
<g>
</g>
<g>
</g>
<g>
</g>
</svg>
