<?xml version="1.0" encoding="iso-8859-1"?>
<!-- Generator: Adobe Illustrator 19.0.0, SVG Export Plug-In . SVG Version: 6.00 Build 0)  -->
<svg version="1.1" id="Capa_1" xmlns="http://www.w3.org/2000/svg" xmlns:xlink="http://www.w3.org/1999/xlink" x="0px" y="0px"
	 viewBox="0 0 512 512" style="enable-background:new 0 0 512 512;" xml:space="preserve">
<path style="fill:#7FDC48;" d="M261.77,102.557c-8.383,0-15.18-6.797-15.18-15.18V63.651C246.59,28.554,275.143,0,310.241,0
	c8.383,0,15.18,6.797,15.18,15.18s-6.797,15.18-15.18,15.18c-18.358,0-33.291,14.934-33.291,33.291v23.725
	C276.95,95.761,270.153,102.557,261.77,102.557z"/>
<path style="fill:#FF5957;" d="M481.288,123.938c-5.933-15.316-16.252-28.315-29.836-37.591c-13.558-9.257-29.41-14.15-45.838-14.15
	H390.07c-19.74,0-38.761,6.196-54.557,17.155c-13.743-10.832-31.02-17.155-49.2-17.155h-49.085
	c-20.646,0-40.125,8.156-54.587,21.811c-16.879-13.842-38.333-21.811-60.712-21.811h-15.544c-16.428,0-32.279,4.893-45.838,14.15
	c-13.585,9.276-23.902,22.275-29.836,37.591C13.509,168.338,8.32,228.518,16.478,289.044c10.081,74.812,37.59,147.602,71.79,189.964
	C105.195,499.975,130.586,512,157.947,512c17.635,0,34.134-7.612,45.267-20.888c0.736-0.876,1.46-1.781,2.182-2.698
	c14.723,14.932,35.072,23.585,56.378,23.585c18.336,0,35.961-6.414,49.904-17.72c10.999,11.302,26.206,17.72,42.379,17.72
	c27.617,0,53.324-12.414,70.532-34.058c33.781-42.486,60.961-114.867,70.936-188.897
	C503.679,228.518,498.49,168.338,481.288,123.938z"/>
<path style="fill:#46A655;" d="M310.241,0c-22.912,0-43.028,12.171-54.239,30.384v71.031c1.779,0.732,3.725,1.142,5.768,1.142
	c8.383,0,15.18-6.797,15.18-15.18V63.651c0-18.358,14.934-33.291,33.291-33.291c8.383,0,15.18-6.797,15.18-15.18
	S318.625,0,310.241,0z"/>
<path style="fill:#FC1B5B;" d="M451.452,86.347c-13.558-9.257-29.41-14.15-45.838-14.15H390.07c-19.74,0-38.761,6.196-54.557,17.155
	c-13.743-10.832-31.02-17.155-49.2-17.155h-30.31v439.566c1.914,0.141,3.835,0.237,5.768,0.237c18.336,0,35.961-6.414,49.904-17.72
	c10.999,11.302,26.206,17.72,42.379,17.72c27.617,0,53.324-12.414,70.532-34.058c33.781-42.486,60.961-114.867,70.936-188.897
	c8.158-60.527,2.969-120.705-14.233-165.106C475.355,108.622,465.037,95.623,451.452,86.347z"/>
<g>
</g>
<g>
</g>
<g>
</g>
<g>
</g>
<g>
</g>
<g>
</g>
<g>
</g>
<g>
</g>
<g>
</g>
<g>
</g>
<g>
</g>
<g>
</g>
<g>
</g>
<g>
</g>
<g>
</g>
</svg>
