<?xml version="1.0" encoding="iso-8859-1"?>
<!-- Generator: Adobe Illustrator 19.0.0, SVG Export Plug-In . SVG Version: 6.00 Build 0)  -->
<svg version="1.1" id="Capa_1" xmlns="http://www.w3.org/2000/svg" xmlns:xlink="http://www.w3.org/1999/xlink" x="0px" y="0px"
	 viewBox="0 0 512 512" style="enable-background:new 0 0 512 512;" xml:space="preserve">
<path style="fill:#E1AAB8;" d="M106.21,193.211l25.382-117.76c4.067-18.862,19.36-32.035,37.193-32.035h174.432
	c17.832,0,33.125,13.173,37.192,32.034l25.382,117.761h32.672c-0.001-1.123-0.113-2.261-0.359-3.403L411.986,68.643
	c-7.302-33.873-35.581-57.532-68.77-57.532H168.785c-33.19,0-61.469,23.658-68.771,57.533L73.897,189.808
	c-0.246,1.143-0.358,2.28-0.359,3.403H106.21z"/>
<g>
	<path style="fill:#D496AE;" d="M116.925,75.451l-25.382,117.76h14.667l25.382-117.76c4.067-18.862,19.36-32.035,37.193-32.035
		h-14.667C136.284,43.415,120.992,56.589,116.925,75.451z"/>
	<path style="fill:#D496AE;" d="M438.102,189.808L411.986,68.643c-7.302-33.873-35.581-57.532-68.77-57.532h-14.667
		c33.189,0,61.468,23.658,68.77,57.532l26.116,121.165c0.246,1.143,0.358,2.28,0.359,3.403h14.667
		C438.46,192.088,438.348,190.949,438.102,189.808z"/>
</g>
<path style="fill:#EDCC7A;" d="M442.492,500.731H69.508c-11.865,0-21.885-8.807-23.407-20.574L16.319,250.06h479.362L465.9,480.157
	C464.376,491.924,454.356,500.731,442.492,500.731z"/>
<path style="fill:#E7BE5A;" d="M428.252,250.06l-29.782,230.097c-1.523,11.766-11.544,20.573-23.407,20.573h67.428
	c11.864,0,21.885-8.807,23.407-20.573L495.68,250.06H428.252z"/>
<g>
	<rect x="81.16" y="250.222" style="fill:#DE9C86;" width="50.134" height="50.134"/>
	<rect x="81.16" y="350.485" style="fill:#DE9C86;" width="50.134" height="50.134"/>
	<rect x="81.16" y="450.749" style="fill:#DE9C86;" width="50.134" height="50.134"/>
	<polygon style="fill:#DE9C86;" points="81.162,350.485 29.297,350.329 22.808,300.195 81.162,300.351 	"/>
	<rect x="131.297" y="300.348" style="fill:#DE9C86;" width="50.134" height="50.134"/>
	<rect x="231.561" y="300.348" style="fill:#DE9C86;" width="50.134" height="50.134"/>
	<rect x="181.434" y="350.485" style="fill:#DE9C86;" width="50.134" height="50.134"/>
	<rect x="181.434" y="250.222" style="fill:#DE9C86;" width="50.134" height="50.134"/>
	<rect x="181.434" y="450.749" style="fill:#DE9C86;" width="50.134" height="50.134"/>
	<rect x="131.297" y="400.622" style="fill:#DE9C86;" width="50.134" height="50.134"/>
	<polygon style="fill:#DE9C86;" points="81.162,450.753 42.496,450.597 35.736,400.463 81.162,400.619 	"/>
	<rect x="231.561" y="400.622" style="fill:#DE9C86;" width="50.134" height="50.134"/>
	<rect x="281.698" y="250.222" style="fill:#DE9C86;" width="50.134" height="50.134"/>
	<rect x="281.698" y="350.485" style="fill:#DE9C86;" width="50.134" height="50.134"/>
	<rect x="281.698" y="450.749" style="fill:#DE9C86;" width="50.134" height="50.134"/>
	<rect x="331.835" y="300.348" style="fill:#DE9C86;" width="50.134" height="50.134"/>
	<rect x="331.835" y="400.622" style="fill:#DE9C86;" width="50.134" height="50.134"/>
	<path style="fill:#DE9C86;" d="M381.967,500.888h50.134v-50.134h-50.134V500.888z M469.725,450.597l6.489-50.134L432.1,400.62
		v50.134L469.725,450.597z M489.192,300.194l-57.091,0.158v50.134l50.602-0.158L489.192,300.194z M381.967,250.217v50.134h50.134
		v-50.134L381.967,250.217L381.967,250.217z M381.967,350.485v50.134h50.134v-50.134H381.967z"/>
</g>
<g>
	<path style="fill:#D68369;" d="M398.471,480.157c-1.216,9.389-7.848,16.877-16.504,19.527v1.046h50.134v-49.976h-29.824
		L398.471,480.157z"/>
	<polygon style="fill:#D68369;" points="415.254,350.485 408.766,400.62 432.101,400.62 432.101,350.485 	"/>
	<polygon style="fill:#D68369;" points="489.192,300.194 432.101,300.351 432.101,350.485 482.703,350.328 	"/>
	<polygon style="fill:#D68369;" points="432.101,400.62 432.101,450.754 469.725,450.597 475.283,407.662 476.214,400.463 	"/>
	<polygon style="fill:#D68369;" points="428.232,250.217 421.743,300.351 432.101,300.351 432.101,250.217 	"/>
</g>
<polygon style="fill:#90B64F;" points="181.43,348.427 89.931,248.159 272.93,248.159 "/>
<polygon style="fill:#B5D062;" points="281.698,398.561 144.448,248.159 418.948,248.159 "/>
<path style="fill:#D46466;" d="M500.408,251.089H11.592C5.19,251.089,0,245.9,0,239.498v-35.725c0-6.402,5.19-11.592,11.592-11.592
	h488.816c6.402,0,11.592,5.19,11.592,11.592v35.725C512,245.9,506.81,251.089,500.408,251.089z"/>
<path style="fill:#B8526F;" d="M500.408,192.182h-79.899c6.402,0,11.592,5.19,11.592,11.592v35.725
	c0,6.402-5.19,11.592-11.592,11.592h79.899c6.402,0,11.592-5.19,11.592-11.592v-35.725C512,197.371,506.81,192.182,500.408,192.182z
	"/>
<g>
</g>
<g>
</g>
<g>
</g>
<g>
</g>
<g>
</g>
<g>
</g>
<g>
</g>
<g>
</g>
<g>
</g>
<g>
</g>
<g>
</g>
<g>
</g>
<g>
</g>
<g>
</g>
<g>
</g>
</svg>
