<?xml version="1.0" encoding="iso-8859-1"?>
<!-- Generator: Adobe Illustrator 19.0.0, SVG Export Plug-In . SVG Version: 6.00 Build 0)  -->
<svg version="1.1" id="Capa_1" xmlns="http://www.w3.org/2000/svg" xmlns:xlink="http://www.w3.org/1999/xlink" x="0px" y="0px"
	 viewBox="0 0 511.998 511.998" style="enable-background:new 0 0 511.998 511.998;" xml:space="preserve">
<path style="fill:#F5DC64;" d="M138.832,474.072c23.695,24.281,56.195,37.962,90.128,37.926h54.077
	c69.687,0,126.179-56.492,126.179-126.179v-99.141c0-2.001-0.18-3.948-0.27-5.93C346.379,376.823,249.951,445.834,138.832,474.072z"
	/>
<path style="fill:#FFE96F;" d="M408.946,280.747c-2.839-60.44-48.183-110.353-108.064-118.969
	c-5.912-0.838-11.879-1.262-17.845-1.28H228.96c-5.966,0.009-11.933,0.433-17.845,1.262
	c-62.161,8.878-108.334,62.125-108.334,124.918v99.141c-0.036,33.014,12.915,64.712,36.051,88.253
	C249.951,445.834,346.379,376.823,408.946,280.747z"/>
<path style="fill:#307E45;" d="M256.269,60.456c10.112,11.176,18.17,24.055,23.794,38.034c1.082,2.614,2.073,5.227,2.974,7.931
	l0.451,0.361c-11.699,14.475-20.513,31.058-25.957,48.849l-1.532,4.867l-1.532-4.867c-0.631-1.983-1.262-3.876-1.893-5.768
	l2.524-0.901l-12.978-35.51c-14.384-39.701-41.107-73.743-76.248-97.158l5.047,0.541C203.86,20.06,234.359,35.643,256.269,60.456z"
	/>
<g>
	<path style="fill:#49B200;" d="M280.063,98.49c-5.624-13.979-13.681-26.858-23.794-38.034
		c14.114-45.352,62.315-70.66,107.667-56.546c2.172,0.676,4.326,1.442,6.435,2.289l2.794,1.082
		c-43.234,5.408-78.411,37.412-87.875,79.944l-2.253,10.184L280.063,98.49z"/>
	<path style="fill:#49B200;" d="M228.96,160.498c-5.966,0.009-11.933,0.433-17.845,1.262l-0.18-1.262
		c-23.433-46.777-61.377-84.72-108.154-108.154c3.785-0.27,7.571-0.451,11.266-0.451c62.252,0.054,117.734,39.287,138.527,97.969
		c0.631,1.893,1.262,3.785,1.893,5.768l1.532,4.867H228.96z"/>
	<path style="fill:#49B200;" d="M301.063,160.498l-0.18,1.262c-5.912-0.829-11.879-1.253-17.845-1.262h-27.038l1.532-4.867
		c5.444-17.791,14.258-34.375,25.957-48.849c27.877-34.69,69.966-54.87,114.463-54.888c3.695,0,7.481,0.18,11.266,0.451
		C362.44,75.777,324.496,113.721,301.063,160.498z"/>
</g>
<g>
	<path style="fill:#FFA439;" d="M249.627,311.075l-20.666-20.666l-20.666,20.666l-12.744-12.744l27.038-27.038
		c3.515-3.515,9.229-3.515,12.744,0l27.038,27.038L249.627,311.075z"/>
	<path style="fill:#FFA439;" d="M204.563,238.972l-20.666-20.666l-20.666,20.666l-12.744-12.744l27.038-27.038
		c3.515-3.515,9.229-3.515,12.744,0l27.038,27.038L204.563,238.972z"/>
	<path style="fill:#FFA439;" d="M319.089,367.793c-2.388,0-4.687-0.946-6.372-2.641l-20.666-20.666l-20.666,20.666l-12.744-12.744
		l27.038-27.038c3.524-3.515,9.229-3.515,12.744,0l20.666,20.666l20.666-20.666l12.744,12.744l-27.038,27.038
		C323.766,366.837,321.477,367.793,319.089,367.793z"/>
	<path style="fill:#FFA439;" d="M210.935,439.895c-2.388,0-4.687-0.946-6.372-2.641l-20.666-20.666l-20.666,20.666l-12.744-12.744
		l27.038-27.038c3.515-3.515,9.229-3.515,12.744,0l20.666,20.666l20.666-20.666c3.515-3.515,9.229-3.515,12.744,0l27.038,27.038
		l-12.744,12.744l-20.666-20.666l-20.666,20.666C215.612,438.94,213.323,439.895,210.935,439.895z"/>
	<path style="fill:#FFA439;" d="M195.55,365.152l-20.666-20.666l-20.666,20.666l-12.744-12.744l27.038-27.038
		c3.515-3.515,9.229-3.515,12.744,0l27.038,27.038L195.55,365.152z"/>
	<path style="fill:#FFA439;" d="M348.768,428.241l-20.666-20.666l-20.666,20.666l-12.744-12.744l27.038-27.038
		c3.515-3.515,9.229-3.515,12.744,0l27.038,27.038L348.768,428.241z"/>
	<path style="fill:#FFA439;" d="M366.793,302.062l-20.666-20.666l-20.666,20.666l-12.744-12.744l27.038-27.038
		c3.515-3.515,9.229-3.515,12.744,0l27.038,27.038L366.793,302.062z"/>
	<path style="fill:#FFA439;" d="M294.691,482.318l-20.666-20.666l-20.666,20.666l-12.744-12.744l27.038-27.038
		c3.515-3.515,9.229-3.515,12.744,0l27.038,27.038L294.691,482.318z"/>
	<path style="fill:#FFA439;" d="M292.05,241.613c-2.388,0-4.687-0.946-6.372-2.641l-27.038-27.038l12.744-12.744l20.666,20.666
		l20.666-20.666c3.515-3.515,9.229-3.515,12.744,0l27.038,27.038l-12.744,12.744l-20.666-20.666l-20.666,20.666
		C296.728,240.658,294.438,241.613,292.05,241.613z"/>
</g>
<g>
</g>
<g>
</g>
<g>
</g>
<g>
</g>
<g>
</g>
<g>
</g>
<g>
</g>
<g>
</g>
<g>
</g>
<g>
</g>
<g>
</g>
<g>
</g>
<g>
</g>
<g>
</g>
<g>
</g>
</svg>
