<?xml version="1.0" encoding="iso-8859-1"?>
<!-- Generator: Adobe Illustrator 19.0.0, SVG Export Plug-In . SVG Version: 6.00 Build 0)  -->
<svg version="1.1" id="Capa_1" xmlns="http://www.w3.org/2000/svg" xmlns:xlink="http://www.w3.org/1999/xlink" x="0px" y="0px"
	 viewBox="0 0 512 512" style="enable-background:new 0 0 512 512;" xml:space="preserve">
<path style="fill:#C0BCC1;" d="M475.871,322.065v-16.516h-96.25l8.468-90.065l-16.444-1.548l-8.613,91.613h-98.774V214.71h-16.516
	v90.839h-98.774l-8.613-91.613l-16.444,1.548l8.468,90.065h-96.25v16.516h97.802l6.988,74.323H53.331v16.516h89.141l7.06,75.097
	l16.444-1.548l-6.915-73.548h88.681v74.323h16.516v-74.323h88.681l-6.915,73.548L362.468,488l7.06-75.097h89.141v-16.516H371.08
	l6.988-74.323L475.871,322.065L475.871,322.065z M157.508,396.387l-6.987-74.323h97.221v74.323H157.508z M354.492,396.387h-90.234
	v-74.323h97.221L354.492,396.387z"/>
<path style="fill:#C9C6CA;" d="M425.258,495.484H86.742c-15.968,0-29.645-11.407-32.5-27.121L8.395,216.186l16.242-2.952
	l45.847,252.173c1.435,7.855,8.274,13.56,16.258,13.56h338.516c7.984,0,14.823-5.706,16.258-13.565l45.847-252.169l16.242,2.952
	l-45.847,252.173C454.903,484.077,441.226,495.484,425.258,495.484z"/>
<path style="fill:#E6646E;" d="M495.484,222.968H16.516C7.395,222.968,0,215.573,0,206.452l0,0c0-9.122,7.395-16.516,16.516-16.516
	h478.968c9.122,0,16.516,7.395,16.516,16.516l0,0C512,215.573,504.605,222.968,495.484,222.968z"/>
<path style="fill:#FFE17D;" d="M144.227,216.701L144.227,216.701c-8.097-4.2-11.257-14.168-7.058-22.266l87.65-169.004
	c4.2-8.097,14.168-11.257,22.266-7.058l0,0c8.097,4.2,11.257,14.168,7.058,22.266l-87.65,169.004
	C162.293,217.741,152.324,220.901,144.227,216.701z"/>
<path style="fill:#FFD164;" d="M153.685,198.844l87.65-169.004c2.154-4.154,5.834-6.981,9.993-8.209
	c-1.217-1.265-2.599-2.404-4.244-3.257c-8.097-4.2-18.066-1.04-22.265,7.057l-87.65,169.004c-4.2,8.097-1.04,18.066,7.058,22.265
	v0.001c3.943,2.045,8.323,2.317,12.272,1.151C151.724,212.89,150.339,205.296,153.685,198.844z"/>
<path style="fill:#FFE17D;" d="M264.916,18.374L264.916,18.374c-8.097,4.2-11.257,14.168-7.058,22.266l87.65,169.004
	c4.2,8.097,14.168,11.257,22.266,7.058l0,0c8.097-4.2,11.257-14.168,7.058-22.266l-87.65-169.004
	C282.982,17.334,273.013,14.174,264.916,18.374z"/>
<path style="fill:#FFD164;" d="M274.374,36.231l87.65,169.004c2.154,4.154,5.834,6.981,9.993,8.209
	c-1.217,1.265-2.599,2.404-4.244,3.257c-8.097,4.2-18.066,1.04-22.265-7.057L257.858,40.64c-4.2-8.097-1.04-18.066,7.058-22.265
	v-0.001c3.943-2.045,8.323-2.317,12.272-1.151C272.413,22.185,271.028,29.779,274.374,36.231z"/>
<g>
	<path style="fill:#FF8087;" d="M121.264,189.936h-96.49c-4.561,0-8.258,3.697-8.258,8.258c0,4.56,3.697,8.258,8.258,8.258h90.135
		c2.277,0,3.932-1.917,3.938-4.193C118.859,198.067,119.688,193.9,121.264,189.936z"/>
	<path style="fill:#FF8087;" d="M322.12,200.422l-5.438-10.486H195.319l-5.438,10.486c-1.425,2.749,0.569,6.03,3.665,6.03h124.909
		C321.551,206.452,323.546,203.17,322.12,200.422z"/>
	<path style="fill:#FF8087;" d="M487.226,189.936h-96.501c1.601,4.043,2.339,8.245,2.31,12.393
		c-0.016,2.316,2.041,4.123,4.357,4.123h89.834c4.561,0,8.258-3.698,8.258-8.258C495.484,193.633,491.787,189.936,487.226,189.936z"
		/>
</g>
<g>
</g>
<g>
</g>
<g>
</g>
<g>
</g>
<g>
</g>
<g>
</g>
<g>
</g>
<g>
</g>
<g>
</g>
<g>
</g>
<g>
</g>
<g>
</g>
<g>
</g>
<g>
</g>
<g>
</g>
</svg>
