<?xml version="1.0" encoding="iso-8859-1"?>
<!-- Generator: Adobe Illustrator 19.0.0, SVG Export Plug-In . SVG Version: 6.00 Build 0)  -->
<svg version="1.1" id="Capa_1" xmlns="http://www.w3.org/2000/svg" xmlns:xlink="http://www.w3.org/1999/xlink" x="0px" y="0px"
	 viewBox="0 0 511.999 511.999" style="enable-background:new 0 0 511.999 511.999;" xml:space="preserve">
<path style="fill:#F25A78;" d="M459.571,137.279c20.319-20.319,26.313-26.313,27.835-27.835c-0.013,0.013,0.094-0.094,0.455-0.455
	c7.81-7.81,7.81-20.47,0-28.28l-25.88-25.879c-7.81-7.81-20.47-7.81-28.28,0l-28.29,28.29c-7.81,7.81-7.81,20.47,0,28.28
	l25.879,25.879C439.101,145.089,451.761,145.089,459.571,137.279z"/>
<path style="fill:#48BD80;" d="M381.791,243.348c11.72-11.72,11.72-30.72,0-42.43l-30.981-30.981
	c-11.744-11.744-30.733-11.697-42.43,0c-11.71,11.71-11.71,30.71,0,42.42c14.424,14.424,27.838,27.838,30.991,30.991
	C351.095,255.072,370.101,255.038,381.791,243.348z"/>
<path style="fill:#F25A78;" d="M304.012,292.837c9.891-9.891,18.389-18.389,28.28-28.28c7.81-7.81,7.81-20.48,0-28.29
	l-24.667-24.666c-7.81-7.81-20.48-7.81-28.29,0l-28.28,28.28c-7.81,7.81-7.81,20.47,0,28.28l24.677,24.676
	C283.542,300.647,296.202,300.647,304.012,292.837z"/>
<g>
	<path style="fill:#FEE377;" d="M371.947,182.723c29.111,12.26,63.952,6.506,87.623-17.165c-0.575-0.575-1.184-1.184-1.81-1.809
		c-2.013-2.013-4.275-4.275-6.756-6.757c-1.437-1.437-2.949-2.949-4.52-4.52c-4.709-4.709-9.975-9.976-15.568-15.569
		c-1.41-1.41-2.839-2.839-4.286-4.286c-12.068-12.068-25.301-25.301-37.523-37.523C365.408,118.788,359.701,153.638,371.947,182.723
		z"/>
	<path style="fill:#FEE377;" d="M216.382,338.285c29.088,12.24,63.939,6.533,87.63-17.158l-70.472-70.472
		C209.849,274.345,204.142,309.197,216.382,338.285z"/>
</g>
<path style="fill:#F25A78;" d="M154.303,357.698c7.809,7.809,7.816,20.464,0,28.28L44.145,496.136c-7.81,7.81-20.47,7.81-28.28,0
	c-7.81-7.81-7.81-20.47,0-28.28l110.159-110.159C133.834,349.888,146.494,349.888,154.303,357.698z"/>
<path d="M410.081,59.499c-3.91,3.9-3.91,10.23,0,14.14c3.9,3.9,10.23,3.9,14.14,0c3.9-3.91,3.9-10.24,0-14.14
	C420.311,55.59,413.981,55.59,410.081,59.499z"/>
<path d="M268.652,229.199c3.91-3.9,3.91-10.23,0-14.14c-3.9-3.9-10.23-3.9-14.14,0c-3.9,3.91-3.9,10.24,0,14.14
	C258.422,233.108,264.752,233.108,268.652,229.199z"/>
<path d="M509.07,2.928c-3.907-3.905-10.237-3.903-14.143,0.002l-35.352,35.361l-21.214-21.222
	c-11.697-11.694-30.728-11.695-42.423,0l-28.29,28.291c-2.478,2.478-4.425,5.287-5.852,8.284l-8.284-8.285
	c-3.905-3.903-10.234-3.905-14.142-0.001c-19.397,19.391-28.889,46.143-25.775,73.854c-15.418-11.41-37.635-10.458-52.016,3.926
	c-11.384,11.385-14.447,27.978-9.209,42.176c-4.391,1.41-8.521,3.845-12.001,7.324l-28.279,28.28
	c-2.448,2.448-4.419,5.245-5.87,8.278l-8.278-8.278c-3.906-3.904-10.236-3.904-14.143,0c-32.701,32.701-34.914,84.503-6.669,119.808
	L153.1,344.759c-10.915-5.225-24.734-3.547-34.148,5.867L8.795,460.786c-11.725,11.722-11.728,30.695-0.001,42.42
	c11.721,11.723,30.696,11.727,42.422,0.001l110.159-110.158c9.407-9.407,11.102-23.222,5.869-34.149l24.031-24.031
	c35.228,28.25,86.931,26.205,119.81-6.671c3.905-3.905,3.905-10.237,0-14.143l-8.278-8.278c3.033-1.451,5.83-3.422,8.278-5.87
	c9.66-9.66,17.628-17.628,28.28-28.28c3.473-3.473,5.906-7.596,7.317-11.978c14.055,5.196,30.66,2.293,42.183-9.232
	c14.361-14.363,15.358-36.572,3.931-52.012c27.679,3.11,54.436-6.366,73.848-25.777c1.875-1.876,2.929-4.419,2.929-7.071
	c0-2.652-1.054-5.196-2.929-7.071l-8.284-8.284c2.996-1.428,5.805-3.374,8.282-5.851l14.055-14.056
	c0.031-0.03,0.065-0.056,0.096-0.087s0.057-0.065,0.087-0.096l14.053-14.054c11.695-11.696,11.695-30.727,0-42.422l-21.21-21.21
	l35.35-35.359C512.976,13.165,512.975,6.834,509.07,2.928z M147.232,378.906L37.073,489.065c-3.909,3.907-10.228,3.906-14.137,0
	c0-0.001,0-0.001-0.001-0.001c-3.907-3.907-3.909-10.228,0.001-14.137l110.158-110.159c3.907-3.907,10.228-3.909,14.139,0.001
	C151.143,368.677,151.145,374.995,147.232,378.906z M197.944,314.056c-24.894-24.893-27.082-64.024-6.567-91.422l97.994,97.995
	C262.245,341.001,223.121,339.235,197.944,314.056z M226.234,215.06l28.28-28.28c3.898-3.898,10.237-3.899,14.139-0.008
	l56.568,56.567c3.899,3.902,3.899,10.247-0.001,14.147l-7.069,7.069l-21.209-21.209c-3.906-3.904-10.236-3.904-14.143,0
	c-3.905,3.905-3.905,10.237,0,14.143l21.209,21.209l-7.069,7.069c-3.907,3.907-10.228,3.909-14.137-0.001l-56.57-56.569
	C222.326,225.29,222.324,218.968,226.234,215.06z M374.72,236.278c-7.807,7.807-20.471,7.808-28.277-0.001l-70.719-70.719
	c-7.797-7.796-7.797-20.481,0-28.278c7.816-7.816,20.465-7.823,28.287,0.001l70.712,70.712
	C382.54,215.804,382.54,228.455,374.72,236.278z M353.513,158.487c-25.173-25.164-26.967-64.276-6.573-91.418l20.711,20.713
	l56.569,56.569l20.712,20.711C417.734,185.493,378.651,183.629,353.513,158.487z M480.787,101.92l-7.072,7.072l-21.214-21.214
	c-3.906-3.904-10.236-3.904-14.143,0c-3.905,3.905-3.905,10.237,0,14.143l21.215,21.215l-7.073,7.073
	c-3.899,3.897-10.241,3.899-14.139,0l-56.569-56.569c-3.897-3.897-3.897-10.24,0-14.138l28.289-28.29
	c3.898-3.896,10.238-3.9,14.138-0.001c1.563,1.563,43.286,43.286,56.57,56.57C484.686,91.678,484.686,98.021,480.787,101.92z"/>
<g>
</g>
<g>
</g>
<g>
</g>
<g>
</g>
<g>
</g>
<g>
</g>
<g>
</g>
<g>
</g>
<g>
</g>
<g>
</g>
<g>
</g>
<g>
</g>
<g>
</g>
<g>
</g>
<g>
</g>
</svg>
