<?xml version="1.0" encoding="iso-8859-1"?>
<!-- Generator: Adobe Illustrator 19.0.0, SVG Export Plug-In . SVG Version: 6.00 Build 0)  -->
<svg xmlns="http://www.w3.org/2000/svg" xmlns:xlink="http://www.w3.org/1999/xlink" version="1.1" id="Layer_1" x="0px" y="0px" viewBox="0 0 512 512" style="enable-background:new 0 0 512 512;" xml:space="preserve" width="512" height="512">
<g id="tomato">
	<g id="fill_35_">
		<path style="fill:#F46262;" d="M343.375,79.661c-32.207,0-62.204,12.282-87.375,33.428    c-25.172-21.146-55.168-33.428-87.376-33.428C79.638,79.661,7.5,173.368,7.5,288.962s72.138,209.301,161.124,209.301    c21.855,0,42.692-5.655,61.694-15.898c16.08-8.667,35.283-8.667,51.363,0c19.002,10.243,39.839,15.898,61.694,15.898    c88.987,0,161.125-93.707,161.125-209.301S432.362,79.661,343.375,79.661z"/>
		<path style="fill:#D65B5B;" d="M168.624,498.263c21.855,0,42.692-5.655,61.694-15.898c7.392-3.984,15.445-6.114,23.55-6.435    c-77.31-63.786-71.144-190.419-54.441-239.858c25.425-75.257,112.513-55.759,112.513-55.759l1.793-97.115    c-20.951,5.063-40.476,15.392-57.734,29.89c-25.172-21.146-55.168-33.428-87.376-33.428C79.638,79.661,7.5,173.368,7.5,288.962    S79.638,498.263,168.624,498.263z"/>
		<path style="fill:#92DD7A;" d="M313.644,45.832L256,70.253l-57.644-24.421c-19.603-8.305-38.39,13.309-27.437,31.565    l10.167,16.945c4.507,7.511,5.56,16.599,2.89,24.942l-11.614,36.294c-5.362,16.757,11.651,31.952,27.698,24.737l43.456-19.539    c7.94-3.57,17.029-3.57,24.969,0l43.456,19.539c16.047,7.215,33.06-7.979,27.698-24.737l-11.614-36.293    c-2.67-8.343-1.617-17.431,2.89-24.942l10.167-16.944C352.034,59.141,333.247,37.528,313.644,45.832z"/>
		<path style="fill:#7EC66A;" d="M198.356,45.832c-19.603-8.304-38.39,13.309-27.437,31.565l10.167,16.945    c4.507,7.511,5.559,16.599,2.89,24.942l-11.614,36.294c-5.362,16.758,11.651,31.952,27.698,24.737l43.456-19.539    c7.94-3.57,17.029-3.57,24.969,0l1.313,0.59c12.493-27.554,9.308-53.769,9.308-53.769l-8.925-43.351L256,70.253L198.356,45.832z"/>
		<path style="fill:#B1EF97;" d="M256,130.702L256,130.702c-12.708,0-23.105-10.397-23.105-23.105V36.842    c0-12.708,10.398-23.105,23.105-23.105l0,0c12.708,0,23.105,10.397,23.105,23.105v70.755    C279.105,120.304,268.708,130.702,256,130.702z"/>
		<path style="fill:#57565C;" d="M255.999,337.583L255.999,337.583c-15.52,0-28.1-12.581-28.1-28.1v-20.43    c0-4.237,3.434-7.671,7.671-7.671h40.859c4.237,0,7.671,3.434,7.671,7.671v20.43C284.099,325.002,271.52,337.583,255.999,337.583z    "/>
		<ellipse style="fill:#FFA6BB;" cx="162.004" cy="309.482" rx="29.973" ry="23.869"/>
		<ellipse style="fill:#FFA6BB;" cx="349.996" cy="309.482" rx="29.973" ry="23.869"/>
	</g>
	<g id="stroke_37_">
		<path d="M480.333,162.357c-2.023-3.613-6.59-4.905-10.208-2.882c-3.614,2.023-4.904,6.593-2.882,10.208    C486.71,204.467,497,245.714,497,288.962c0,111.273-68.915,201.801-153.624,201.801c-20.11,0-39.671-5.047-58.136-14.999    c-18.309-9.87-40.172-9.869-58.48-0.001c-18.465,9.953-38.025,15-58.136,15C83.915,490.763,15,400.236,15,288.962    C15,177.947,83.598,87.588,168.037,87.17l6.618,11.03c3.395,5.659,4.189,12.51,2.177,18.797l-11.614,36.293    c-3.396,10.613-0.343,21.816,7.969,29.238c8.311,7.423,19.788,9.196,29.948,4.626l43.456-19.54    c5.98-2.688,12.838-2.688,18.818,0.001l43.456,19.539c3.736,1.68,7.648,2.502,11.518,2.502c6.653,0,13.176-2.434,18.431-7.128    c8.311-7.422,11.364-18.625,7.969-29.238l-11.614-36.293c-2.013-6.287-1.219-13.138,2.177-18.798l6.619-11.03    c40.412,0.199,78.516,20.881,107.351,58.304c1.477,1.917,5.506,5.001,10.52,1.362c3.351-2.432,3.891-7.237,1.362-10.518    C433.13,97.299,393.568,74.822,351.09,72.391c2.031-8.933-0.243-18.334-6.608-25.657c-8.533-9.816-21.786-12.881-33.763-7.809    l-24.113,10.216V36.842c0-16.876-13.729-30.605-30.605-30.605s-30.605,13.729-30.605,30.605v12.298l-24.113-10.215    c-11.978-5.073-25.23-2.007-33.763,7.809c-6.365,7.323-8.639,16.724-6.608,25.657c-42.508,2.433-82.089,24.934-112.161,63.997    C17.313,177.224,0,231.41,0,288.962S17.313,400.7,48.749,441.536c31.885,41.418,74.457,64.228,119.875,64.228    c22.622,0,44.576-5.65,65.253-16.796c13.854-7.467,30.393-7.467,44.246,0c20.677,11.146,42.631,16.796,65.253,16.796    c45.418,0,87.99-22.81,119.875-64.228C494.688,400.7,512,346.515,512,288.962C512,243.155,501.05,199.376,480.333,162.357z     M178.839,56.575c3.338-3.84,9.45-6.864,16.591-3.837l29.965,12.694v7.795c0,4.143,3.357,7.5,7.5,7.5c4.143,0,7.5-3.357,7.5-7.5    V36.842c0-8.604,7.001-15.606,15.605-15.606c8.604,0,15.605,7.001,15.605,15.606v70.754c0,8.604-7.001,15.605-15.605,15.605    c-8.605,0-15.605-7.001-15.605-15.605c0,0,1.819-11.054-7.5-10.946c-9.319,0.107-7.5,10.946-7.5,10.946    c0,16.876,13.729,30.605,30.605,30.605s30.605-13.729,30.605-30.605V65.433l29.965-12.695c7.145-3.027,13.254-0.001,16.591,3.837    c3.336,3.839,5.479,10.312,1.489,16.964l-10.167,16.943c-5.616,9.36-6.93,20.69-3.603,31.088l11.614,36.293    c1.59,4.966,0.217,10.005-3.673,13.479c-3.889,3.473-9.05,4.271-13.807,2.132l-43.456-19.539c-9.887-4.445-21.23-4.445-31.119,0    l-43.456,19.539c-4.758,2.139-9.917,1.342-13.807-2.132c-3.89-3.474-5.263-8.513-3.673-13.479l11.614-36.293    c3.327-10.397,2.014-21.728-3.602-31.087l-10.166-16.944C173.359,66.886,175.503,60.414,178.839,56.575z"/>
		<path d="M256,345.082c-19.63,0-35.601-15.97-35.601-35.6v-20.43c0-8.365,6.806-15.171,15.171-15.171h40.859    c8.365,0,15.171,6.806,15.171,15.171v20.43C291.6,329.113,275.629,345.082,256,345.082z M235.57,288.882    c-0.094,0-0.171,20.601-0.171,20.601c0,11.358,9.241,20.6,20.601,20.6c11.358,0,20.6-9.241,20.601-20.6v-20.43    C276.601,288.958,235.57,288.882,235.57,288.882z"/>
		<path d="M336.657,296.38c-4.143,0-7.5-3.358-7.5-7.5v-12.451c0-4.142,3.357-7.5,7.5-7.5s7.5,3.358,7.5,7.5v12.451    C344.157,293.022,340.799,296.38,336.657,296.38z"/>
		<path d="M175.343,296.38c-4.143,0-7.5-3.358-7.5-7.5v-12.451c0-4.142,3.357-7.5,7.5-7.5c4.143,0,7.5,3.358,7.5,7.5v12.451    C182.843,293.022,179.486,296.38,175.343,296.38z"/>
	</g>
</g>















</svg>
