<?xml version="1.0" encoding="iso-8859-1"?>
<!-- Generator: Adobe Illustrator 19.0.0, SVG Export Plug-In . SVG Version: 6.00 Build 0)  -->
<svg version="1.1" id="Capa_1" xmlns="http://www.w3.org/2000/svg" xmlns:xlink="http://www.w3.org/1999/xlink" x="0px" y="0px"
	 viewBox="0 0 512 512" style="enable-background:new 0 0 512 512;" xml:space="preserve">
<path style="fill:#F46262;" d="M346.012,74.339c-33.179,0-64.081,12.653-90.012,34.437c-25.932-21.784-56.833-34.437-90.013-34.437
	C74.315,74.339,0,170.874,0,289.957s74.315,215.618,165.987,215.618c22.515,0,43.98-5.826,63.556-16.378
	c16.565-8.929,36.348-8.929,52.913,0c19.576,10.552,41.041,16.378,63.556,16.378C437.685,505.575,512,409.04,512,289.957
	S437.685,74.339,346.012,74.339z"/>
<path style="fill:#D65B5B;" d="M165.987,505.575c22.515,0,43.98-5.826,63.556-16.378c7.615-4.104,15.911-6.299,24.261-6.629
	c-79.643-65.711-73.291-196.166-56.084-247.097c26.192-77.528,115.909-57.442,115.909-57.442l1.847-100.046
	c-21.583,5.216-41.698,15.857-59.476,30.792c-25.932-21.784-56.833-34.437-90.013-34.437C74.315,74.339,0,170.874,0,289.957
	S74.315,505.575,165.987,505.575z"/>
<path style="fill:#92DD7A;" d="M315.384,39.489L256,64.647l-59.385-25.158c-20.195-8.556-39.549,13.711-28.265,32.518l10.474,17.456
	c4.643,7.738,5.728,17.1,2.977,25.695l-11.965,37.389c-5.524,17.264,12.003,32.916,28.534,25.484l44.768-20.129
	c8.18-3.678,17.543-3.678,25.723,0l44.768,20.128c16.531,7.433,34.058-8.22,28.534-25.484l-11.965-37.389
	c-2.751-8.595-1.666-17.957,2.977-25.695l10.474-17.455C354.932,53.2,335.578,30.934,315.384,39.489z"/>
<path style="fill:#7EC66A;" d="M196.616,39.489c-20.195-8.555-39.549,13.711-28.265,32.518l10.474,17.456
	c4.643,7.738,5.727,17.1,2.977,25.695l-11.965,37.389c-5.524,17.264,12.003,32.916,28.534,25.484l44.768-20.129
	c8.18-3.678,17.543-3.678,25.723,0l1.353,0.608c12.87-28.387,9.589-55.392,9.589-55.392l-9.194-44.659L256,64.647L196.616,39.489z"
	/>
<path style="fill:#B1EF97;" d="M256,126.92L256,126.92c-13.092,0-23.802-10.711-23.802-23.802v-72.89
	c0-13.092,10.712-23.802,23.802-23.802l0,0c13.092,0,23.802,10.711,23.802,23.802v72.89C279.802,116.209,269.092,126.92,256,126.92z
	"/>
<path style="fill:#57565C;" d="M256,340.045L256,340.045c-15.988,0-28.948-12.961-28.948-28.948v-21.047
	c0-4.365,3.538-7.902,7.903-7.902h42.092c4.365,0,7.903,3.538,7.903,7.902v21.047C284.948,327.085,271.988,340.045,256,340.045z"/>
<g>
	<ellipse style="fill:#FFA6BB;" cx="159.163" cy="311.094" rx="30.878" ry="24.589"/>
	<ellipse style="fill:#FFA6BB;" cx="352.837" cy="311.094" rx="30.878" ry="24.589"/>
</g>
<g>
	<path style="fill:#57565C;" d="M339.091,297.599c-4.268,0-7.726-3.459-7.726-7.726v-12.827c0-4.267,3.458-7.726,7.726-7.726
		c4.268,0,7.726,3.459,7.726,7.726v12.827C346.818,294.139,343.358,297.599,339.091,297.599z"/>
	<path style="fill:#57565C;" d="M172.909,297.599c-4.268,0-7.726-3.459-7.726-7.726v-12.827c0-4.267,3.458-7.726,7.726-7.726
		c4.268,0,7.726,3.459,7.726,7.726v12.827C180.635,294.139,177.177,297.599,172.909,297.599z"/>
</g>
<g>
</g>
<g>
</g>
<g>
</g>
<g>
</g>
<g>
</g>
<g>
</g>
<g>
</g>
<g>
</g>
<g>
</g>
<g>
</g>
<g>
</g>
<g>
</g>
<g>
</g>
<g>
</g>
<g>
</g>
</svg>
