<?xml version="1.0" encoding="iso-8859-1"?>
<!-- Generator: Adobe Illustrator 19.0.0, SVG Export Plug-In . SVG Version: 6.00 Build 0)  -->
<svg version="1.1" id="Layer_1" xmlns="http://www.w3.org/2000/svg" xmlns:xlink="http://www.w3.org/1999/xlink" x="0px" y="0px"
	 viewBox="0 0 512 512" style="enable-background:new 0 0 512 512;" xml:space="preserve">
<path style="fill:#FFDCA0;" d="M485.517,335.448H26.483c-4.875,0-8.828-3.953-8.828-8.828v-17.655c0-4.875,3.953-8.828,8.828-8.828
	h459.034c4.875,0,8.828,3.953,8.828,8.828v17.655C494.345,331.496,490.392,335.448,485.517,335.448z"/>
<g>
	<rect x="247.172" y="300.138" style="fill:#EBCC98;" width="17.655" height="35.31"/>
	<rect x="176.552" y="300.138" style="fill:#EBCC98;" width="17.655" height="35.31"/>
	<rect x="35.31" y="300.138" style="fill:#EBCC98;" width="17.655" height="35.31"/>
	<rect x="388.414" y="300.138" style="fill:#EBCC98;" width="17.655" height="35.31"/>
	<rect x="459.034" y="300.138" style="fill:#EBCC98;" width="17.655" height="35.31"/>
	<rect x="105.931" y="300.138" style="fill:#EBCC98;" width="17.655" height="35.31"/>
	<rect x="317.793" y="300.138" style="fill:#EBCC98;" width="17.655" height="35.31"/>
</g>
<path style="fill:#FFDCA0;" d="M467.862,406.069H44.138c-4.875,0-8.828-3.953-8.828-8.828v-17.655c0-4.875,3.953-8.828,8.828-8.828
	h423.724c4.875,0,8.828,3.953,8.828,8.828v17.655C476.69,402.116,472.737,406.069,467.862,406.069z"/>
<g>
	<rect x="247.172" y="370.759" style="fill:#EBCC98;" width="17.655" height="35.31"/>
	<rect x="176.552" y="370.759" style="fill:#EBCC98;" width="17.655" height="35.31"/>
	<path style="fill:#EBCC98;" d="M52.966,406.069H36.414c-0.609,0-1.103-0.494-1.103-1.103v-33.103c0-0.609,0.494-1.103,1.103-1.103
		h16.552V406.069z"/>
	<rect x="388.414" y="370.759" style="fill:#EBCC98;" width="17.655" height="35.31"/>
	<path style="fill:#EBCC98;" d="M475.586,406.069h-16.552v-35.31h16.552c0.609,0,1.103,0.494,1.103,1.103v33.103
		C476.69,405.575,476.195,406.069,475.586,406.069z"/>
	<rect x="105.931" y="370.759" style="fill:#EBCC98;" width="17.655" height="35.31"/>
	<rect x="317.793" y="370.759" style="fill:#EBCC98;" width="17.655" height="35.31"/>
</g>
<path style="fill:#FFDCA0;" d="M450.207,476.69H61.793c-4.875,0-8.828-3.953-8.828-8.828v-17.655c0-4.875,3.953-8.828,8.828-8.828
	h388.414c4.875,0,8.828,3.953,8.828,8.828v17.655C459.034,472.737,455.082,476.69,450.207,476.69z"/>
<g>
	<rect x="247.172" y="441.379" style="fill:#EBCC98;" width="17.655" height="35.31"/>
	<rect x="176.552" y="441.379" style="fill:#EBCC98;" width="17.655" height="35.31"/>
	<rect x="388.414" y="441.379" style="fill:#EBCC98;" width="17.655" height="35.31"/>
	<rect x="105.931" y="441.379" style="fill:#EBCC98;" width="17.655" height="35.31"/>
	<rect x="317.793" y="441.379" style="fill:#EBCC98;" width="17.655" height="35.31"/>
	<path style="fill:#EBCC98;" d="M494.345,300.138H17.655c-4.875,0-8.828-3.953-8.828-8.828v-17.655c0-4.875,3.953-8.828,8.828-8.828
		h476.69c4.875,0,8.828,3.953,8.828,8.828v17.655C503.172,296.185,499.22,300.138,494.345,300.138z"/>
</g>
<g>
	<rect x="282.483" y="264.828" style="fill:#E1BE8C;" width="17.655" height="35.31"/>
	<rect x="211.862" y="264.828" style="fill:#E1BE8C;" width="17.655" height="35.31"/>
	<rect x="70.621" y="264.828" style="fill:#E1BE8C;" width="17.655" height="35.31"/>
	<rect x="423.724" y="264.828" style="fill:#E1BE8C;" width="17.655" height="35.31"/>
	<rect x="141.241" y="264.828" style="fill:#E1BE8C;" width="17.655" height="35.31"/>
	<rect x="353.103" y="264.828" style="fill:#E1BE8C;" width="17.655" height="35.31"/>
</g>
<path style="fill:#EBCC98;" d="M476.69,370.759H35.31c-4.875,0-8.828-3.953-8.828-8.828v-17.655c0-4.875,3.953-8.828,8.828-8.828
	H476.69c4.875,0,8.828,3.953,8.828,8.828v17.655C485.517,366.806,481.565,370.759,476.69,370.759z"/>
<g>
	<rect x="282.483" y="335.448" style="fill:#E1BE8C;" width="17.655" height="35.31"/>
	<rect x="211.862" y="335.448" style="fill:#E1BE8C;" width="17.655" height="35.31"/>
	<rect x="70.621" y="335.448" style="fill:#E1BE8C;" width="17.655" height="35.31"/>
	<rect x="423.724" y="335.448" style="fill:#E1BE8C;" width="17.655" height="35.31"/>
	<rect x="141.241" y="335.448" style="fill:#E1BE8C;" width="17.655" height="35.31"/>
	<rect x="353.103" y="335.448" style="fill:#E1BE8C;" width="17.655" height="35.31"/>
</g>
<path style="fill:#EBCC98;" d="M459.034,441.379H52.966c-4.875,0-8.828-3.953-8.828-8.828v-17.655c0-4.875,3.953-8.828,8.828-8.828
	h406.069c4.875,0,8.828,3.953,8.828,8.828v17.655C467.862,437.427,463.91,441.379,459.034,441.379z"/>
<g>
	<rect x="282.483" y="406.069" style="fill:#E1BE8C;" width="17.655" height="35.31"/>
	<rect x="211.862" y="406.069" style="fill:#E1BE8C;" width="17.655" height="35.31"/>
	<rect x="70.621" y="406.069" style="fill:#E1BE8C;" width="17.655" height="35.31"/>
	<rect x="423.724" y="406.069" style="fill:#E1BE8C;" width="17.655" height="35.31"/>
	<rect x="141.241" y="406.069" style="fill:#E1BE8C;" width="17.655" height="35.31"/>
	<rect x="353.103" y="406.069" style="fill:#E1BE8C;" width="17.655" height="35.31"/>
</g>
<path style="fill:#FFF3D9;" d="M8.828,273.655h494.345c4.875,0,8.828-3.953,8.828-8.828v-35.31c0-4.875-3.953-8.828-8.828-8.828
	H8.828c-4.875,0-8.828,3.953-8.828,8.828v35.31C0,269.703,3.953,273.655,8.828,273.655z"/>
<path style="fill:#EBCC98;" d="M264.828,256h-17.655c-4.875,0-8.828-3.953-8.828-8.828V44.138c0-4.875,3.953-8.828,8.828-8.828
	h17.655c4.875,0,8.828,3.953,8.828,8.828v203.034C273.655,252.047,269.703,256,264.828,256z"/>
<g>
</g>
<g>
</g>
<g>
</g>
<g>
</g>
<g>
</g>
<g>
</g>
<g>
</g>
<g>
</g>
<g>
</g>
<g>
</g>
<g>
</g>
<g>
</g>
<g>
</g>
<g>
</g>
<g>
</g>
</svg>
