<?xml version="1.0" encoding="iso-8859-1"?>
<!-- Generator: Adobe Illustrator 19.0.0, SVG Export Plug-In . SVG Version: 6.00 Build 0)  -->
<svg version="1.1" id="Layer_1" xmlns="http://www.w3.org/2000/svg" xmlns:xlink="http://www.w3.org/1999/xlink" x="0px" y="0px"
	 viewBox="0 0 512 512" style="enable-background:new 0 0 512 512;" xml:space="preserve">
<path style="fill:#ACB3BA;" d="M330.664,36.267c39.467,0,72.533,28.8,80,66.133c1.067,8.533,9.6,14.933,18.133,14.933l0,0
	c11.733,0,19.2-10.667,17.067-21.333c-10.667-54.4-58.667-96-115.2-96h-32c-64,0-117.333,52.267-117.333,116.267
	c0,8.533,5.333,16,12.8,19.2c11.733,3.2,23.467-6.4,23.467-17.067c0-44.8,36.808-81.608,82.15-81.65L330.664,36.267L330.664,36.267z
	"/>
<polygon style="fill:#FFD15C;" points="327.464,161.067 325.33,147.2 323.197,161.067 309.33,163.2 323.197,165.333 325.33,180.267 
	327.464,165.333 341.33,163.2 "/>
<path style="fill:#F2F2F2;" d="M386.13,141.867c-12.8-2.133-22.4-11.733-24.533-24.533v-1.067v1.067
	c-2.133,12.8-11.733,22.4-24.533,24.533l0,0c12.8,2.133,22.4,11.733,24.533,24.533v1.067V166.4
	C363.729,154.667,373.33,145.067,386.13,141.867h1.067H386.13z"/>
<path style="fill:#CDD6E0;" d="M402.13,178.133c-7.467-1.067-12.8-7.467-13.867-13.867l0,0v1.067
	c-1.067,7.467-7.467,12.8-13.867,13.867l0,0c7.467,1.067,12.8,7.467,13.867,13.867l0,0l0,0
	C388.263,185.6,394.664,180.267,402.13,178.133L402.13,178.133L402.13,178.133z"/>
<polygon style="fill:#FFD15C;" points="489.596,71.467 455.464,81.067 471.464,49.067 444.797,72.533 444.797,37.333 431.997,70.4 
	415.997,38.4 418.13,73.6 391.464,51.2 408.529,82.133 373.33,74.667 403.197,94.933 367.997,102.4 403.197,107.733 
	375.464,130.133 409.596,120.533 393.596,152.533 420.263,128 420.263,164.267 433.063,131.2 449.063,163.2 446.93,128 
	474.664,149.333 456.529,118.4 491.729,126.933 461.864,106.667 497.063,99.2 461.864,92.8 "/>
<polygon style="fill:#F8B64C;" points="419.197,90.667 398.93,85.333 415.997,97.067 395.729,101.333 415.997,104.533 
	399.997,117.333 419.197,112 410.664,130.133 425.596,116.267 425.596,136.533 433.063,117.333 441.596,136.533 440.529,116.267 
	456.529,129.067 445.864,110.933 466.13,115.2 449.063,103.467 469.33,99.2 449.063,96 465.063,83.2 445.864,89.6 454.396,71.467 
	439.464,85.333 439.464,65.067 431.997,83.2 423.464,65.067 424.529,85.333 408.529,72.533 "/>
<g>
	<rect x="145.067" y="117.33" style="fill:#40596B;" width="109.87" height="45.867"/>
	<circle style="fill:#40596B;" cx="199.467" cy="327.47" r="184.53"/>
</g>
<path style="fill:#334A5E;" d="M69.33,339.2c-6.4,0-11.733-5.333-11.733-11.733c0-77.867,64-141.867,141.867-141.867
	c6.4,0,11.733,5.333,11.733,11.733s-5.333,11.733-11.733,11.733C134.396,209.067,82.13,262.4,82.13,326.4
	C82.13,333.867,76.797,339.2,69.33,339.2z"/>
<g>
</g>
<g>
</g>
<g>
</g>
<g>
</g>
<g>
</g>
<g>
</g>
<g>
</g>
<g>
</g>
<g>
</g>
<g>
</g>
<g>
</g>
<g>
</g>
<g>
</g>
<g>
</g>
<g>
</g>
</svg>
