<?xml version="1.0" encoding="iso-8859-1"?>
<!-- Generator: Adobe Illustrator 19.0.0, SVG Export Plug-In . SVG Version: 6.00 Build 0)  -->
<svg version="1.1" id="Capa_1" xmlns="http://www.w3.org/2000/svg" xmlns:xlink="http://www.w3.org/1999/xlink" x="0px" y="0px"
	 viewBox="0 0 512 512" style="enable-background:new 0 0 512 512;" xml:space="preserve">
<path style="fill:#2D69AD;" d="M107.42,458.302c0-9.149-2.281-17.944-6.558-25.752L503.626,29.787c5.914-5.913,5.914-15.5,0-21.414
	c-5.913-5.914-15.501-5.914-21.414,0L70.27,420.314c-5.914,5.913-5.914,15.5,0,21.414c9.139,9.139,9.139,24.008,0,33.147
	c-9.138,9.138-24.009,9.14-33.147,0c-9.139-9.139-9.139-24.008,0-33.147c5.912-5.914,5.912-15.501,0-21.414
	c-5.914-5.913-15.5-5.914-21.414,0c-20.946,20.947-20.946,55.029,0,75.976C26.183,506.763,39.94,512,53.697,512
	s27.514-5.236,37.988-15.709C101.832,486.143,107.42,472.652,107.42,458.302z"/>
<path style="fill:#FFDA68;" d="M512,97.502c0-4.016-1.596-7.867-4.436-10.707l-82.36-82.36C422.365,1.596,418.513,0,414.498,0
	c-4.017,0-7.867,1.596-10.706,4.436l-36.958,36.959c-5.913,5.914-5.913,15.5,0,21.414l82.359,82.359
	c2.957,2.958,6.831,4.436,10.706,4.436c3.874,0,7.751-1.479,10.706-4.436l36.959-36.958C510.404,105.369,512,101.519,512,97.502z"/>
<path style="fill:#A55A3D;" d="M418.13,163.01l-69.141-69.141c-14.056-14.057-36.928-14.057-50.984,0l-21.635,21.635
	c-14.056,14.056-14.056,36.928,0,50.984l69.141,69.141c7.028,7.028,16.26,10.542,25.491,10.542c9.232,0,18.464-3.514,25.491-10.542
	l21.635-21.635C432.187,199.938,432.187,177.066,418.13,163.01z"/>
<path style="fill:#B7F07D;" d="M330.079,305.656c-3.875,0-7.751-1.478-10.706-4.436L210.778,192.627
	c-5.913-5.914-5.913-15.501,0-21.414c5.913-5.913,15.501-5.913,21.414,0l108.593,108.593c5.914,5.914,5.914,15.501,0,21.414
	C337.829,304.178,333.955,305.656,330.079,305.656z"/>
<path style="fill:#1B3359;" d="M116.042,395.957L70.27,441.728c9.139,9.139,9.139,24.008,0,33.147
	c-9.138,9.138-24.009,9.14-33.147,0l0,0L15.709,496.29l0,0c10.473,10.472,24.23,15.709,37.988,15.709s27.514-5.236,37.988-15.709
	c10.147-10.146,15.735-23.638,15.735-37.988c0-9.149-2.281-17.944-6.558-25.752L503.626,29.787c5.914-5.913,5.914-15.5,0-21.414
	l-366.17,366.17L116.042,395.957z"/>
<path style="fill:#7FDC48;" d="M181.046,454.689c-3.875,0-7.751-1.478-10.706-4.436L61.745,341.66
	c-5.914-5.914-5.914-15.501,0-21.414c5.913-5.914,15.5-5.914,21.414,0l108.593,108.593c5.914,5.914,5.914,15.5,0,21.414
	C188.797,453.211,184.922,454.689,181.046,454.689z"/>
<path style="fill:#46A655;" d="M191.753,428.84l-54.308-54.308l-21.414,21.414l54.308,54.308c2.957,2.957,6.832,4.436,10.707,4.436
	c3.874,0,7.751-1.478,10.706-4.436C197.666,444.341,197.666,434.753,191.753,428.84z"/>
<path style="fill:#A55A3D;" d="M278.188,327.818c-6.647-18.821-19.989-38.865-37.566-56.442S203,240.458,184.181,233.811
	c-22.537-7.96-41.56-5.733-53.566,6.273c-12.006,12.006-14.233,31.028-6.272,53.566c6.647,18.821,19.989,38.865,37.566,56.442
	s37.621,30.917,56.442,37.566c8.877,3.135,17.206,4.69,24.777,4.69c11.653,0,21.512-3.686,28.789-10.962
	C283.922,369.379,286.149,350.356,278.188,327.818z"/>
<path style="fill:#A2400E;" d="M278.188,327.818c-6.647-18.821-19.989-38.865-37.566-56.442l0,0l-78.714,78.714
	c17.577,17.577,37.621,30.917,56.442,37.566c8.877,3.135,17.206,4.69,24.777,4.69c11.653,0,21.512-3.686,28.789-10.962
	C283.922,369.379,286.149,350.356,278.188,327.818z"/>
<path style="fill:#7FDC48;" d="M340.786,279.807l-54.297-54.297l-21.414,21.414l54.297,54.297c2.957,2.957,6.832,4.436,10.706,4.436
	s7.751-1.478,10.706-4.436C346.699,295.308,346.699,285.721,340.786,279.807z"/>
<path style="fill:#A2400E;" d="M418.13,163.01l-34.57-34.571l-72.619,72.619l34.57,34.571c7.028,7.028,16.26,10.542,25.491,10.542
	c9.232,0,18.464-3.514,25.491-10.542l21.635-21.635C432.187,199.938,432.187,177.066,418.13,163.01z"/>
<path style="fill:#FFA918;" d="M507.564,86.796l-41.18-41.18l-58.372,58.372l41.18,41.18c2.957,2.958,6.831,4.436,10.706,4.436
	c3.874,0,7.751-1.479,10.706-4.436l36.959-36.958c2.84-2.84,4.436-6.691,4.436-10.707C512,93.487,510.404,89.635,507.564,86.796z"/>
<g>
</g>
<g>
</g>
<g>
</g>
<g>
</g>
<g>
</g>
<g>
</g>
<g>
</g>
<g>
</g>
<g>
</g>
<g>
</g>
<g>
</g>
<g>
</g>
<g>
</g>
<g>
</g>
<g>
</g>
</svg>
