<?xml version="1.0" encoding="iso-8859-1"?>
<!-- Generator: Adobe Illustrator 19.0.0, SVG Export Plug-In . SVG Version: 6.00 Build 0)  -->
<svg version="1.1" id="Capa_1" xmlns="http://www.w3.org/2000/svg" xmlns:xlink="http://www.w3.org/1999/xlink" x="0px" y="0px"
	 viewBox="0 0 512 512" style="enable-background:new 0 0 512 512;" xml:space="preserve">
<path style="fill:#303C42;" d="M501.334,64.003c-29.415,0-53.332-23.928-53.332-53.336c0-5.896-4.77-10.667-10.665-10.667
	c-5.896,0-10.667,4.771-10.667,10.667c0,29.408-23.917,53.336-53.332,53.336c-5.896,0-10.667,4.771-10.667,10.667
	s4.771,10.667,10.667,10.667c7.447,0,14.529,1.555,20.971,4.323c-8.195,4.245-16.577,9.346-25.102,17.108
	c-11.083,0.355-40.141,2.109-63.906,10.477c-0.091-0.092-0.16-0.189-0.253-0.281c-13.167-13.167-28.292-23.042-42.583-27.813
	c-16.79-5.595-31.02-3.71-39.999,5.313L8.473,308.47c-9.021,9.012-10.917,23.22-5.313,40.013
	c3.845,11.512,11.121,23.52,20.651,34.661l-7.839,7.84c-9.021,9.01-10.917,23.22-5.312,40.012
	c4.771,14.283,14.646,29.408,27.811,42.576C58.451,493.551,80.887,504.5,98.72,504.5c8.896,0,16.625-2.73,22.333-8.428l8.004-8.005
	c17.801,15.247,36.68,23.934,52.16,23.934c8.875,0,16.625-2.729,22.333-8.428l213.993-214.018c9.021-9.01,10.917-23.22,5.313-40.012
	c-4.771-14.283-14.646-29.408-27.811-42.576c-2.435-2.435-4.992-4.629-7.543-6.827c-1.392-7.319-3.895-14.913-6.374-22.414
	c-7.979-24.094-12.313-40.783-0.25-52.845c9.438-9.439,19.061-14.251,29.228-19.335c1.092-0.547,2.206-1.134,3.305-1.689
	c8.148,9.368,13.258,21.453,13.258,34.815c0,5.896,4.771,10.667,10.667,10.667c5.896,0,10.665-4.771,10.665-10.667
	c0-29.408,23.917-53.336,53.332-53.336c5.896,0,10.667-4.771,10.667-10.667S507.23,64.003,501.334,64.003z M319.986,134.999
	c8.625-2.331,18.214-4,27.478-5.137c-6.733,8.001-12.454,15.497-17.382,22.559C327.56,146.679,324.056,140.836,319.986,134.999z
	 M352.459,179.146c-4.508-1.501-8.784-2.37-12.868-2.799c4.348-6.479,8.767-12.895,13.667-19.513
	c1.539,8.824,4.284,17.46,6.944,25.534C357.61,181.199,355.012,179.999,352.459,179.146z"/>
<path style="fill:#FFCA28;" d="M437.334,100.24c-1.576-2.609-3.732-4.766-5.603-7.158c4.345-3.046,8.719-6.448,13.145-10.874
	c4.167-4.167,4.167-10.917,0-15.083c-4.167-4.167-10.917-4.167-15.083,0c-4.527,4.527-9.103,7.954-13.757,10.893
	c-1.486-1.049-2.721-2.411-4.285-3.352c10.479-6.302,19.271-15.115,25.583-25.573c6.313,10.458,15.104,19.271,25.583,25.573
	C452.438,80.969,443.646,89.781,437.334,100.24z"/>
<g>
	<path style="fill:#D32F2F;" d="M301.792,267.115c-11.063-3.688-23.542-11.948-34.25-22.656
		c-10.708-10.719-18.979-23.198-22.667-34.24c-2.771-8.333-2.708-15.302,0.167-18.177c1.458-1.469,3.979-2.198,7.208-2.198
		c3.104,0,6.875,0.677,10.958,2.042c8.328,2.776,17.458,8.151,26.031,15.203c-2.996,3.271-5.891,6.491-9.448,10.047
		c-4.167,4.167-4.167,10.917,0,15.083c2.083,2.083,4.813,3.125,7.542,3.125c2.729,0,5.458-1.042,7.542-3.125
		c3.553-3.555,6.427-6.779,9.466-10.083c7.32,8.764,12.938,18.124,15.784,26.646c2.771,8.333,2.708,15.302-0.167,18.177
		C317.084,269.823,310.105,269.886,301.792,267.115z"/>
	<path style="fill:#D32F2F;" d="M255.709,109.386c9.382,3.128,19.723,9.665,29.197,18.074c-1.846,1.359-3.569,2.798-5.113,4.342
		c-4.167,4.167-4.167,10.917,0,15.083c4.167,4.167,10.917,4.167,15.083,0c1.315-1.314,2.936-2.542,4.768-3.703
		c9.598,12.448,14.285,24.099,14.887,32.121c-2.521,3.659-5.234,7.389-8.061,11.164c-3.232,0.203-7.263-0.408-11.836-1.893
		c-7.1-4.949-14.331-8.859-21.461-11.591c-4.978-3.634-9.357-7.241-13.13-11.025c-10.709-10.719-18.979-23.198-22.667-34.24
		c-2.771-8.333-2.708-15.302,0.167-18.177C240.396,106.646,247.375,106.594,255.709,109.386z"/>
	<path style="fill:#D32F2F;" d="M23.375,341.719c-2.771-8.333-2.708-15.302,0.167-18.177l192.75-192.75
		c0.34,1.247,0.427,2.398,0.854,3.677c4.065,12.169,11.997,24.879,22.353,36.533c-3.557,1.411-6.845,3.255-9.54,5.957
		L38.875,368.051C31.687,359.379,26.187,350.137,23.375,341.719z"/>
</g>
<path style="opacity:0.2;fill:#FFFFFF;enable-background:new    ;" d="M30.875,355.292c-2.771-8.333-2.708-15.302,0.167-18.177
	L222.167,145.99c-1.982-3.861-3.75-7.716-5.021-11.521c-0.427-1.279-0.514-2.43-0.854-3.677l-192.75,192.75
	c-2.875,2.875-2.938,9.844-0.167,18.177c1.915,5.733,5.418,11.815,9.51,17.874C32.282,358.169,31.338,356.677,30.875,355.292z"/>
<path style="fill:#D32F2F;" d="M53.542,458.469c-10.708-10.719-18.979-23.198-22.667-34.24c-2.771-8.333-2.708-15.302,0.167-18.177
	l192.75-192.76c0.34,1.247,0.427,2.398,0.854,3.677c4.771,14.281,14.646,29.406,27.813,42.573
	c13.167,13.167,28.292,23.042,42.583,27.813c1.237,0.411,2.388,0.595,3.596,0.926l-192.68,192.689
	C99.917,487.073,76.375,481.313,53.542,458.469z"/>
<path style="opacity:0.1;enable-background:new    ;" d="M295.042,287.354c-4.436-1.48-8.948-3.607-13.461-6.017L93.959,468.969
	c-5.48,5.538-25.368,1.163-46.057-16.723c1.818,2.107,3.638,4.219,5.641,6.223c22.833,22.844,46.375,28.604,52.417,22.5
	l192.68-192.689C297.43,287.949,296.279,287.766,295.042,287.354z"/>
<path style="opacity:0.2;fill:#FFFFFF;enable-background:new    ;" d="M37.709,422.258L230.25,229.706
	c-2.238-4.272-4.202-8.539-5.604-12.737c-0.427-1.279-0.514-2.43-0.854-3.677l-192.75,192.76c-2.875,2.875-2.938,9.844-0.167,18.177
	c1.271,3.805,3.253,7.792,5.523,11.806C34.994,429.729,35.365,424.602,37.709,422.258z"/>
<path style="fill:#D32F2F;" d="M188.459,488.469c-5.363,5.418-24.389,1.464-44.514-15.32l191.098-191.107
	c2.697-2.697,4.543-5.982,5.956-9.535c11.659,10.354,24.368,18.283,36.544,22.348c1.237,0.411,2.388,0.595,3.596,0.926
	L188.459,488.469z"/>
<path style="opacity:0.1;enable-background:new    ;" d="M344.819,289.597c2.633-2.633,4.44-5.839,5.839-9.296
	c-3.273-2.415-6.509-4.996-9.66-7.794c-1.413,3.553-3.259,6.839-5.956,9.535L143.944,473.149c3.406,2.841,6.745,5.182,10.027,7.305
	L344.819,289.597z"/>
<path style="fill:#D32F2F;" d="M402.625,256.281c2.771,8.333,2.708,15.302-0.167,18.177c-2.854,2.875-9.854,2.927-18.167,0.156
	c-11.063-3.688-23.542-11.948-34.25-22.646c-3.797-3.807-7.414-8.189-11.034-13.171c-2.736-7.132-6.651-14.365-11.607-21.465
	c-2.645-8.197-2.671-14.98,0.141-17.792c2.854-2.885,9.833-2.948,18.167-0.156c6.855,2.285,14.228,6.478,21.414,11.771
	c-0.116,2.514-0.652,4.634-1.997,5.979c-4.167,4.167-4.167,10.917,0,15.083c2.083,2.083,4.813,3.125,7.542,3.125
	c2.729,0,5.458-1.042,7.542-3.125c1.685-1.684,3.027-3.466,4.159-5.313C392.864,236.439,399.477,246.854,402.625,256.281z"/>
<path style="opacity:0.1;enable-background:new    ;" d="M301.792,267.115c-11.063-3.688-23.542-11.948-34.25-22.656
	c-10.708-10.719-18.979-23.198-22.667-34.24c-2.771-8.333-2.708-15.302,0.167-18.177c1.458-1.469,3.979-2.198,7.208-2.198
	c3.104,0,6.875,0.677,10.958,2.042c8.328,2.776,17.458,8.151,26.031,15.203c-2.996,3.271-5.891,6.491-9.448,10.047
	c-4.167,4.167-4.167,10.917,0,15.083c2.083,2.083,4.813,3.125,7.542,3.125c2.729,0,5.458-1.042,7.542-3.125
	c3.553-3.555,6.427-6.779,9.466-10.083c7.32,8.764,12.938,18.124,15.784,26.646c2.771,8.333,2.708,15.302-0.167,18.177
	C317.084,269.823,310.105,269.886,301.792,267.115z"/>
<path style="opacity:0.1;enable-background:new    ;" d="M255.709,109.386c9.382,3.128,19.723,9.665,29.197,18.074
	c-1.846,1.359-3.569,2.798-5.113,4.342c-4.167,4.167-4.167,10.917,0,15.083c4.167,4.167,10.917,4.167,15.083,0
	c1.315-1.314,2.936-2.542,4.768-3.703c9.598,12.448,14.285,24.099,14.887,32.121c-2.521,3.659-5.234,7.389-8.061,11.164
	c-3.232,0.203-7.263-0.408-11.836-1.893c-7.1-4.949-14.331-8.859-21.461-11.591c-4.978-3.634-9.357-7.241-13.13-11.025
	c-10.709-10.719-18.979-23.198-22.667-34.24c-2.771-8.333-2.708-15.302,0.167-18.177
	C240.396,106.646,247.375,106.594,255.709,109.386z"/>
<path style="opacity:0.1;enable-background:new    ;" d="M402.625,256.281c2.771,8.333,2.708,15.302-0.167,18.177
	c-2.854,2.875-9.854,2.927-18.167,0.156c-11.063-3.688-23.542-11.948-34.25-22.646c-3.797-3.807-7.414-8.189-11.034-13.171
	c-2.736-7.132-6.651-14.365-11.607-21.465c-2.645-8.197-2.671-14.98,0.141-17.792c2.854-2.885,9.833-2.948,18.167-0.156
	c6.855,2.285,14.228,6.478,21.414,11.771c-0.116,2.514-0.652,4.634-1.997,5.979c-4.167,4.167-4.167,10.917,0,15.083
	c2.083,2.083,4.813,3.125,7.542,3.125c2.729,0,5.458-1.042,7.542-3.125c1.685-1.684,3.027-3.466,4.159-5.313
	C392.864,236.439,399.477,246.854,402.625,256.281z"/>
<linearGradient id="SVGID_1_" gradientUnits="userSpaceOnUse" x1="-43.2361" y1="638.7932" x2="-27.6834" y2="631.5413" gradientTransform="matrix(21.3333 0 0 -21.3333 996.3298 13791.6709)">
	<stop  offset="0" style="stop-color:#FFFFFF;stop-opacity:0.2"/>
	<stop  offset="1" style="stop-color:#FFFFFF;stop-opacity:0"/>
</linearGradient>
<path style="fill:url(#SVGID_1_);" d="M501.334,64.003c-29.415,0-53.332-23.928-53.332-53.336c0-5.896-4.77-10.667-10.665-10.667
	c-5.896,0-10.667,4.771-10.667,10.667c0,29.408-23.917,53.336-53.332,53.336c-5.896,0-10.667,4.771-10.667,10.667
	s4.771,10.667,10.667,10.667c7.447,0,14.529,1.555,20.971,4.323c-8.195,4.245-16.577,9.346-25.102,17.108
	c-11.083,0.355-40.141,2.109-63.906,10.477c-0.091-0.092-0.16-0.189-0.253-0.281c-13.167-13.167-28.292-23.042-42.583-27.813
	c-16.79-5.595-31.02-3.71-39.999,5.313L8.473,308.47c-9.021,9.012-10.917,23.22-5.313,40.013
	c3.845,11.512,11.121,23.52,20.651,34.661l-7.839,7.84c-9.021,9.01-10.917,23.22-5.312,40.012
	c4.771,14.283,14.646,29.408,27.811,42.576C58.451,493.551,80.887,504.5,98.72,504.5c8.896,0,16.625-2.73,22.333-8.428l8.004-8.005
	c17.801,15.247,36.68,23.934,52.16,23.934c8.875,0,16.625-2.729,22.333-8.428l213.993-214.018c9.021-9.01,10.917-23.22,5.313-40.012
	c-4.771-14.283-14.646-29.408-27.811-42.576c-2.435-2.435-4.992-4.629-7.543-6.827c-1.392-7.319-3.895-14.913-6.374-22.414
	c-7.979-24.094-12.313-40.783-0.25-52.845c9.438-9.439,19.061-14.251,29.228-19.335c1.092-0.547,2.206-1.134,3.305-1.689
	c8.148,9.368,13.258,21.453,13.258,34.815c0,5.896,4.771,10.667,10.667,10.667c5.896,0,10.665-4.771,10.665-10.667
	c0-29.408,23.917-53.336,53.332-53.336c5.896,0,10.667-4.771,10.667-10.667S507.23,64.003,501.334,64.003z M319.986,134.999
	c8.625-2.331,18.214-4,27.478-5.137c-6.733,8.001-12.454,15.497-17.382,22.559C327.56,146.679,324.056,140.836,319.986,134.999z
	 M352.459,179.146c-4.508-1.501-8.784-2.37-12.868-2.799c4.348-6.479,8.767-12.895,13.667-19.513
	c1.539,8.824,4.284,17.46,6.944,25.534C357.61,181.199,355.012,179.999,352.459,179.146z"/>
<g>
</g>
<g>
</g>
<g>
</g>
<g>
</g>
<g>
</g>
<g>
</g>
<g>
</g>
<g>
</g>
<g>
</g>
<g>
</g>
<g>
</g>
<g>
</g>
<g>
</g>
<g>
</g>
<g>
</g>
</svg>
