<?xml version="1.0" encoding="iso-8859-1"?>
<!-- Generator: Adobe Illustrator 21.0.0, SVG Export Plug-In . SVG Version: 6.00 Build 0)  -->
<svg version="1.1" id="Capa_1" xmlns="http://www.w3.org/2000/svg" xmlns:xlink="http://www.w3.org/1999/xlink" x="0px" y="0px"
	 viewBox="0 0 512 512" style="enable-background:new 0 0 512 512;" xml:space="preserve">
<path style="fill:#F8D46E;" d="M375.682,50.549l7.287,13.513l-6.206,11.511h-30.189c-7.978,0-14.464,6.486-14.464,14.464v26.576
	c0,20.97-17.067,38.037-38.037,38.037s-38.037-17.067-38.037-38.037v-4.504c0-8.008-6.506-14.514-14.514-14.514
	c-8.008,0-14.514,6.506-14.514,14.514v68.567h-25.024v-68.567c0-21.801,17.737-39.539,39.539-39.539
	c21.801,0,39.539,17.737,39.539,39.539v4.504c0,7.177,5.836,13.013,13.013,13.013c7.177,0,13.013-5.836,13.013-13.013V90.038
	c0-21.771,17.717-39.489,39.489-39.489C346.573,50.549,375.682,50.549,375.682,50.549z"/>
<g>
	<path style="fill:#F7C852;" d="M304.324,132.177c7.177,0,13.013-5.836,13.013-13.013V92.588c0-21.771,17.717-39.489,39.489-39.489
		h20.231l-1.375-2.55h-29.108c-21.771,0-39.489,17.717-39.489,39.489v26.576c0,6.403-4.65,11.726-10.747,12.802
		C298.545,131.139,301.312,132.177,304.324,132.177z"/>
	<path style="fill:#F7C852;" d="M266.287,119.164v-4.504c0-8.008-6.506-14.514-14.514-14.514c-0.635,0-1.256,0.055-1.869,0.134
		c3.704,2.632,6.131,6.947,6.131,11.83v4.504c0,19.645,14.978,35.863,34.111,37.835
		C276.178,148.813,266.287,135.124,266.287,119.164z"/>
	<path style="fill:#F7C852;" d="M212.234,114.66c0-21.801,17.737-39.539,39.539-39.539c1.455,0,2.89,0.085,4.305,0.239
		c-4.509-1.793-9.418-2.789-14.557-2.789c-21.801,0-39.539,17.737-39.539,39.539v68.567h10.253L212.234,114.66L212.234,114.66z"/>
</g>
<path style="fill:#32314B;" d="M264.864,168.164H164.125c-9.219,0-16.696,7.477-16.696,16.696l-0.5,70.889H281.06l0.5-70.889
	C281.56,175.642,274.083,168.164,264.864,168.164z"/>
<path style="fill:#27273D;" d="M205.416,168.164h-41.29c-9.219,0-16.696,7.477-16.696,16.696l-0.5,70.889h41.29l0.5-70.889
	C188.719,175.642,196.197,168.164,205.416,168.164z"/>
<path style="fill:#4F4F74;" d="M281.48,209.364c52.151,24.994,88.166,78.276,88.166,139.977
	c0,85.684-69.468,155.152-155.152,155.152S59.343,435.025,59.343,349.341c0-61.7,36.015-114.982,88.166-139.977
	c20.28-9.729,43.002-15.175,66.985-15.175S261.2,199.635,281.48,209.364z"/>
<path style="fill:#3E436D;" d="M249.839,483.997c-85.684,0-155.152-69.468-155.152-155.152c0-50.025,23.678-94.512,60.432-122.88
	c-2.573,1.067-5.111,2.2-7.61,3.399c-52.151,24.994-88.166,78.276-88.166,139.977c0,85.684,69.468,155.152,155.152,155.152
	c35.665,0,68.513-12.044,94.719-32.275C290.922,479.803,270.872,483.997,249.839,483.997z"/>
<path style="fill:#FE715A;" d="M450.568,39.657l-12.472,23.119c-0.433,0.804-0.433,1.772,0,2.576l12.472,23.119
	c0.959,1.777-0.29,3.941-2.308,3.999l-26.253,0.761c-0.913,0.026-1.751,0.511-2.23,1.287l-13.79,22.359
	c-1.06,1.718-3.557,1.718-4.617,0l-13.79-22.359c-0.479-0.777-1.317-1.261-2.23-1.287l-26.252-0.761
	c-2.018-0.058-3.267-2.222-2.308-3.999l6.959-12.895l5.512-10.224c0.433-0.804,0.433-1.771,0-2.575l-6.591-12.227l-5.879-10.893
	c-0.959-1.777,0.29-3.941,2.308-3.999l26.252-0.761c0.913-0.026,1.751-0.51,2.23-1.287l13.79-22.359c1.06-1.718,3.557-1.718,4.617,0
	l13.79,22.359c0.479,0.777,1.317,1.261,2.23,1.287l26.253,0.761C450.278,35.716,451.527,37.88,450.568,39.657z"/>
<path style="fill:#FF4C39;" d="M386.17,89.587l5.512-10.224c0.433-0.804,0.433-1.771,0-2.575l-6.593-12.226l0,0
	c-3.657-6.776,1.107-15.028,8.803-15.251l13.879-0.402c0.913-0.026,1.751-0.51,2.23-1.287l9.21-14.933l-13.223-21.44
	c-1.06-1.718-3.557-1.718-4.617,0l-13.79,22.359c-0.479,0.777-1.317,1.261-2.23,1.287l-26.252,0.761
	c-2.018,0.058-3.267,2.222-2.308,3.999l5.879,10.893l6.592,12.226c0.433,0.804,0.433,1.771,0,2.575l-5.511,10.225l-6.959,12.895
	c-0.959,1.777,0.29,3.941,2.308,4l25.124,0.729L386.17,89.587z"/>
<path style="fill:#EDE6F5;" d="M278.647,336.018v34.253c0,7.357-5.966,13.313-13.313,13.313h-15.845v17.577
	c0,10.911-8.849,19.749-19.749,19.749h-30.49c-10.901,0-19.749-8.839-19.749-19.749v-17.577h-15.845
	c-7.347,0-13.313-5.956-13.313-13.313v-34.253c0-27.197,22.052-49.238,49.238-49.238h29.829
	C256.596,286.78,278.647,308.822,278.647,336.018z"/>
<path style="fill:#E0D3F2;" d="M221.361,411.241c-10.908,0-19.749-8.842-19.749-19.749v-1.732c0-8.752-7.094-15.845-15.845-15.845
	l0,0c-7.347,0-13.313-5.956-13.313-13.313v-34.253c0-15.824,7.474-29.893,19.074-38.901c-23.356,3.846-41.185,24.12-41.185,48.571
	v34.253c0,7.357,5.966,13.313,13.313,13.313H179.5v17.577c0,10.908,8.842,19.749,19.749,19.749h30.49
	c7.217,0,13.515-3.887,16.962-9.67L221.361,411.241L221.361,411.241z"/>
<g>
	<circle style="fill:#CEC1E7;" cx="240.515" cy="339.331" r="16.016"/>
	<circle style="fill:#CEC1E7;" cx="188.464" cy="339.331" r="16.016"/>
</g>
<g>
	<path style="fill:#BCAFDD;" d="M238.053,333.326c0-3.768,1.308-7.224,3.483-9.959c-0.337-0.021-0.674-0.051-1.017-0.051
		c-8.849,0-16.016,7.167-16.016,16.016c0,8.849,7.167,16.016,16.016,16.016c5.081,0,9.598-2.37,12.532-6.057
		C244.679,348.764,238.053,341.831,238.053,333.326z"/>
	<path style="fill:#BCAFDD;" d="M186.002,333.326c0-3.768,1.308-7.224,3.483-9.959c-0.337-0.021-0.674-0.051-1.017-0.051
		c-8.849,0-16.016,7.167-16.016,16.016c0,8.849,7.167,16.016,16.016,16.016c5.081,0,9.598-2.37,12.532-6.057
		C192.628,348.764,186.002,341.831,186.002,333.326z"/>
</g>
<path d="M445.933,64.063l13.332-24.713c1.236-2.292,1.196-5.062-0.106-7.318c-1.302-2.255-3.681-3.676-6.284-3.751l-28.068-0.812
	L410.07,3.567C408.702,1.35,406.284,0,403.679,0c-2.605,0-5.024,1.35-6.39,3.567l-14.736,23.901l-28.068,0.812
	c-2.604,0.075-4.983,1.495-6.284,3.751c-1.302,2.255-1.342,5.026-0.106,7.318l1.992,3.693h-3.512
	c-25.913,0-46.996,21.083-46.996,46.996v26.576c0,3.036-2.469,5.505-5.505,5.505c-3.036,0-5.505-2.469-5.505-5.505v-4.504
	c0-25.941-21.105-47.046-47.046-47.046s-47.046,21.105-47.046,47.046v48.547H164.12c-13.343,0-24.199,10.856-24.199,24.199v19.957
	c-52.277,27.083-88.086,81.7-88.086,144.528C51.836,439.032,124.804,512,214.495,512s162.659-72.968,162.659-162.659
	c0-61.638-34.931-117.12-88.086-144.585v-19.9c0-13.343-10.856-24.199-24.199-24.199h-30.355v-48.547
	c0-3.864,3.143-7.007,7.007-7.007c3.864,0,7.007,3.143,7.007,7.007v4.504c0,25.114,20.431,45.544,45.544,45.544
	c25.114,0,45.544-20.431,45.544-45.544V90.038c0-3.836,3.121-6.957,6.957-6.957h4.592l-3.072,5.695
	c-1.236,2.292-1.196,5.062,0.106,7.318c1.302,2.255,3.681,3.676,6.284,3.751l28.068,0.812l14.736,23.901
	c1.367,2.217,3.786,3.567,6.39,3.567c2.605,0,5.024-1.35,6.39-3.567l14.736-23.901l28.068-0.812
	c2.604-0.075,4.983-1.495,6.284-3.751c1.302-2.255,1.342-5.026,0.106-7.318L445.933,64.063z M274.053,184.856v13.093
	c-5.449-2.143-11.053-4.011-16.799-5.573c-3.999-1.087-8.126,1.274-9.214,5.275c-1.087,4.001,1.274,8.126,5.275,9.214
	c64.074,17.415,108.823,76.004,108.823,142.477c0,81.411-66.233,147.644-147.644,147.644S66.849,430.753,66.849,349.341
	s66.233-147.644,147.644-147.644c3.314,0,6.762,0.121,10.247,0.36c4.135,0.285,7.72-2.84,8.004-6.976s-2.84-7.72-6.976-8.004
	c-3.826-0.262-7.618-0.395-11.274-0.395c-21.012,0-41.105,4.005-59.558,11.291v-13.118c0-5.064,4.12-9.184,9.184-9.184h100.747
	C269.932,175.672,274.053,179.792,274.053,184.856z M346.573,68.066c-12.115,0-21.971,9.857-21.971,21.971v26.576
	c0,16.834-13.695,30.53-30.53,30.53c-16.834,0-30.53-13.695-30.53-30.53v-4.504c0-12.143-9.879-22.022-22.021-22.022
	c-12.143,0-22.021,9.879-22.021,22.022v48.547h-10.01v-48.547c0-17.662,14.369-32.031,32.031-32.031
	c17.662,0,32.031,14.369,32.031,32.031v4.504c0,11.315,9.205,20.52,20.52,20.52s20.52-9.205,20.52-20.52V90.038
	c0-17.634,14.347-31.981,31.981-31.981h11.612l3.24,6.006l-2.16,4.004H346.573z M430.796,67.627l9.473,17.561l-19.945,0.577
	c-2.526,0.073-4.847,1.413-6.173,3.564l-10.471,16.985l-10.471-16.985c-1.327-2.151-3.648-3.491-6.173-3.564l-19.945-0.577
	l3.242-6.01c0.01-0.018,0.02-0.037,0.03-0.055l6.201-11.496c1.2-2.224,1.2-4.904,0-7.128l-7.278-13.492
	c-0.012-0.022-0.023-0.044-0.035-0.065l-2.16-4.004l19.945-0.577c2.526-0.073,4.847-1.413,6.173-3.564l10.471-16.985l10.471,16.985
	c1.327,2.151,3.648,3.491,6.173,3.564l19.945,0.577l-9.473,17.561C429.596,62.723,429.596,65.402,430.796,67.627z"/>
<path d="M199.58,279.273c-30.754,0-55.658,24.072-56.696,54.801c-0.14,4.144,3.106,7.616,7.25,7.757
	c4.129,0.152,7.616-3.106,7.757-7.249c0.763-22.595,19.076-40.293,41.69-40.293h29.828c23.008,0,41.729,18.719,41.729,41.729v34.259
	c0,3.201-2.605,5.806-5.806,5.806h-15.846c-4.146,0-7.507,3.361-7.507,7.507v17.576c0,6.75-5.491,12.241-12.241,12.241h-7.736
	V397.39c0-4.146-3.361-7.507-7.507-7.507c-4.146,0-7.507,3.361-7.507,7.507v16.016h-7.736c-6.75,0-12.241-5.491-12.241-12.241
	v-17.576c0-4.146-3.361-7.507-7.507-7.507h-15.846c-3.201,0-5.806-2.605-5.806-5.806v-5.92c0-4.146-3.361-7.507-7.507-7.507
	s-7.507,3.361-7.507,7.507v5.919c0,11.48,9.34,20.82,20.82,20.82h8.339v10.069c0,15.029,12.227,27.256,27.256,27.256h30.485
	c15.029,0,27.256-12.227,27.256-27.256v-10.069h8.339c11.48,0,20.82-9.34,20.82-20.82v-34.259c0-31.289-25.455-56.743-56.743-56.743
	H199.58V279.273z"/>
<path d="M211.992,339.331c0-12.971-10.552-23.523-23.523-23.523s-23.523,10.552-23.523,23.523s10.552,23.523,23.523,23.523
	S211.992,352.302,211.992,339.331z M179.961,339.331c0-4.692,3.817-8.508,8.508-8.508s8.508,3.817,8.508,8.508
	c0,4.692-3.817,8.508-8.508,8.508S179.961,344.023,179.961,339.331z"/>
<path d="M240.52,362.854c12.971,0,23.523-10.552,23.523-23.523s-10.552-23.523-23.523-23.523c-12.971,0-23.523,10.552-23.523,23.523
	S227.549,362.854,240.52,362.854z M240.52,330.823c4.692,0,8.508,3.817,8.508,8.508c0,4.692-3.817,8.508-8.508,8.508
	c-4.692,0-8.508-3.817-8.508-8.508C232.012,334.64,235.828,330.823,240.52,330.823z"/>
<g>
</g>
<g>
</g>
<g>
</g>
<g>
</g>
<g>
</g>
<g>
</g>
<g>
</g>
<g>
</g>
<g>
</g>
<g>
</g>
<g>
</g>
<g>
</g>
<g>
</g>
<g>
</g>
<g>
</g>
</svg>
