<?xml version="1.0" encoding="iso-8859-1"?>
<!-- Generator: Adobe Illustrator 19.0.0, SVG Export Plug-In . SVG Version: 6.00 Build 0)  -->
<svg version="1.1" id="Capa_1" xmlns="http://www.w3.org/2000/svg" xmlns:xlink="http://www.w3.org/1999/xlink" x="0px" y="0px"
	 viewBox="0 0 512.002 512.002" style="enable-background:new 0 0 512.002 512.002;" xml:space="preserve">
<ellipse style="fill:#FFDAAA;" cx="256.001" cy="457.916" rx="74.637" ry="54.085"/>
<path style="fill:#FFC477;" d="M298.642,413.532c-12.09-6.111-26.783-9.705-42.641-9.705c-41.223,0-74.641,24.215-74.641,54.088
	c0,29.872,33.417,54.088,74.641,54.088c1.996,0,3.968-0.074,5.926-0.185C239.072,475.567,267.75,439.063,298.642,413.532z"/>
<path style="fill:#E2B6FF;" d="M303.242,55.324l-14.696-34.777c-11.577-27.397-50.403-27.397-61.98,0L212.33,54.235
	c-6.771,16.024-20.396,28.125-37.081,33.047C80.773,115.156,13.061,190.558,13.061,279.204
	c0,112.353,108.768,203.431,242.939,203.431S498.94,391.556,498.94,279.204c0-87.723-66.314-162.466-159.252-191.022
	C323.282,83.14,309.923,71.136,303.242,55.324z"/>
<path style="fill:#C392EA;" d="M339.69,88.182c-16.408-5.042-29.766-17.046-36.447-32.858l-14.696-34.777
	c-11.577-27.397-50.403-27.397-61.98,0l-14.236,33.688C205.56,70.26,191.935,82.36,175.25,87.283c-0.001,0-0.002,0.001-0.004,0.001
	c-0.053,0.097-143.126,262.383,13.966,387.564c21.221,5.071,43.626,7.787,66.79,7.787c25.844,0,50.74-3.392,74.103-9.652
	c0,0,0,0,0-0.001C475.372,345.565,339.69,88.182,339.69,88.182z"/>
<g>
	<path style="fill:#EDD7FF;" d="M55.068,286.833c0-136.168,119.993-199.452,120.174-199.547
		C80.769,115.16,13.061,190.561,13.061,279.204c0,92.954,74.453,171.344,176.147,195.643
		C188.975,474.758,55.068,422.985,55.068,286.833z"/>
	<path style="fill:#EDD7FF;" d="M498.94,279.204c0-87.723-66.314-162.466-159.251-191.022
		c-1.623-0.499,117.245,62.483,117.245,198.651c0,136.153-126.599,186.062-126.831,186.152c0.001,0,0.001,0,0.002,0
		C428.033,446.746,498.94,369.915,498.94,279.204z"/>
</g>
<path style="fill:#57565C;" d="M256.407,329.684L256.407,329.684c-15.988,0-28.948-12.961-28.948-28.948V279.69
	c0-4.365,3.538-7.902,7.903-7.902h42.092c4.365,0,7.902,3.538,7.902,7.902v21.047C285.355,316.724,272.395,329.684,256.407,329.684z
	"/>
<g>
	<ellipse style="fill:#FFA6BB;" cx="159.576" cy="300.741" rx="30.878" ry="24.589"/>
	<ellipse style="fill:#FFA6BB;" cx="353.24" cy="300.741" rx="30.878" ry="24.589"/>
</g>
<g>
	<path style="fill:#57565C;" d="M339.498,287.238c-4.268,0-7.726-3.459-7.726-7.726v-12.827c0-4.267,3.458-7.726,7.726-7.726
		c4.268,0,7.726,3.459,7.726,7.726v12.827C347.224,283.778,343.766,287.238,339.498,287.238z"/>
	<path style="fill:#57565C;" d="M173.316,287.238c-4.268,0-7.726-3.459-7.726-7.726v-12.827c0-4.267,3.458-7.726,7.726-7.726
		c4.268,0,7.726,3.459,7.726,7.726v12.827C181.043,283.778,177.583,287.238,173.316,287.238z"/>
</g>
<g>
</g>
<g>
</g>
<g>
</g>
<g>
</g>
<g>
</g>
<g>
</g>
<g>
</g>
<g>
</g>
<g>
</g>
<g>
</g>
<g>
</g>
<g>
</g>
<g>
</g>
<g>
</g>
<g>
</g>
</svg>
