<?xml version="1.0" encoding="iso-8859-1"?>
<!-- Generator: Adobe Illustrator 19.0.0, SVG Export Plug-In . SVG Version: 6.00 Build 0)  -->
<svg version="1.1" id="Capa_1" xmlns="http://www.w3.org/2000/svg" xmlns:xlink="http://www.w3.org/1999/xlink" x="0px" y="0px"
	 viewBox="0 0 512 512" style="enable-background:new 0 0 512 512;" xml:space="preserve">
<path style="fill:#54B88B;" d="M352.263,30.771c-27.27,36.647-54.162,91.376-73.313,145.082V10.378
	C278.95,4.646,274.304,0,268.573,0h-25.145c-5.731,0-10.378,4.646-10.378,10.378v165.475
	c-19.151-53.706-46.043-108.434-73.313-145.082c-3.75-5.039-10.929-5.953-15.792-1.978l-18.546,15.16
	c-4.525,3.699-5.376,10.296-1.904,14.998c44.68,60.493,91.205,182.779,91.205,242.553h82.601c0-59.774,46.525-182.06,91.205-242.553
	c3.472-4.701,2.622-11.299-1.904-14.998l-18.546-15.16C363.193,24.818,356.013,25.732,352.263,30.771z"/>
<path style="fill:#B5E489;" d="M256,207.222c-21.622,0-40.823,2.281-58.582,6.577c10.653,33.683,17.282,65.146,17.282,87.704h82.601
	c0-22.558,6.629-54.021,17.282-87.704C296.823,209.503,277.622,207.222,256,207.222z"/>
<path style="opacity:0.1;enable-background:new    ;" d="M167.33,136.167c26.86,58.416,47.37,125.652,47.37,165.336h82.601
	c0-15.702,3.214-35.72,8.758-57.796C238.629,251.939,193.914,186.273,167.33,136.167z"/>
<path style="fill:#FFDAB5;" d="M399.044,382.296c0-68.919-64.043-124.79-143.044-124.79s-143.044,55.87-143.044,124.79
	S176.999,512,256,512S399.044,451.215,399.044,382.296z"/>
<g>
	<path style="fill:#414B58;" d="M198.542,391.123c-4.142,0-7.5-3.357-7.5-7.5v-9.538c0-4.143,3.358-7.5,7.5-7.5s7.5,3.357,7.5,7.5
		v9.538C206.042,387.766,202.685,391.123,198.542,391.123z"/>
	<path style="fill:#414B58;" d="M313.457,391.123c-4.142,0-7.5-3.357-7.5-7.5v-9.538c0-4.143,3.358-7.5,7.5-7.5s7.5,3.357,7.5,7.5
		v9.538C320.957,387.766,317.6,391.123,313.457,391.123z"/>
	<path style="fill:#414B58;" d="M256,398.447c-7.973,0-15.555-3.453-20.802-9.474c-2.722-3.123-2.396-7.86,0.726-10.582
		c3.122-2.721,7.86-2.396,10.582,0.727c2.398,2.751,5.858,4.329,9.495,4.329c3.637,0,7.097-1.578,9.495-4.329
		c2.721-3.123,7.458-3.448,10.582-0.727c3.122,2.722,3.448,7.459,0.726,10.582C271.555,394.994,263.973,398.447,256,398.447z"/>
</g>
<path style="opacity:0.1;enable-background:new    ;" d="M223.269,470.806c-90.386-75.991-37.467-175.635,19.625-212.773
	c-72.857,5.775-129.938,59.199-129.938,124.263C112.956,451.215,176.999,512,256,512c2.747,0,5.474-0.081,8.182-0.226
	C257.197,501.943,244.568,488.712,223.269,470.806z"/>
<g style="opacity:0.1;">
	<path d="M165.937,355.388c-0.96,0-1.936-0.186-2.877-0.577c-3.825-1.59-5.636-5.98-4.045-9.805
		c7.763-18.668,25.089-45.204,48.366-58.55c3.594-2.059,8.177-0.817,10.237,2.776c2.061,3.594,0.817,8.177-2.776,10.237
		c-20.009,11.471-35.118,34.802-41.977,51.296C171.665,353.648,168.876,355.388,165.937,355.388z"/>
	<path d="M353.432,361.797c-3.771,0-7.019-2.837-7.445-6.673c-1.035-9.314-8.438-26.691-19.646-35.097
		c-3.313-2.485-3.985-7.186-1.5-10.5c2.485-3.312,7.186-3.984,10.5-1.5c14.529,10.896,24.01,31.544,25.554,45.44
		c0.457,4.116-2.509,7.825-6.626,8.282C353.988,361.781,353.708,361.797,353.432,361.797z"/>
	<path d="M289.692,486.107c-1.888,0-3.777-0.708-5.235-2.13c-2.966-2.892-3.026-7.64-0.135-10.605
		c6.695-6.867,11.684-16.809,14.426-28.748c0.927-4.038,4.947-6.557,8.989-5.631c4.037,0.927,6.558,4.951,5.63,8.988
		c-3.358,14.623-9.689,27.023-18.305,35.861C293.593,485.351,291.644,486.107,289.692,486.107z"/>
	<path d="M217.56,473.296c-2.353,0-4.67-1.104-6.131-3.173c-5.095-7.209-8.608-22.078-9.046-25.227
		c-0.571-4.103,2.292-7.891,6.395-8.462c4.098-0.572,7.891,2.292,8.462,6.396c0.479,3.439,3.723,14.793,6.44,18.638
		c2.391,3.383,1.586,8.063-1.796,10.453C220.567,472.849,219.056,473.296,217.56,473.296z"/>
	<path d="M267.942,348.103c-4.142,0-7.5-3.357-7.5-7.5v-17.654c0-4.143,3.358-7.5,7.5-7.5s7.5,3.357,7.5,7.5v17.654
		C275.442,344.746,272.085,348.103,267.942,348.103z"/>
</g>
<g>
</g>
<g>
</g>
<g>
</g>
<g>
</g>
<g>
</g>
<g>
</g>
<g>
</g>
<g>
</g>
<g>
</g>
<g>
</g>
<g>
</g>
<g>
</g>
<g>
</g>
<g>
</g>
<g>
</g>
</svg>
