<?xml version="1.0" encoding="iso-8859-1"?>
<!-- Generator: Adobe Illustrator 19.0.0, SVG Export Plug-In . SVG Version: 6.00 Build 0)  -->
<svg version="1.1" id="Layer_1" xmlns="http://www.w3.org/2000/svg" xmlns:xlink="http://www.w3.org/1999/xlink" x="0px" y="0px"
	 viewBox="0 0 512.003 512.003" style="enable-background:new 0 0 512.003 512.003;" xml:space="preserve">
<path style="fill:#00D7DF;" d="M305.983,151.139c0.56,75.919-48.967,137.833-48.967,137.833s-50.436-61.175-50.996-137.094
	s48.967-137.833,48.967-137.833S305.423,75.22,305.983,151.139z"/>
<g>
	<path style="fill:#7BD36A;" d="M206.019,151.878c-0.118-16.079,2.015-31.526,5.443-45.893
		c-31.958-49.366-79.239-76.186-79.239-76.186s-24.14,75.522,3.508,146.23s96.61,109.828,96.61,109.828s3.074-9.622,5.771-25.205
		C223.731,235.624,206.347,196.275,206.019,151.878z"/>
	<path style="fill:#7BD36A;" d="M379.779,29.798c0,0-47.644,27.031-79.605,76.762c3.464,13.968,5.694,28.96,5.809,44.58
		c0.337,45.739-17.503,86.386-31.743,111.482c2.608,14.42,5.423,23.235,5.423,23.235s68.963-39.119,96.61-109.828
		C403.92,105.322,379.779,29.798,379.779,29.798z"/>
</g>
<circle style="fill:#FFF476;" cx="256" cy="378.923" r="95.261"/>
<path d="M296.807,360.138c-0.911,0-1.825-0.098-2.738-0.281c-0.899-0.183-1.783-0.449-2.624-0.8
	c-0.844-0.351-1.658-0.786-2.429-1.292c-0.758-0.506-1.488-1.095-2.134-1.741s-1.237-1.362-1.741-2.134
	c-0.506-0.758-0.941-1.573-1.292-2.429c-0.351-0.843-0.618-1.726-0.8-2.626c-0.183-0.899-0.281-1.825-0.281-2.737
	c0-0.913,0.098-1.841,0.281-2.752c0.183-0.9,0.449-1.771,0.8-2.626c0.351-0.844,0.786-1.658,1.292-2.417
	c0.504-0.772,1.095-1.488,1.741-2.134c0.646-0.66,1.375-1.236,2.134-1.755c0.772-0.505,1.587-0.941,2.429-1.292
	c0.843-0.351,1.726-0.618,2.624-0.8c1.811-0.365,3.679-0.365,5.49,0c0.9,0.183,1.771,0.449,2.626,0.8
	c0.844,0.351,1.657,0.786,2.415,1.292c0.774,0.52,1.49,1.095,2.148,1.755c0.646,0.646,1.222,1.362,1.741,2.134
	c0.506,0.758,0.941,1.573,1.292,2.417c0.351,0.855,0.618,1.726,0.8,2.626c0.183,0.911,0.265,1.84,0.265,2.752
	c0,0.911-0.084,1.84-0.265,2.737c-0.183,0.9-0.449,1.785-0.8,2.626c-0.351,0.844-0.786,1.671-1.292,2.429
	c-0.52,0.772-1.095,1.488-1.741,2.134c-0.66,0.646-1.375,1.236-2.148,1.741c-0.758,0.505-1.571,0.941-2.415,1.292
	c-0.855,0.351-1.726,0.618-2.626,0.8C298.647,360.038,297.734,360.138,296.807,360.138z"/>
<path d="M389.35,181.142c29.126-74.494,4.853-152.341,3.805-155.62c-1.288-4.029-4.324-7.262-8.262-8.803
	c-3.94-1.54-8.365-1.223-12.042,0.865c-1.738,0.986-36.596,21.038-67.533,58.299c-15.558-41.341-38.065-69.036-39.497-70.773
	c-2.69-3.263-6.753-5.17-10.939-5.11c-4.229,0.031-8.22,1.967-10.861,5.27c-1.39,1.738-22.989,29.137-37.922,69.906
	c-30.793-36.811-65.226-56.62-66.948-57.596c-3.679-2.085-8.102-2.404-12.042-0.864c-3.939,1.54-6.975,4.773-8.262,8.803
	c-1.046,3.279-25.32,81.127,3.805,155.621c19.277,49.301,56.732,83.812,80.731,102.01c-33.76,18.622-56.686,54.564-56.686,95.77
	c0,47.349,30.272,87.749,72.472,102.901l-3.345,5.174c-4.21,6.514-2.342,15.205,4.17,19.414c2.356,1.524,4.998,2.251,7.609,2.251
	c4.607,0,9.12-2.264,11.806-6.421l2.563-3.965c0.17,7.608,6.378,13.726,14.026,13.726c7.647,0,13.855-6.118,14.026-13.725
	l2.561,3.964c2.688,4.158,7.201,6.421,11.808,6.421c2.61,0,5.252-0.727,7.608-2.25c6.514-4.21,8.382-12.902,4.173-19.416
	l-3.343-5.174c42.2-15.151,72.47-55.551,72.47-102.901c0-41.206-22.926-77.146-56.686-95.77
	C332.617,264.954,370.074,230.444,389.35,181.142z M255.167,38.653c11.308,17.682,28.085,48.796,34.323,85.476
	c0.045,0.268,0.097,0.539,0.142,0.807c0.143,0.864,0.27,1.737,0.4,2.606c0.118,0.785,0.236,1.57,0.343,2.352
	c0.1,0.726,0.191,1.456,0.281,2.186c0.115,0.937,0.225,1.87,0.324,2.803c0.069,0.643,0.136,1.285,0.198,1.931
	c0.1,1.035,0.185,2.066,0.264,3.095c0.044,0.57,0.093,1.137,0.131,1.709c0.077,1.146,0.135,2.287,0.187,3.426
	c0.021,0.466,0.052,0.93,0.069,1.396c0.06,1.608,0.101,3.21,0.112,4.804c0.011,1.434-0.001,2.86-0.029,4.284
	c-0.007,0.358-0.022,0.715-0.031,1.073c-0.029,1.099-0.063,2.196-0.114,3.289c-0.014,0.319-0.034,0.638-0.051,0.955
	c-0.062,1.189-0.132,2.374-0.219,3.554c-0.013,0.171-0.027,0.343-0.039,0.514c-2.213,28.883-11.687,55.185-21.415,75.355v-57.388
	c0-7.754-6.288-14.042-14.042-14.042c-7.755,0-14.042,6.288-14.042,14.042v54.929c-9.084-18.677-17.78-42.293-20.79-68.263l0,0
	c-0.154-1.33-0.289-2.668-0.413-4.01c-0.024-0.263-0.048-0.527-0.07-0.789c-0.095-1.097-0.178-2.199-0.253-3.303
	c-0.025-0.378-0.052-0.754-0.074-1.132c-0.063-1.043-0.112-2.092-0.156-3.141c-0.015-0.386-0.037-0.771-0.051-1.157
	c-0.048-1.408-0.081-2.82-0.091-4.238c-0.013-1.62,0.006-3.251,0.044-4.887c0.011-0.469,0.034-0.934,0.049-1.401
	c0.038-1.175,0.083-2.352,0.146-3.533c0.029-0.55,0.067-1.098,0.101-1.647c0.07-1.099,0.149-2.202,0.24-3.307
	c0.049-0.587,0.1-1.174,0.154-1.759c0.1-1.066,0.212-2.136,0.333-3.207c0.069-0.611,0.133-1.223,0.208-1.831
	c0.129-1.056,0.278-2.116,0.425-3.175c0.205-1.446,0.424-2.884,0.661-4.315c0.095-0.579,0.184-1.156,0.285-1.736
	c0.204-1.163,0.423-2.317,0.646-3.468c0.06-0.315,0.121-0.628,0.183-0.942C230.188,83.293,244.942,55.176,255.167,38.653z
	 M148.808,170.916c-17.548-44.882-12.502-92.684-7.622-118.212c14.803,10.926,37.22,29.975,55.238,56.053
	c-2.481,11.861-4.085,24.384-4.39,37.363c-0.008,0.352-0.017,0.706-0.024,1.059c-0.029,1.595-0.045,3.195-0.032,4.802l0,0v0.001
	c0,0.007,0,0.013,0,0.02c0.01,1.327,0.036,2.648,0.073,3.965c0.011,0.371,0.028,0.74,0.041,1.109
	c0.034,0.966,0.069,1.929,0.117,2.89c0.02,0.388,0.044,0.774,0.065,1.161c0.053,0.962,0.111,1.922,0.178,2.879
	c0.024,0.331,0.049,0.663,0.074,0.994c0.079,1.042,0.164,2.082,0.258,3.117c0.021,0.229,0.042,0.458,0.065,0.685
	c0.114,1.198,0.237,2.39,0.371,3.576c0.007,0.059,0.013,0.118,0.02,0.177c4.109,36.159,17.557,67.755,29.883,90.191
	C202.177,247.224,166.28,215.604,148.808,170.916z M174.783,378.923c0-27.626,13.876-52.062,35.012-66.741
	c-7.306,18.826-11.298,42.207-11.298,66.741s3.992,47.914,11.298,66.74C188.657,430.984,174.783,406.548,174.783,378.923z
	 M337.22,378.923c0,27.594-13.844,52.003-34.939,66.688c5.882-15.101,9.731-33.542,10.883-54.272
	c0.431-7.743-5.497-14.368-13.242-14.799c-7.708-0.455-14.369,5.497-14.799,13.242c-2.424,43.593-18.594,70.36-29.122,70.36
	c-11.712,0-29.421-32.393-29.421-81.219c0-40.152,11.974-69.173,22.742-78.223c2.264,1.486,4.927,2.314,7.694,2.314
	c0.034,0,0.069,0,0.104,0c3.887-0.029,7.557-1.681,10.179-4.507C306.752,304.023,337.22,337.973,337.22,378.923z M291.155,261.041
	c10.986-20.955,22.64-49.495,27.045-82.002c0.008-0.062,0.017-0.124,0.025-0.187c0.156-1.157,0.302-2.32,0.44-3.487
	c0.027-0.22,0.051-0.442,0.076-0.664c0.115-1.011,0.223-2.026,0.324-3.044c0.032-0.324,0.063-0.65,0.094-0.976
	c0.087-0.921,0.166-1.847,0.24-2.775c0.031-0.393,0.063-0.788,0.093-1.182c0.065-0.873,0.121-1.748,0.174-2.626
	c0.027-0.432,0.055-0.864,0.079-1.297c0.046-0.861,0.083-1.726,0.118-2.591c0.018-0.442,0.039-0.883,0.055-1.328
	c0.031-0.904,0.049-1.811,0.067-2.72c0.008-0.402,0.021-0.8,0.027-1.202c0.017-1.303,0.022-2.61,0.014-3.922c0,0,0-0.001,0-0.003
	l0,0v-0.001c-0.011-1.568-0.049-3.129-0.1-4.684c-0.011-0.343-0.025-0.687-0.038-1.031c-0.055-1.465-0.125-2.924-0.212-4.375
	c-0.006-0.088-0.01-0.178-0.015-0.267c-0.67-10.871-2.231-21.383-4.42-31.422c18.073-26.327,40.681-45.553,55.575-56.55
	c4.882,25.535,9.925,73.331-7.622,118.209C346.337,214.029,312.335,244.977,291.155,261.041z"/>
<path d="M256.001,154.801c-0.913,0-1.839-0.098-2.738-0.281s-1.783-0.448-2.626-0.799c-0.857-0.351-1.671-0.788-2.429-1.292
	c-0.772-0.52-1.488-1.095-2.134-1.741c-0.646-0.66-1.236-1.376-1.741-2.136c-0.506-0.772-0.941-1.587-1.292-2.428
	c-0.351-0.844-0.618-1.727-0.8-2.626c-0.183-0.913-0.281-1.825-0.281-2.738c0-3.707,1.503-7.33,4.114-9.942
	c0.646-0.646,1.362-1.222,2.134-1.741c0.758-0.504,1.573-0.941,2.429-1.292c0.843-0.351,1.727-0.616,2.626-0.799
	c4.564-0.913,9.408,0.576,12.666,3.832c2.612,2.612,4.116,6.235,4.116,9.942c0,0.913-0.098,1.825-0.281,2.738
	c-0.168,0.899-0.449,1.783-0.8,2.626c-0.351,0.843-0.786,1.657-1.292,2.428c-0.504,0.758-1.094,1.476-1.741,2.136
	C263.317,153.299,259.694,154.801,256.001,154.801z"/>
<g>
</g>
<g>
</g>
<g>
</g>
<g>
</g>
<g>
</g>
<g>
</g>
<g>
</g>
<g>
</g>
<g>
</g>
<g>
</g>
<g>
</g>
<g>
</g>
<g>
</g>
<g>
</g>
<g>
</g>
</svg>
