<?xml version="1.0" encoding="iso-8859-1"?>
<!-- Generator: Adobe Illustrator 19.0.0, SVG Export Plug-In . SVG Version: 6.00 Build 0)  -->
<svg version="1.1" id="Capa_1" xmlns="http://www.w3.org/2000/svg" xmlns:xlink="http://www.w3.org/1999/xlink" x="0px" y="0px"
	 viewBox="0 0 512 512" style="enable-background:new 0 0 512 512;" xml:space="preserve">
<path style="fill:#80AD1F;" d="M162.411,0c-6.606,0-11.962,5.354-11.962,11.962c0,10.268,0,84.183,0,95.248
	c8.552,0,15.245,0,23.924,0c0-11.704,0-84.745,0-95.248C174.373,5.356,169.019,0,162.411,0z"/>
<path style="fill:#9AD14B;" d="M130.741,106.183l23.453,1.027c-2.712-59.25-30.085-93.255-31.31-94.697
	c-4.277-5.037-11.843-5.673-16.879-1.398c-5.036,4.276-5.67,11.804-1.394,16.839C115.142,40.642,128.93,71.813,130.741,106.183z"/>
<path style="fill:#80AD1F;" d="M381.382,9.551C380.266,4.1,375.442,0,369.662,0l0,0l0,0c-6.607,0-11.962,5.355-11.962,11.962
	c0,10.268,0,84.183,0,95.248c8.552,0,15.245,0,23.924,0c0-11.704,0-84.745,0-95.248C381.624,11.136,381.54,10.33,381.382,9.551z"/>
<path style="fill:#9AD14B;" d="M337.992,106.183l23.453,1.027c-2.712-59.25-30.086-93.255-31.31-94.697
	c-4.277-5.037-11.843-5.673-16.879-1.398c-5.036,4.276-5.67,11.804-1.394,16.839C322.393,40.642,336.181,71.813,337.992,106.183z"/>
<g>
	<path style="fill:#F2D59F;" d="M449.115,274.243c10.996-13.592,16.797-33.364,13.256-51.238
		c-5.147-26.189-27.709-45.484-53.022-55.55l-0.001-0.001c0,0-27.723-13.088-27.723-35.68c0-10.589,0-16.627,0-25.591h-43.632
		c0,8.946,0,14.983,0,25.591c0,22.592-27.715,35.677-27.715,35.677l-0.009,0.005c-28.788,11.448-54.086,35.285-54.086,66.386
		c0,13.998,5.225,29.159,14.32,40.401L449.115,274.243L449.115,274.243z"/>
	<path style="fill:#F2D59F;" d="M241.863,274.243c9.095-11.242,14.32-26.403,14.32-40.401c0-30.982-24.857-54.763-54.086-66.386
		l-0.001-0.001c0,0-27.723-13.088-27.723-35.68c0-10.589,0-16.627,0-25.591h-43.632c0,8.946,0,14.983,0,25.591
		c0,22.592-27.715,35.677-27.715,35.677l-0.009,0.005c-29.043,11.549-54.086,35.262-54.086,66.386
		c0,13.998,5.225,29.159,14.32,40.401h178.612V274.243z"/>
</g>
<g>
	<path style="fill:#EDBF77;" d="M130.808,174.645l0.001-0.001c0,0,22.507-13.088,22.507-35.68v-32.781h-22.575
		c0,8.946,0,14.983,0,25.591c0,22.592-27.715,35.677-27.715,35.677l-0.009,0.005c-28.972,11.521-54.086,35.209-54.086,66.386
		c0,13.998,5.225,29.159,14.32,40.401h42.276C73.482,239.949,90.259,194.507,130.808,174.645z"/>
	<path style="fill:#EDBF77;" d="M300.155,212.946c7.607-17.051,21.535-30.283,37.904-38.301l0.001-0.001
		c0,0,22.507-13.088,22.507-35.68v-32.781h-22.575c0,8.946,0,14.983,0,25.591c0,22.592-27.715,35.677-27.715,35.677l-0.009,0.005
		c-28.714,11.418-54.086,35.233-54.086,66.386c0,13.998,5.225,29.159,14.32,40.401h42.276
		C295.268,255.505,292.108,231.022,300.155,212.946z"/>
</g>
<path style="fill:#80AD1F;" d="M266.036,0c-5.78,0-10.604,4.1-11.719,9.551c-0.304,1.488-0.243,97.547-0.243,97.659
	c4.78,0,15.581,0,23.924,0c0-11.704,0-84.745,0-95.248C277.998,5.356,272.645,0,266.036,0z"/>
<path style="fill:#9AD14B;" d="M234.367,106.183l23.453,1.027c-2.712-59.25-30.086-93.255-31.31-94.697
	c-4.277-5.037-11.843-5.673-16.879-1.398c-5.036,4.276-5.67,11.804-1.394,16.839C218.768,40.642,232.555,71.813,234.367,106.183z"/>
<path style="fill:#F7E0BA;" d="M345.488,274.243c10.827-13.383,16.711-32.937,13.347-50.777
	c-4.896-26.3-28.026-46.035-53.113-56.011l-0.001-0.001c-0.008-0.003-27.723-13.088-27.723-35.68c0-10.589,0-16.627,0-25.591
	h-43.632c0,8.946,0,14.983,0,25.591c0,22.592-27.715,35.677-27.723,35.68l-0.001,0.001c-28.979,11.524-54.086,35.461-54.086,66.386
	c0,13.998,5.225,29.159,14.32,40.401h178.612V274.243z"/>
<path style="fill:#EDBF77;" d="M234.434,174.645l0.001-0.001c0.007-0.004,22.507-13.088,22.507-35.68v-32.781h-22.575
	c0,8.946,0,14.983,0,25.591c0,22.592-27.715,35.677-27.723,35.68l-0.001,0.001c-28.91,11.497-54.086,35.411-54.086,66.386
	c0,13.998,5.225,29.159,14.32,40.401h42.276C179.612,242.629,189.865,196.476,234.434,174.645z"/>
<g>
	<path style="fill:#93482B;" d="M498.911,346.647c-34.692,0-463.864,0-485.823,0c-6.779,0-12.326,5.547-12.326,12.326v49.806
		c0,6.779,5.547,12.326,12.326,12.326h13.6h6.163c19.978,0,443.257,0,466.06,0c6.779,0,12.326-5.547,12.326-12.326v-49.806
		C511.237,352.194,505.691,346.647,498.911,346.647z"/>
	<path style="fill:#93482B;" d="M498.911,421.106h-13.6c-21.807,0-429.793,0-452.46,0c-3.91,0-15.874,0-19.763,0
		c-6.779,0-12.326,5.547-12.326,12.326v49.807c0,6.779,5.547,12.326,12.326,12.326h13.6c58.535,0,413.672,0,472.223,0
		c6.779,0,12.326-5.547,12.326-12.326v-49.807C511.237,426.653,505.691,421.106,498.911,421.106z"/>
</g>
<g>
	<path style="fill:#843A24;" d="M498.911,458.336h-13.6h-6.163c-19.757,0-438.373,0-466.06,0c-6.779,0-12.326-5.547-12.326-12.326
		v37.229c0,6.779,5.547,12.326,12.326,12.326h13.6c58.535,0,413.672,0,472.223,0c6.779,0,12.326-5.547,12.326-12.326V446.01
		C511.237,452.789,505.691,458.336,498.911,458.336z"/>
	<path style="fill:#843A24;" d="M498.911,383.877c-6.541,0-476.259,0-485.823,0c-6.779,0-12.326-5.547-12.326-12.326v37.229
		c0,6.779,5.547,12.326,12.326,12.326h13.6h6.163c19.978,0,443.257,0,466.06,0c6.779,0,12.326-5.547,12.326-12.326v-37.229
		C511.237,378.33,505.691,383.877,498.911,383.877z"/>
</g>
<path style="fill:#93482B;" d="M498.911,272.189c-6.541,0-476.259,0-485.823,0c-6.779,0-12.326,5.547-12.326,12.326v49.807
	c0,6.779,5.547,12.326,12.326,12.326c12.544,0,473.37,0,485.823,0c6.779,0,12.326-5.547,12.326-12.326v-49.807
	C511.237,277.735,505.691,272.189,498.911,272.189z"/>
<path style="fill:#843A24;" d="M498.911,309.418c-23.742,0-466.553,0-485.823,0c-6.779,0-12.326-5.547-12.326-12.326v37.229
	c0,6.779,5.547,12.326,12.326,12.326c12.544,0,473.37,0,485.823,0c6.779,0,12.326-5.547,12.326-12.326v-37.229
	C511.237,303.871,505.691,309.418,498.911,309.418z"/>
<g>
	<path style="fill:#AA563C;" d="M94.984,255.237H45.178c-6.779,0-12.326,5.547-12.326,12.326v232.111
		c0,6.779,5.547,12.326,12.326,12.326h49.807c6.779,0,12.326-5.547,12.326-12.326V267.563
		C107.31,260.784,101.763,255.237,94.984,255.237z"/>
	<path style="fill:#AA563C;" d="M466.822,255.237h-49.807c-6.779,0-12.326,5.547-12.326,12.326v232.111
		c0,6.779,5.547,12.326,12.326,12.326h49.807c6.779,0,12.326-5.547,12.326-12.326V267.563
		C479.149,260.784,473.602,255.237,466.822,255.237z"/>
</g>
<g>
	<path style="fill:#9E4C36;" d="M69.528,499.674V267.563c0-6.779,5.547-12.326,12.326-12.326H45.178
		c-6.779,0-12.326,5.547-12.326,12.326v232.111c0,6.779,5.547,12.326,12.326,12.326h36.677
		C75.075,512,69.528,506.453,69.528,499.674z"/>
	<path style="fill:#9E4C36;" d="M441.366,499.674V267.563c0-6.779,5.547-12.326,12.326-12.326h-36.677
		c-6.779,0-12.326,5.547-12.326,12.326v232.111c0,6.779,5.547,12.326,12.326,12.326h36.677
		C446.913,512,441.366,506.453,441.366,499.674z"/>
</g>
<g>
	<circle style="fill:#DDDDDD;" cx="70.08" cy="309.42" r="9.758"/>
	<circle style="fill:#DDDDDD;" cx="70.08" cy="458.34" r="9.758"/>
	<circle style="fill:#DDDDDD;" cx="442.421" cy="309.42" r="9.758"/>
	<circle style="fill:#DDDDDD;" cx="442.421" cy="458.34" r="9.758"/>
</g>
<g>
</g>
<g>
</g>
<g>
</g>
<g>
</g>
<g>
</g>
<g>
</g>
<g>
</g>
<g>
</g>
<g>
</g>
<g>
</g>
<g>
</g>
<g>
</g>
<g>
</g>
<g>
</g>
<g>
</g>
</svg>
