<?xml version="1.0" encoding="iso-8859-1"?>
<!-- Generator: Adobe Illustrator 19.0.0, SVG Export Plug-In . SVG Version: 6.00 Build 0)  -->
<svg version="1.1" id="Layer_1" xmlns="http://www.w3.org/2000/svg" xmlns:xlink="http://www.w3.org/1999/xlink" x="0px" y="0px"
	 viewBox="0 0 512 512" style="enable-background:new 0 0 512 512;" xml:space="preserve">
<path style="fill:#FFD41D;" d="M367.456,458.909c-16.591,19.366-34.98,21.803-54.334,11.704l-0.483-0.334
	C298.446,495.958,278.319,512,256,512c-20.187,0-38.575-13.116-52.403-34.63c-1.436-2.215-2.811-4.528-4.14-6.921
	c-0.357-0.643-0.578,0.164-0.578,0.164c-19.342,10.099-37.731,7.662-54.334-11.704C27.384,322.092,58.502,180.629,80.474,136.696
	c8.579-17.158,20.778-24.82,32.458-27.788c2.57-5.249,23.77-45.779,66.026-46.599l24.024-10.703l3.885-1.738l19.342-8.627
	c8.736-3.958,18.437-6.154,28.657-6.154c23.867,0,44.922,12.03,57.447,30.334l-0.181,0.072c7.614-2.208,14.721-3.173,21.321-3.173
	c20.223,0,35.704,9.074,46.72,19.258c6.202,5.731,10.98,11.813,14.407,16.82c4.356,6.395,6.479,11.065,6.479,11.065
	c11.065,3.318,22.383,11.053,30.467,27.233C453.499,180.629,484.63,322.092,367.456,458.909z"/>
<g>
	<path style="fill:#EFC71D;" d="M380.169,81.576c-76.21-15.42-97.482,49.254-97.482,49.254l-28.959,9.653l-50.75-88.879l3.885-1.738
		l19.342-8.627c8.736-3.958,18.437-6.154,28.657-6.154c23.867,0,44.922,12.03,57.447,30.334l-0.181,0.072
		c7.614-2.208,14.721-3.173,21.321-3.173C353.672,62.318,369.151,71.392,380.169,81.576z"/>
	<path style="fill:#EFC71D;" d="M164.438,178.29c22.87-3.31,38.084,3.961,48.172,14.361c0,0-9.13-20.941-22.438-32.447
		l60.588-42.453L219.99,56.226l-13.128-6.359l-27.909,12.44c-42.256,0.82-63.456,41.351-66.026,46.599
		c-11.68,2.968-23.879,10.63-32.458,27.788c-21.972,43.933-53.091,185.396,64.071,322.213
		c16.603,19.366,34.992,21.803,54.334,11.704l0.578-0.164c1.327,2.393,2.704,4.706,4.14,6.921
		c-16.905-32.373-71.602-168.346-73.14-219.402C129.298,219.6,135.822,182.431,164.438,178.29z"/>
</g>
<path style="fill:#2FCC6E;" d="M313.949,206.146c-13.586-16.687-34.304-27.354-57.519-27.354c-8.458,0-16.591,1.412-24.156,4.03
	c-8.048,2.763-15.469,6.89-21.984,12.078c-4.839-36.717-46.056-45.393-46.056-45.393s53.091,0,43.933-32.953
	c-15.331-67.707-60.07-72.128-85.714-68.615c-9.864,1.351-18.634-6.35-18.634-16.306V17c0-8.446,6.388-15.557,14.795-16.373
	c3.169-0.308,6.767-0.539,10.712-0.607c33.93-0.591,93.657,10.956,128.275,90.894c9.146,21.972,65.905,32.965,65.905,32.965
	S277.497,140.012,313.949,206.146z"/>
<path style="fill:#23B75F;" d="M232.273,182.822c-8.048,2.763-15.469,6.89-21.984,12.078c-4.839-36.717-46.056-45.393-46.056-45.393
	s53.091,0,43.933-32.953c-15.331-67.707-60.07-72.128-85.714-68.615c-9.864,1.351-18.634-6.35-18.634-16.306V17
	c0-8.446,6.388-15.557,14.795-16.373c3.169-0.308,6.767-0.539,10.712-0.607l0.121,0.326c0,0-12.295,14.95,42.231,27.921
	S254.246,135.885,232.273,182.822z"/>
<g>
	<path style="fill:#EFC71D;" d="M322.428,219.097c-4.887-5.193-9.793-9.816-15.056-13.743c-5.236-3.935-10.699-7.249-16.377-9.846
		c-11.326-5.243-23.353-7.796-35.43-7.626c-12.073,0.129-24.033,3.017-35.208,8.577c-5.606,2.751-10.977,6.214-16.105,10.286
		c-5.156,4.066-9.934,8.819-14.687,14.138c2.49-14.092,11.209-27.185,23.108-36.425c11.913-9.302,27.279-14.563,42.651-14.671
		c15.361-0.236,30.843,4.59,43,13.562C310.461,192.261,319.529,205.093,322.428,219.097z"/>
	<path style="fill:#EFC71D;" d="M401.06,109.463c0,0-18.763-5.176-29.224,5.285c0,0,2.823-14.154,22.745-16.35
		C398.936,104.793,401.06,109.463,401.06,109.463z"/>
</g>
<g>
</g>
<g>
</g>
<g>
</g>
<g>
</g>
<g>
</g>
<g>
</g>
<g>
</g>
<g>
</g>
<g>
</g>
<g>
</g>
<g>
</g>
<g>
</g>
<g>
</g>
<g>
</g>
<g>
</g>
</svg>
