<?xml version="1.0" encoding="iso-8859-1"?>
<!-- Generator: Adobe Illustrator 19.0.0, SVG Export Plug-In . SVG Version: 6.00 Build 0)  -->
<svg version="1.1" id="Capa_1" xmlns="http://www.w3.org/2000/svg" xmlns:xlink="http://www.w3.org/1999/xlink" x="0px" y="0px"
	 viewBox="0 0 512 512" style="enable-background:new 0 0 512 512;" xml:space="preserve">
<path style="fill:#93482B;" d="M438.707,455.333l45.704-136.587H261.136h-5.133h-5.133H27.594l45.705,136.587
	c0.103,0.27,12.193,31.899,47.967,31.899h134.737h134.735C426.513,487.232,438.603,455.603,438.707,455.333z"/>
<path style="fill:#843A24;" d="M97.171,318.746H27.594l45.705,136.587c0.103,0.27,12.193,31.899,47.967,31.899h10.599
	C86.248,441.871,74.488,375.086,97.171,318.746z"/>
<path style="fill:#AA563C;" d="M461.888,356.908l19.362-27.758l3.16-10.403h-15.463l-16.48,24.657l-16.48-24.657h-32.749
	l-16.48,24.657l-16.48-24.657H337.53l-16.48,24.657l-16.48-24.657h-32.746l-16.482,24.658l-16.481-24.658h-32.745l-16.481,24.658
	l-16.481-24.658h-32.746l-16.481,24.658l-16.481-24.658H74.697l-16.48,24.658l-16.481-24.658H27.594l4.395,14.064l16.809,24.098
	l-5.855,8.393l6.14,18.21l9.135-13.098l23.434,33.594l-17.297,24.798l6.139,18.209l20.578-29.501l23.434,33.595L94.398,479.94
	c4.162,2.55,9.03,4.676,14.682,5.962l14.846-21.285l15.776,22.616h34.158l15.775-22.616l15.775,22.616h34.158l15.774-22.616
	l15.775,22.616h34.159l15.775-22.616l15.775,22.616h34.158l15.775-22.616l15.008,21.517c5.72-1.165,10.663-3.178,14.901-5.648
	l-20.489-29.374l23.434-33.595l21.468,30.778l6.139-18.21l-18.187-26.073l23.434-33.596l10.025,14.372l6.139-18.21L461.888,356.908z
	 M353.904,322.281l23.434,34.628l-23.434,33.596l-23.434-33.596L353.904,322.281z M288.197,322.283l23.432,34.625l-23.433,33.596
	l-23.434-33.594L288.197,322.283z M222.488,322.284l23.434,34.626l-23.433,33.594l-23.433-33.596L222.488,322.284z M156.781,322.283
	l23.434,34.626l-23.434,33.596l-23.434-33.596L156.781,322.283z M67.638,356.909l23.434-34.627l23.434,34.627l-23.434,33.596
	L67.638,356.909z M100.493,404.009l23.434-33.594l23.434,33.595l-23.434,33.595L100.493,404.009z M156.781,484.706l-23.433-33.595
	l23.433-33.595l23.434,33.595L156.781,484.706z M166.201,404.01l23.433-33.595l23.434,33.595l-23.434,33.595L166.201,404.01z
	 M222.489,484.706l-23.433-33.595l23.433-33.594l23.433,33.595L222.489,484.706z M231.909,404.01l23.434-33.595l23.433,33.595
	l-23.433,33.595L231.909,404.01z M288.196,484.707l-23.434-33.595l23.434-33.596l23.434,33.596L288.196,484.707z M297.616,404.01
	l23.434-33.596l23.434,33.596l-23.434,33.595L297.616,404.01z M353.905,484.706l-23.433-33.594l23.433-33.595l23.434,33.594
	L353.905,484.706z M386.759,437.606l-23.434-33.595l23.434-33.596l23.433,33.596L386.759,437.606z M419.613,390.505l-23.434-33.596
	l23.434-34.627l23.434,34.626L419.613,390.505z"/>
<g>
	<path style="fill:#9E4C36;" d="M118.612,472.237c-3.365-4.333-6.506-8.847-9.405-13.527l-14.809,21.23
		c0.583,0.357,1.183,0.703,1.794,1.043c0.25,0.139,0.506,0.273,0.76,0.407c0.412,0.22,0.831,0.436,1.256,0.646
		c0.278,0.138,0.558,0.276,0.842,0.409c0.48,0.226,0.971,0.445,1.467,0.658c0.227,0.099,0.449,0.202,0.68,0.298
		c0.674,0.279,1.366,0.541,2.068,0.795c0.303,0.11,0.613,0.211,0.921,0.316c0.469,0.159,0.944,0.312,1.426,0.459
		c0.332,0.101,0.664,0.201,1.002,0.297c0.546,0.153,1.103,0.296,1.664,0.434c0.268,0.065,0.529,0.138,0.801,0.2h0.001
		L118.612,472.237z"/>
	<path style="fill:#9E4C36;" d="M48.798,356.909l-5.7,8.171l6.109,18.255l9.011-12.92l23.434,33.594l-17.251,24.732l6.108,18.253
		l20.564-29.48l0.43,0.616c-3.056-11.135-4.904-22.768-5.399-34.751l-18.465-26.471l23.434-34.627l3.102,4.584
		c0.929-2.74,1.923-5.451,2.998-8.12H74.697l-16.48,24.658l-16.481-24.658H27.594l4.993,14.923L48.798,356.909z"/>
</g>
<path style="fill:#F2D59F;" d="M49.557,287.696v-23.674c0-114.237,92.937-207.174,207.172-207.174s207.172,92.937,207.172,207.174
	v23.674c18.819,0,13.209,0,32.08,0v-23.674c0-131.925-107.328-239.255-239.253-239.255c-131.924,0-239.251,107.33-239.251,239.255
	v23.674H49.557z"/>
<path style="fill:#EDBF77;" d="M256.729,41.81c-123.373,0-223.744,100.373-223.744,223.747v22.14h16.572v-23.674
	c0-114.237,92.937-207.174,207.172-207.174s207.172,92.937,207.172,207.174v23.674c9.594,0,6.881,0,16.573,0v-22.14
	C480.475,142.183,380.104,41.81,256.729,41.81z"/>
<path style="fill:#F6B138;" d="M495.96,319.776H16.044c-8.859,0-16.04-7.181-16.04-16.04c0-8.861,7.181-16.04,16.04-16.04H495.96
	c8.859,0,16.04,7.179,16.04,16.04C512,312.595,504.819,319.776,495.96,319.776z"/>
<path style="fill:#F2902F;" d="M495.96,303.736H16.044c-5.934,0-11.103-3.23-13.877-8.02c-6.132,10.581,1.457,24.06,13.877,24.06
	H495.96c8.859,0,16.04-7.181,16.04-16.04c0-2.925-0.795-5.66-2.163-8.02C507.063,300.506,501.894,303.736,495.96,303.736z"/>
<path style="fill:#E83D3D;" d="M82.662,287.696L245.5,450.533c7.134,7.134,18.699,7.134,25.831,0L434.17,287.696H82.662z"/>
<path style="fill:#BC3535;" d="M177.005,287.696H82.662L245.5,450.533c7.134,7.134,18.699,7.134,25.831,0l17.513-17.512
	C225.091,415.024,178.166,356.931,177.005,287.696z"/>
<g>
</g>
<g>
</g>
<g>
</g>
<g>
</g>
<g>
</g>
<g>
</g>
<g>
</g>
<g>
</g>
<g>
</g>
<g>
</g>
<g>
</g>
<g>
</g>
<g>
</g>
<g>
</g>
<g>
</g>
</svg>
