<?xml version="1.0" encoding="iso-8859-1"?>
<!-- Generator: Adobe Illustrator 19.0.0, SVG Export Plug-In . SVG Version: 6.00 Build 0)  -->
<svg version="1.1" id="Capa_1" xmlns="http://www.w3.org/2000/svg" xmlns:xlink="http://www.w3.org/1999/xlink" x="0px" y="0px"
	 viewBox="0 0 512 512" style="enable-background:new 0 0 512 512;" xml:space="preserve">
<path style="fill:#596675;" d="M440.791,184.673h-42.085V135.42c0-35.278-28.701-63.979-63.98-63.979H177.274
	c-35.279,0-63.98,28.701-63.98,63.979v49.253H71.209V135.42c0-58.484,47.581-106.065,106.066-106.065h157.451
	c58.485,0,106.066,47.58,106.066,106.065v49.253H440.791z"/>
<rect x="71.21" y="161.29" style="opacity:0.1;enable-background:new    ;" width="42.09" height="23.382"/>
<rect x="398.71" y="161.29" style="opacity:0.1;enable-background:new    ;" width="42.09" height="23.382"/>
<path style="fill:#C27C59;" d="M474.741,254.935H37.259v62.008c0,97.337,78.907,176.244,176.245,176.244h84.992
	c97.337,0,176.245-78.907,176.245-176.244V254.935z"/>
<path style="opacity:0.1;enable-background:new    ;" d="M474.741,254.935H37.259v62.008c0,97.337,78.907,176.244,176.245,176.244
	h84.992c97.337,0,176.245-78.907,176.245-176.244V254.935z"/>
<path style="opacity:0.1;enable-background:new    ;" d="M474.741,254.935H37.259v62.008c0,97.337,78.907,176.245,176.244,176.245
	h3.836c-64.593-34.548-98.419-140.618-103.542-179.782H474.74v-58.471H474.741z"/>
<path style="opacity:0.1;enable-background:new    ;" d="M474.741,267.759l-113.81,113.81l-94.324-94.323l18.86-18.86
	c2.929-2.929,2.929-7.678,0-10.606c-2.93-2.929-7.678-2.929-10.607,0L256,276.639l-18.859-18.859c-2.93-2.929-7.678-2.929-10.607,0
	c-2.929,2.929-2.929,7.678,0,10.606l18.86,18.86l-94.324,94.323L37.26,267.758v21.214l103.203,103.203L89.989,442.65
	c3.571,3.509,7.285,6.873,11.144,10.07l49.936-49.937l90.405,90.405h29.051l90.405-90.405l49.937,49.936
	c3.859-3.197,7.573-6.561,11.144-10.07l-50.474-50.473L474.74,288.973L474.741,267.759L474.741,267.759z M256,486.499
	l-94.324-94.323L256,297.853l94.324,94.323L256,486.499z"/>
<path style="fill:#C27C59;" d="M481.412,283.749H30.588C13.695,283.749,0,270.053,0,253.161v-37.9
	c0-16.893,13.695-30.588,30.588-30.588h450.824c16.893,0,30.588,13.695,30.588,30.588v37.9
	C512,270.053,498.305,283.749,481.412,283.749z"/>
<path style="fill:#FF6E6E;" d="M96.004,184.673l145.821,145.821c7.828,7.828,20.52,7.828,28.349,0l145.821-145.821L96.004,184.673
	L96.004,184.673z"/>
<path style="fill:#FFFFFF;" d="M256,184.673l-79.998,79.998l65.823,65.823c7.828,7.828,20.52,7.828,28.349,0l65.823-65.823
	L256,184.673z"/>
<path style="fill:#FFB655;" d="M315.523,18.813H196.477c-5.315,0-9.624,4.309-9.624,9.624v43.922c0,5.315,4.309,9.624,9.624,9.624
	h119.047c5.315,0,9.624-4.309,9.624-9.624V28.437C325.147,23.121,320.839,18.813,315.523,18.813z"/>
<path style="opacity:0.1;enable-background:new    ;" d="M239.881,18.813h-43.405c-5.315,0-9.624,4.309-9.624,9.624v43.922
	c0,5.315,4.309,9.624,9.624,9.624h56.501C231.123,68.807,232.737,33.451,239.881,18.813z"/>
<g>
</g>
<g>
</g>
<g>
</g>
<g>
</g>
<g>
</g>
<g>
</g>
<g>
</g>
<g>
</g>
<g>
</g>
<g>
</g>
<g>
</g>
<g>
</g>
<g>
</g>
<g>
</g>
<g>
</g>
</svg>
