<?xml version="1.0" encoding="iso-8859-1"?>
<!-- Generator: Adobe Illustrator 19.0.0, SVG Export Plug-In . SVG Version: 6.00 Build 0)  -->
<svg version="1.1" id="Capa_1" xmlns="http://www.w3.org/2000/svg" xmlns:xlink="http://www.w3.org/1999/xlink" x="0px" y="0px"
	 viewBox="0 0 512 512" style="enable-background:new 0 0 512 512;" xml:space="preserve">
<g>
	<circle style="fill:#F29C1F;" cx="322.207" cy="216.276" r="75.034"/>
	<path style="fill:#CBB292;" d="M114.759,211.862v-52.966c0.014-4.869,3.958-8.813,8.828-8.828h97.545v97.103H114.759V211.862"/>
	<path style="fill:#527F72;" d="M317.793,247.173v-44.723c-0.068-4.866-2.089-9.5-5.609-12.86
		c-22.136-21.87-29.701-92.486-29.701-92.486h-52.966c0,0-7.566,70.615-29.701,92.486c-3.52,3.36-5.542,7.994-5.609,12.86v44.723
		H317.793z"/>
	<path style="fill:#7F5B53;" d="M344.819,152.453c-2.568,0.003-5.011-1.112-6.69-3.055c-1.68-1.943-2.43-4.521-2.055-7.062
		c0.907-14.746,9.13-28.061,21.909-35.474c4.359-2.167,9.649-0.396,11.826,3.958c2.177,4.354,0.419,9.648-3.93,11.835
		c-7.357,5.091-11.921,13.321-12.341,22.259C352.899,149.239,349.191,152.444,344.819,152.453z"/>
	<g>
		<path style="fill:#AF8066;" d="M256,0C129.444,0,26.483,95.039,26.483,211.862v35.31h35.31v-35.31
			C61.793,114.513,148.914,35.31,256,35.31s194.207,79.203,194.207,176.552v35.31h35.31v-35.31C485.517,95.039,382.556,0,256,0z"/>
		<path style="fill:#AF8066;" d="M494.345,238.345v8.828l-39.194,235.343c-2.838,17.039-17.595,29.517-34.869,29.484H91.719
			c-17.274,0.033-32.031-12.445-34.869-29.484L17.655,247.173v-8.828H494.345z"/>
	</g>
	<path style="fill:#7F5B53;" d="M383.117,247.173h111.228c9.722-0.07,17.585-7.934,17.655-17.655
		c-0.029-9.739-7.916-17.627-17.655-17.655H17.655c-4.684-0.025-9.176,1.855-12.447,5.208c-3.353,3.27-5.233,7.763-5.208,12.447
		c0.029,9.739,7.916,17.627,17.655,17.655H383.117z"/>
	<polygon style="fill:#E6E7E8;" points="414.897,211.862 356.37,276.922 348.955,269.506 326.621,247.173 361.931,211.862 	"/>
	<g>
		<polygon style="fill:#CC4B4C;" points="361.931,211.862 326.621,247.173 295.724,216.276 300.138,211.862 		"/>
		<polygon style="fill:#CC4B4C;" points="356.37,276.922 318.764,318.764 318.676,318.764 286.897,286.897 326.621,247.173 
			348.955,269.506 		"/>
		<polygon style="fill:#CC4B4C;" points="295.724,216.276 291.311,211.862 300.138,211.862 		"/>
		<polygon style="fill:#CC4B4C;" points="216.276,216.276 185.38,247.173 150.069,211.862 211.862,211.862 		"/>
		<polygon style="fill:#CC4B4C;" points="216.276,216.276 211.862,211.862 220.69,211.862 		"/>
	</g>
	<polygon style="fill:#E6E7E8;" points="185.38,247.173 163.046,269.506 155.631,276.922 97.104,211.862 150.069,211.862 	"/>
	<polygon style="fill:#CC4B4C;" points="225.104,286.897 193.236,318.764 155.631,276.922 163.046,269.506 185.38,247.173 	"/>
	<polygon style="fill:#E6E7E8;" points="256,317.793 222.544,351.25 193.236,318.764 225.104,286.897 	"/>
	<path style="fill:#CC4B4C;" d="M289.457,351.25l-20.303,22.599c-3.366,3.71-8.143,5.826-13.153,5.826s-9.787-2.116-13.153-5.826
		l-20.303-22.599L256,317.793L289.457,351.25z"/>
	<polygon style="fill:#E6E7E8;" points="318.676,318.764 289.457,351.25 256,317.793 286.897,286.897 	"/>
	<g>
		<polygon style="fill:#CC4B4C;" points="295.724,216.276 256,256 216.276,216.276 220.69,211.862 291.311,211.862 		"/>
		
			<rect x="234.185" y="265.123" transform="matrix(-0.7071 0.7071 -0.7071 -0.7071 639.9962 308.847)" style="fill:#CC4B4C;" width="43.697" height="43.697"/>
	</g>
	<g>
		
			<rect x="263.255" y="229.769" transform="matrix(-0.7071 0.7071 -0.7071 -0.7071 675.276 223.5267)" style="fill:#E6E7E8;" width="56.179" height="43.697"/>
		
			<rect x="198.845" y="223.54" transform="matrix(-0.7071 0.7071 -0.7071 -0.7071 554.6759 273.5046)" style="fill:#E6E7E8;" width="43.697" height="56.179"/>
	</g>
	<g>
		<path style="fill:#7F5B53;" d="M167.28,360.862c-1.655-1.656-3.9-2.586-6.241-2.586c-2.341,0-4.586,0.93-6.241,2.586l-6.241,6.241
			l-12.487-12.487l6.241-6.241c2.23-2.23,3.101-5.48,2.284-8.526c-0.816-3.046-3.195-5.425-6.242-6.241
			c-3.046-0.816-6.296,0.055-8.526,2.285l-6.241,6.241l-6.241-6.241c-2.23-2.23-5.48-3.101-8.526-2.284
			c-3.046,0.816-5.425,3.195-6.241,6.241c-0.816,3.046,0.055,6.296,2.285,8.526l6.241,6.241l-12.487,12.487l-6.241-6.241
			c-2.23-2.23-5.48-3.101-8.526-2.285s-5.425,3.195-6.242,6.242c-0.816,3.046,0.055,6.296,2.285,8.526l6.241,6.241l-6.241,6.241
			c-3.447,3.447-3.447,9.036,0,12.483c3.447,3.447,9.036,3.447,12.483,0l6.241-6.241l12.487,12.487l-6.241,6.241
			c-2.23,2.23-3.101,5.48-2.285,8.526c0.816,3.046,3.195,5.425,6.241,6.242c3.046,0.816,6.296-0.055,8.526-2.285l6.241-6.241
			l6.241,6.241c2.23,2.23,5.48,3.101,8.526,2.284c3.046-0.816,5.425-3.195,6.241-6.241c0.816-3.046-0.055-6.296-2.285-8.526
			l-6.241-6.241l12.487-12.487l6.241,6.241c3.447,3.447,9.036,3.447,12.483,0c3.447-3.447,3.447-9.036,0-12.483l-6.241-6.241
			l6.241-6.241c1.656-1.655,2.586-3.9,2.586-6.241C169.867,364.763,168.936,362.517,167.28,360.862z M123.586,392.073
			l-12.487-12.487l12.487-12.487l12.487,12.487L123.586,392.073z"/>
		<path style="fill:#7F5B53;" d="M363.63,420.513c-1.655-1.656-3.9-2.586-6.241-2.586c-2.341,0-4.586,0.93-6.241,2.586l-6.241,6.241
			l-12.487-12.487l6.241-6.241c2.23-2.23,3.101-5.48,2.285-8.526c-0.816-3.046-3.195-5.425-6.241-6.241
			c-3.046-0.816-6.296,0.055-8.526,2.285l-6.241,6.241l-6.241-6.241c-3.447-3.447-9.036-3.447-12.483,0s-3.447,9.036,0,12.483
			l6.241,6.241l-12.487,12.487l-6.241-6.241c-3.447-3.447-9.036-3.447-12.483,0c-3.447,3.447-3.447,9.036,0,12.483l6.241,6.241
			l-6.241,6.241c-3.447,3.447-3.447,9.036-0.001,12.483c3.447,3.447,9.036,3.447,12.483,0.001l6.241-6.241l12.487,12.487
			l-6.241,6.241c-2.23,2.23-3.101,5.48-2.284,8.526c0.816,3.046,3.196,5.425,6.242,6.241c3.046,0.816,6.296-0.055,8.526-2.285
			l6.241-6.241l6.241,6.241c3.447,3.447,9.036,3.447,12.483,0.001c3.447-3.447,3.447-9.036,0.001-12.483l-6.241-6.241l12.487-12.487
			l6.241,6.241c3.447,3.447,9.036,3.447,12.483,0c3.447-3.447,3.447-9.036,0-12.483l-6.241-6.241l6.241-6.241
			c1.656-1.655,2.587-3.9,2.587-6.242S365.286,422.168,363.63,420.513z M319.936,451.724l-12.487-12.487l12.487-12.487
			l12.487,12.487L319.936,451.724z"/>
		<path style="fill:#7F5B53;" d="M441.38,342.134l6.241-6.241c3.422-3.451,3.41-9.019-0.026-12.456
			c-3.436-3.437-9.005-3.449-12.456-0.027l-6.241,6.241l-12.487-12.487l6.241-6.241c3.447-3.447,3.447-9.036,0-12.483
			c-3.447-3.447-9.036-3.447-12.483,0l-6.241,6.241l-6.241-6.241c-3.447-3.447-9.036-3.447-12.483,0
			c-3.447,3.447-3.447,9.036,0,12.483l6.241,6.241l-12.487,12.487l-6.241-6.241c-2.23-2.23-5.48-3.101-8.526-2.285
			s-5.425,3.195-6.241,6.241c-0.816,3.046,0.055,6.296,2.285,8.526l6.241,6.241l-6.241,6.241c-2.23,2.23-3.101,5.48-2.285,8.526
			c0.816,3.046,3.195,5.425,6.241,6.241s6.296-0.055,8.526-2.285l6.241-6.241l12.487,12.487l-6.241,6.241
			c-2.253,2.225-3.142,5.486-2.329,8.547c0.813,3.061,3.203,5.451,6.264,6.264c3.06,0.813,6.322-0.075,8.547-2.328l6.241-6.241
			l6.241,6.241c2.23,2.23,5.48,3.101,8.526,2.285c3.046-0.816,5.425-3.195,6.242-6.241c0.816-3.046-0.054-6.296-2.284-8.526
			l-6.241-6.241l12.487-12.487l6.241,6.241c3.447,3.447,9.036,3.447,12.483,0c3.447-3.447,3.447-9.036,0-12.483L441.38,342.134z
			 M403.927,354.621l-12.487-12.487l12.487-12.487l12.487,12.487L403.927,354.621z"/>
	</g>
	<path style="fill:#46B29D;" d="M229.517,79.448h52.966c4.875,0,8.828,3.952,8.828,8.828v17.655c0,4.875-3.952,8.828-8.828,8.828
		h-52.966c-4.875,0-8.828-3.952-8.828-8.828V88.276C220.69,83.401,224.642,79.448,229.517,79.448z"/>
</g>
<g>
</g>
<g>
</g>
<g>
</g>
<g>
</g>
<g>
</g>
<g>
</g>
<g>
</g>
<g>
</g>
<g>
</g>
<g>
</g>
<g>
</g>
<g>
</g>
<g>
</g>
<g>
</g>
<g>
</g>
</svg>
