<?xml version="1.0" encoding="iso-8859-1"?>
<!-- Generator: Adobe Illustrator 19.0.0, SVG Export Plug-In . SVG Version: 6.00 Build 0)  -->
<svg version="1.1" id="Capa_1" xmlns="http://www.w3.org/2000/svg" xmlns:xlink="http://www.w3.org/1999/xlink" x="0px" y="0px"
	 viewBox="0 0 512 512" style="enable-background:new 0 0 512 512;" xml:space="preserve">
<path style="fill:#E6646E;" d="M488.468,227.949H23.532c-8.854,0-16.032-7.178-16.032-16.032l0,0
	c0-8.854,7.178-16.032,16.032-16.032h464.935c8.854,0,16.032,7.178,16.032,16.032l0,0
	C504.5,220.771,497.322,227.949,488.468,227.949z"/>
<g>
	<path style="fill:#FFD164;" d="M147.501,221.866L147.501,221.866c-7.86-4.076-10.927-13.753-6.851-21.613l85.082-164.052
		c4.076-7.86,13.753-10.927,21.613-6.851l0,0c7.86,4.076,10.927,13.753,6.851,21.613l-85.082,164.052
		C165.038,222.875,155.361,225.942,147.501,221.866z"/>
	<path style="fill:#FFD164;" d="M264.655,29.349L264.655,29.349c-7.86,4.077-10.927,13.753-6.851,21.613l85.082,164.052
		c4.077,7.86,13.753,10.927,21.613,6.851l0,0c7.86-4.076,10.927-13.753,6.851-21.613L286.268,36.2
		C282.191,28.34,272.515,25.272,264.655,29.349z"/>
</g>
<path style="fill:#EDEBED;" d="M54.289,261.491l36.073,192.387c0.711,3.791,4.021,6.539,7.879,6.539h315.52
	c3.857,0,7.168-2.747,7.879-6.539l36.073-192.387c0.925-4.933-2.86-9.493-7.879-9.493H62.167
	C57.148,251.997,53.364,256.557,54.289,261.491z"/>
<path d="M512,211.916c0-12.976-10.557-23.532-23.532-23.532H373.643L292.925,32.747c-2.894-5.58-7.787-9.699-13.779-11.599
	c-5.993-1.9-12.365-1.352-17.945,1.542l0,0c-1.94,1.006-3.676,2.25-5.201,3.673c-1.526-1.422-3.262-2.667-5.202-3.673
	c-5.579-2.894-11.953-3.441-17.945-1.542s-10.885,6.019-13.779,11.599l-85.082,164.052c-2.894,5.58-3.442,11.953-1.542,17.945
	c0.648,2.045,1.574,3.951,2.71,5.704H23.532c-4.705,0-8.532-3.827-8.532-8.532c0-4.704,3.828-8.532,8.532-8.532h85.505
	c4.142,0,7.5-3.357,7.5-7.5c0-4.142-3.358-7.5-7.5-7.5H23.532C10.557,188.384,0,198.941,0,211.916
	c0,10.761,7.262,19.851,17.141,22.643l43.439,231.67c2.795,14.912,15.836,25.735,31.008,25.735h328.825
	c15.172,0,28.212-10.823,31.008-25.735l43.439-231.671C504.738,231.767,512,222.677,512,211.916z M465.71,308.626h-89.757
	l7.097-73.178h96.381L465.71,308.626z M449.177,396.804h-81.776l7.097-73.177h88.4L449.177,396.804z M263.5,476.965v-65.162h87.376
	l-6.319,65.162H263.5z M167.443,476.965l-6.319-65.162H248.5v65.162H167.443z M49.103,323.626h88.4l7.097,73.177H62.823
	L49.103,323.626z M128.951,235.449l7.097,73.178H46.29l-13.721-73.178H128.951z M248.5,235.449v73.178h-97.382l-7.097-73.178H248.5z
	 M367.979,235.449l-7.097,73.178H263.5v-73.178H367.979z M152.572,323.626H248.5v73.177h-88.831L152.572,323.626z M263.5,396.804
	v-73.177h95.928l-7.097,73.177H263.5z M268.107,36.007c2.023-1.049,4.334-1.248,6.506-0.559c2.172,0.688,3.947,2.182,4.996,4.205
	l85.082,164.053c1.049,2.023,1.248,4.334,0.559,6.506c-0.688,2.173-2.182,3.947-4.206,4.996c-2.022,1.05-4.333,1.248-6.506,0.56
	s-3.947-2.182-4.996-4.205L264.461,47.509C262.295,43.333,263.931,38.173,268.107,36.007z M147.308,203.705l85.083-164.053
	c1.049-2.023,2.823-3.517,4.996-4.205c0.85-0.27,1.721-0.403,2.588-0.403c1.349,0,2.687,0.324,3.918,0.962
	c4.176,2.167,5.812,7.326,3.646,11.502l-85.083,164.053c-1.049,2.023-2.823,3.517-4.996,4.205c-2.171,0.688-4.482,0.49-6.506-0.56
	l0,0c-2.023-1.049-3.517-2.823-4.205-4.996C146.06,208.039,146.259,205.729,147.308,203.705z M175.772,218.468l7.823-15.083H297.75
	c4.142,0,7.5-3.357,7.5-7.5c0-4.142-3.358-7.5-7.5-7.5H191.374L256,63.775l80.228,154.692c0.354,0.684,0.74,1.344,1.153,1.981
	H174.619C175.032,219.811,175.418,219.151,175.772,218.468z M75.323,463.466l-9.687-51.663h80.418l6.32,65.162H91.587
	C83.629,476.965,76.789,471.288,75.323,463.466z M436.677,463.466c-1.466,7.822-8.307,13.499-16.265,13.499h-60.786l6.32-65.162
	h80.418L436.677,463.466z M488.468,220.449h-0.122c-0.005,0-0.009,0-0.014,0H376.84c1.136-1.753,2.061-3.659,2.71-5.704
	c1.183-3.733,1.416-7.615,0.724-11.36h108.194c4.705,0,8.532,3.828,8.532,8.532S493.172,220.449,488.468,220.449z"/>
<g>
</g>
<g>
</g>
<g>
</g>
<g>
</g>
<g>
</g>
<g>
</g>
<g>
</g>
<g>
</g>
<g>
</g>
<g>
</g>
<g>
</g>
<g>
</g>
<g>
</g>
<g>
</g>
<g>
</g>
</svg>
