<?xml version="1.0" encoding="iso-8859-1"?>
<!-- Generator: Adobe Illustrator 19.0.0, SVG Export Plug-In . SVG Version: 6.00 Build 0)  -->
<svg version="1.1" id="Capa_1" xmlns="http://www.w3.org/2000/svg" xmlns:xlink="http://www.w3.org/1999/xlink" x="0px" y="0px"
	 viewBox="0 0 511.919 511.919" style="enable-background:new 0 0 511.919 511.919;" xml:space="preserve">
<polygon style="fill:#DA4453;" points="475.925,215.967 4.002,215.967 27.998,199.969 499.921,199.969 "/>
<polygon style="fill:#FFCE54;" points="465.677,215.967 445.055,215.967 468.27,151.977 507.92,151.977 "/>
<polygon style="fill:#48CFAD;" points="445.055,215.967 359.693,215.967 416.575,60.07 491.689,87.429 "/>
<g style="opacity:0.2;">
	<polygon points="468.27,151.977 445.055,215.967 453.054,215.967 476.269,151.977 	"/>
</g>
<g style="opacity:0.2;">
	<polygon points="416.575,60.07 415.638,62.64 483.689,87.429 437.056,215.967 445.055,215.967 491.689,87.429 	"/>
</g>
<g style="opacity:0.3;">
	<polygon style="fill:#FFFFFF;" points="416.575,60.07 359.693,215.967 367.692,215.967 423.636,62.64 	"/>
</g>
<polygon style="fill:#E6E9ED;" points="427.933,215.967 376.94,215.967 410.576,123.423 455.607,139.819 "/>
<g style="opacity:0.2;">
	<polygon points="410.576,123.423 409.639,125.997 447.609,139.819 419.934,215.967 427.933,215.967 455.607,139.819 	"/>
</g>
<polygon style="fill:#FFFFFF;" points="410.576,123.423 376.94,215.967 384.939,215.967 417.638,125.997 "/>
<rect x="315.95" y="159.979" style="fill:#CCD1D9;" width="15.998" height="15.997"/>
<path style="fill:#5D9CEC;" d="M323.949,175.973c-13.248,0-23.996,10.745-23.996,23.996v15.998h6.233h35.525h6.233v-15.998
	C347.945,186.718,337.197,175.973,323.949,175.973z"/>
<rect x="67.99" y="111.989" style="fill:#E6E9ED;" width="79.987" height="15.997"/>
<polygon style="fill:#FC6E51;" points="67.991,127.981 147.978,127.981 163.976,151.977 83.989,151.977 "/>
<g style="opacity:0.2;">
	<polygon points="147.978,127.981 139.98,127.981 155.977,151.977 163.976,151.977 	"/>
</g>
<g style="opacity:0.2;">
	<polygon style="fill:#FFFFFF;" points="67.991,127.981 83.989,151.977 91.987,151.977 75.99,127.981 	"/>
</g>
<rect x="83.99" y="151.979" style="fill:#FC6E51;" width="79.987" height="59.99"/>
<polygon style="fill:#E9573F;" points="83.989,211.967 51.994,211.967 51.994,151.977 67.991,127.981 83.989,151.977 "/>
<circle style="fill:#FFCE54;" cx="124.02" cy="215.969" r="23.996"/>
<polygon style="fill:#DA4453;" points="481.713,236.104 459.927,239.963 411.935,471.925 435.931,455.928 "/>
<polygon style="fill:#ED5564;" points="411.935,471.925 67.991,471.925 19.999,239.963 459.927,239.963 "/>
<g style="opacity:0.2;">
	<polygon points="443.93,239.963 395.938,471.925 411.935,471.925 459.927,239.963 	"/>
</g>
<g style="opacity:0.3;">
	<polygon style="fill:#FFFFFF;" points="19.999,239.963 67.991,471.925 83.989,471.925 35.996,239.963 	"/>
</g>
<g style="opacity:0.2;">
	<polygon points="475.925,215.967 4.002,215.967 16,207.968 487.923,207.968 	"/>
</g>
<polygon style="fill:#DA4453;" points="499.921,223.965 475.925,239.963 475.925,215.967 499.921,199.969 "/>
<g style="opacity:0.2;">
	<polygon points="481.713,236.104 459.927,239.963 411.935,471.925 435.931,455.928 	"/>
</g>
<g style="opacity:0.2;">
	<polygon points="499.921,223.965 475.925,239.963 475.925,215.967 499.921,199.969 	"/>
</g>
<rect x="4" y="215.969" style="fill:#ED5564;" width="471.92" height="23.997"/>
<rect x="227.96" y="55.989" style="fill:#656D78;" width="23.996" height="171.97"/>
<polygon style="fill:#434A54;" points="275.957,39.996 251.961,39.996 227.965,55.993 251.961,55.993 "/>
<g>
	<polygon style="fill:#656D78;" points="251.961,55.993 275.957,39.996 275.957,199.969 251.961,199.969 	"/>
	<path style="fill:#656D78;" d="M347.945,299.953l-7.999,111.981c0,6.64-5.358,11.998-11.998,11.998
		c-6.639,0-11.998-5.358-11.998-11.998l7.999-111.981c0-6.64,5.358-11.998,11.998-11.998S347.945,293.313,347.945,299.953z"/>
</g>
<g style="opacity:0.2;">
	<path d="M323.949,411.935l7.999-111.981c0-5.226,3.343-9.616,7.998-11.265c-1.258-0.444-2.593-0.733-3.999-0.733
		c-6.64,0-11.998,5.358-11.998,11.998l-7.999,111.981c0,6.64,5.359,11.998,11.998,11.998c1.406,0,2.742-0.289,4-0.727
		C327.292,421.559,323.949,417.169,323.949,411.935z"/>
</g>
<polygon style="fill:#E6E9ED;" points="331.948,159.976 315.95,159.976 307.952,159.976 307.952,143.979 347.945,151.977 
	347.945,159.976 "/>
<path style="fill:#656D78;" d="M458.248,62.472c20.716,7.519,35.674,18.716,33.44,24.957c-2.25,6.237-20.888,5.116-41.682-2.402
	c-20.715-7.596-35.752-18.798-33.432-24.957C418.81,53.833,437.446,54.872,458.248,62.472z"/>
<g style="opacity:0.2;">
	<path d="M458.248,62.472c-13.693-5.003-26.348-7.101-34.104-6.21c7.304,0.625,16.428,2.675,26.105,6.21
		c20.716,7.519,35.674,18.716,33.44,24.957c-0.766,2.121-3.531,3.323-7.53,3.78c8.373,0.719,14.326-0.449,15.529-3.78
		C493.922,81.188,478.964,69.991,458.248,62.472z"/>
</g>
<g style="opacity:0.3;">
	<path style="fill:#FFFFFF;" d="M458.006,85.027c-20.716-7.596-35.752-18.798-33.433-24.957c0.766-2.128,3.547-3.347,7.569-3.808
		c-8.397-0.719-14.372,0.473-15.567,3.808c-2.32,6.159,12.717,17.361,33.432,24.957c13.732,4.964,26.402,7.069,34.151,6.183
		C476.847,90.581,467.699,88.531,458.006,85.027z"/>
</g>
<path style="fill:#656D78;" d="M251.961,299.953v111.981c0,6.64-5.358,11.998-11.998,11.998s-11.998-5.358-11.998-11.998V299.953
	c0-6.64,5.358-11.998,11.998-11.998S251.961,293.313,251.961,299.953z"/>
<g style="opacity:0.2;">
	<path d="M235.964,411.935V299.953c0-5.226,3.343-9.616,7.999-11.265c-1.257-0.444-2.589-0.733-3.999-0.733
		c-6.64,0-11.998,5.358-11.998,11.998v111.981c0,6.64,5.358,11.998,11.998,11.998c1.41,0,2.742-0.289,3.999-0.727
		C239.307,421.559,235.964,417.169,235.964,411.935z"/>
</g>
<path style="fill:#656D78;" d="M155.977,299.953l7.999,111.981c0,6.64-5.359,11.998-11.998,11.998
	c-6.64,0-11.998-5.358-11.998-11.998l-7.999-111.981c0-6.64,5.358-11.998,11.998-11.998S155.977,293.313,155.977,299.953z"/>
<g style="opacity:0.2;">
	<path d="M147.978,411.935l-7.999-111.981c0-5.226,3.343-9.616,7.999-11.265c-1.258-0.444-2.589-0.733-3.999-0.733
		c-6.64,0-11.998,5.358-11.998,11.998l7.999,111.981c0,6.64,5.358,11.998,11.998,11.998c1.41,0,2.742-0.289,4-0.727
		C151.321,421.559,147.978,417.169,147.978,411.935z"/>
</g>
<g style="opacity:0.2;">
	<rect x="83.99" y="151.979" style="fill:#FFFFFF;" width="7.998" height="55.991"/>
</g>
<g style="opacity:0.2;">
	<rect x="155.98" y="151.979" width="7.999" height="55.991"/>
</g>
<rect x="67.99" y="111.989" style="fill:#FFFFFF;" width="7.999" height="15.997"/>
<g style="opacity:0.2;">
	<rect x="139.98" y="111.989" width="7.999" height="15.997"/>
</g>
<g style="opacity:0.2;">
	<path style="fill:#FFFFFF;" d="M307.952,207.968v-7.999c0-11.881,8.654-21.68,19.996-23.594c-1.312-0.219-2.624-0.402-3.999-0.402
		c-13.248,0-23.996,10.745-23.996,23.996v7.999L307.952,207.968L307.952,207.968z"/>
</g>
<g style="opacity:0.2;">
	<path d="M339.946,207.968v-7.999c0-11.881-8.654-21.68-19.996-23.594c1.312-0.219,2.624-0.402,3.999-0.402
		c13.248,0,23.996,10.745,23.996,23.996v7.999L339.946,207.968L339.946,207.968z"/>
</g>
<g style="opacity:0.3;">
	<rect x="4" y="215.969" style="fill:#FFFFFF;" width="15.997" height="23.997"/>
</g>
<g style="opacity:0.2;">
	<rect x="459.93" y="215.969" width="15.998" height="23.997"/>
</g>
<g style="opacity:0.3;">
	<rect x="227.96" y="55.989" style="fill:#FFFFFF;" width="7.999" height="171.97"/>
</g>
<g style="opacity:0.2;">
	<rect x="243.96" y="55.989" width="7.999" height="171.97"/>
</g>
<g style="opacity:0.2;">
	<polygon points="275.957,198.849 267.958,198.849 267.958,45.327 275.957,39.996 	"/>
</g>
<g style="opacity:0.2;">
	<polygon points="259.96,198.849 251.961,198.849 251.961,55.993 259.96,50.662 	"/>
</g>
<g style="opacity:0.2;">
	<polygon points="442.274,247.961 37.652,247.961 35.996,239.963 444.648,239.963 	"/>
</g>
<g>
	<path style="fill:#3A3847;" d="M480.564,95.471c-8.529,0-20.169-2.437-31.917-6.683c-18.027-6.608-31.893-15.755-35.354-23.309
		c-1.375-3-1.016-5.367-0.461-6.819c1.578-4.398,6.601-6.659,14.928-6.659c8.576,0,20.184,2.448,31.854,6.713
		c19.864,7.209,39.556,19.692,35.838,30.065C493.852,93.221,488.845,95.471,480.564,95.471z M427.761,60
		c-5.233,0-7.179,1.094-7.452,1.477c-0.125,2.746,10.687,12.318,31.073,19.798c10.889,3.937,21.543,6.198,29.183,6.198
		c5.179,0,7.108-1.078,7.39-1.453c0.156-2.191-9.076-11.803-31.073-19.786C446.047,62.273,435.432,60,427.761,60z"/>
	<path style="fill:#3A3847;" d="M455.615,143.818c-0.172,0-0.343-0.012-0.515-0.031c-7.53-0.976-15.92-3.125-24.246-6.218
		c-8.28-2.972-16.061-6.702-22.435-10.776c-1.858-1.191-2.405-3.663-1.219-5.522c1.188-1.867,3.672-2.413,5.53-1.218
		c5.875,3.757,13.092,7.213,20.872,10.002c7.694,2.858,15.677,4.913,22.512,5.796c2.195,0.285,3.742,2.289,3.461,4.479
		C459.318,142.35,457.592,143.818,455.615,143.818z"/>
	<path style="fill:#3A3847;" d="M365.622,203.969c-0.453,0-0.914-0.078-1.367-0.242c-2.077-0.754-3.147-3.051-2.39-5.125
		l50.952-139.899c0.758-2.074,3.055-3.144,5.125-2.39c2.077,0.754,3.147,3.05,2.39,5.124L369.38,201.336
		C368.786,202.961,367.255,203.969,365.622,203.969z"/>
	<path style="fill:#3A3847;" d="M450.726,203.969c-0.453,0-0.906-0.078-1.359-0.242c-2.077-0.754-3.155-3.047-2.39-5.125
		l40.946-112.544c0.758-2.066,3.055-3.132,5.132-2.386c2.07,0.753,3.148,3.05,2.383,5.128l-40.946,112.537
		C453.898,202.961,452.366,203.969,450.726,203.969z"/>
	<path style="fill:#3A3847;" d="M383.143,202.848c-0.453,0-0.921-0.078-1.374-0.242c-2.078-0.754-3.141-3.051-2.391-5.124
		l27.441-75.426c0.757-2.074,3.054-3.136,5.123-2.39c2.078,0.753,3.148,3.05,2.391,5.125l-27.44,75.425
		C386.307,201.84,384.768,202.848,383.143,202.848z"/>
	<path style="fill:#3A3847;" d="M433.697,203.969c-0.461,0-0.922-0.078-1.375-0.242c-2.077-0.754-3.14-3.051-2.39-5.128
		l21.918-60.15c0.75-2.078,3.062-3.136,5.124-2.386c2.078,0.754,3.147,3.05,2.391,5.128l-21.919,60.15
		C436.86,202.961,435.322,203.969,433.697,203.969z"/>
	<path style="fill:#3A3847;" d="M475.925,243.962H4.002c-2.211,0-4-1.789-4-3.999v-23.997c0-2.21,1.789-4,4-4h207.966
		c2.21,0,4,1.789,4,4s-1.789,4-4,4H8.001v15.997h463.925v-15.997H267.958c-2.21,0-3.999-1.789-3.999-4s1.789-4,3.999-4h207.967
		c2.211,0,3.999,1.789,3.999,4v23.997C479.924,242.173,478.136,243.962,475.925,243.962z"/>
	<path style="fill:#3A3847;" d="M411.935,475.925H67.991c-1.898,0-3.53-1.328-3.917-3.188L16.082,240.771
		c-0.445-2.159,0.945-4.276,3.108-4.726c2.137-0.46,4.277,0.941,4.726,3.109l47.333,228.771h337.429l47.328-228.771
		c0.453-2.168,2.562-3.569,4.733-3.109c2.156,0.449,3.547,2.566,3.109,4.726l-47.992,231.966
		C415.466,474.597,413.833,475.925,411.935,475.925z"/>
	<path style="fill:#3A3847;" d="M411.935,475.925c-1.288,0-2.562-0.625-3.327-1.781c-1.227-1.836-0.734-4.319,1.109-5.546
		l22.637-15.083l45.415-218.207c0.453-2.164,2.546-3.543,4.733-3.102c2.155,0.453,3.546,2.57,3.101,4.733l-45.75,219.808
		c-0.219,1.023-0.828,1.929-1.703,2.507l-23.996,15.998C413.466,475.706,412.7,475.925,411.935,475.925z"/>
	<path style="fill:#3A3847;" d="M239.963,427.933c-8.823,0-15.998-7.171-15.998-15.998V299.953c0-8.819,7.174-15.997,15.998-15.997
		c8.823,0,15.997,7.178,15.997,15.997v111.981C255.96,420.762,248.786,427.933,239.963,427.933z M239.963,291.954
		c-4.409,0-7.999,3.594-7.999,7.999v111.981c0,4.414,3.59,7.999,7.999,7.999s7.999-3.585,7.999-7.999V299.953
		C247.962,295.548,244.373,291.954,239.963,291.954z"/>
	<path style="fill:#3A3847;" d="M151.978,427.933c-8.823,0-15.998-7.171-15.998-15.998l-7.987-111.692
		c-0.011-9.108,7.163-16.286,15.986-16.286c8.822,0,15.997,7.178,15.997,15.997l7.987,111.7
		C167.975,420.762,160.8,427.933,151.978,427.933z M143.979,291.954c-4.41,0-7.999,3.594-7.999,7.999l7.987,111.7
		c0.012,4.695,3.601,8.28,8.01,8.28s7.999-3.585,7.999-7.999l-7.987-111.692C151.978,295.548,148.388,291.954,143.979,291.954z"/>
	<path style="fill:#3A3847;" d="M327.948,427.933c-8.826,0-15.997-7.171-15.997-15.998l8.015-112.263
		c-0.016-8.538,7.154-15.716,15.981-15.716s15.997,7.178,15.997,15.997l-8.014,112.271
		C343.946,420.762,336.775,427.933,327.948,427.933z M335.947,291.954c-4.405,0-7.999,3.594-7.999,7.999l-8.014,112.271
		c0.016,4.125,3.608,7.71,8.014,7.71s7.999-3.585,7.999-7.999l8.015-112.263C343.946,295.548,340.353,291.954,335.947,291.954z"/>
	<path style="fill:#3A3847;" d="M4.005,219.966c-1.293,0-2.562-0.625-3.332-1.781c-1.226-1.839-0.73-4.319,1.109-5.546
		l23.996-15.997c1.844-1.23,4.324-0.73,5.546,1.109c1.227,1.839,0.73,4.32-1.109,5.546L6.22,219.294
		C5.536,219.748,4.767,219.966,4.005,219.966z"/>
	<path style="fill:#3A3847;" d="M475.925,219.966c-1.289,0-2.562-0.625-3.328-1.781c-1.226-1.839-0.733-4.319,1.109-5.546
		l23.996-15.997c1.844-1.23,4.32-0.73,5.547,1.109c1.226,1.839,0.733,4.32-1.109,5.546l-23.996,15.997
		C477.456,219.748,476.69,219.966,475.925,219.966z"/>
	<path style="fill:#3A3847;" d="M475.925,243.962c-1.289,0-2.562-0.625-3.328-1.781c-1.226-1.84-0.726-4.319,1.109-5.546
		l23.996-15.997c1.844-1.227,4.32-0.727,5.547,1.109c1.226,1.835,0.733,4.319-1.109,5.546l-23.996,15.997
		C477.456,243.744,476.69,243.962,475.925,243.962z"/>
	<path style="fill:#3A3847;" d="M499.921,203.969h-7.999c-2.21,0-3.999-1.789-3.999-4c0-2.21,1.789-3.999,3.999-3.999h7.999
		c2.211,0,3.999,1.789,3.999,3.999C503.92,202.18,502.132,203.969,499.921,203.969z"/>
	<path style="fill:#3A3847;" d="M35.996,203.969h-7.999c-2.211,0-4-1.789-4-4c0-2.21,1.789-3.999,4-3.999h7.999
		c2.21,0,4,1.789,4,3.999C39.996,202.18,38.207,203.969,35.996,203.969z"/>
	<path style="fill:#3A3847;" d="M499.921,227.965c-2.211,0-3.999-1.789-3.999-4v-23.996c0-2.21,1.788-3.999,3.999-3.999
		s3.999,1.789,3.999,3.999v23.996C503.92,226.176,502.132,227.965,499.921,227.965z"/>
	<path style="fill:#3A3847;" d="M251.961,231.964c-2.211,0-4-1.789-4-3.999V59.992h-15.998v167.974c0,2.21-1.789,3.999-3.999,3.999
		c-2.211,0-4-1.789-4-3.999V55.993c0-2.211,1.789-3.999,4-3.999h23.996c2.21,0,3.999,1.788,3.999,3.999v171.973
		C255.96,230.175,254.172,231.964,251.961,231.964z"/>
	<path style="fill:#3A3847;" d="M275.957,187.971c-2.211,0-3.999-1.789-3.999-3.999V39.996c0-2.211,1.788-4,3.999-4
		c2.21,0,3.999,1.789,3.999,4v143.977C279.956,186.183,278.167,187.971,275.957,187.971z"/>
	<path style="fill:#3A3847;" d="M251.965,59.992c-1.293,0-2.562-0.625-3.332-1.78c-1.226-1.84-0.73-4.32,1.109-5.546l23.996-15.998
		c1.844-1.23,4.319-0.73,5.546,1.109s0.734,4.319-1.109,5.546L254.18,59.32C253.497,59.773,252.727,59.992,251.965,59.992z"/>
	<path style="fill:#3A3847;" d="M227.969,59.992c-1.293,0-2.562-0.625-3.332-1.78c-1.226-1.84-0.73-4.32,1.109-5.546l23.996-15.998
		c1.836-1.23,4.32-0.73,5.546,1.109c1.226,1.84,0.73,4.319-1.109,5.546l-23.996,15.998
		C229.501,59.773,228.731,59.992,227.969,59.992z"/>
	<path style="fill:#3A3847;" d="M283.956,203.969h-15.998c-2.21,0-3.999-1.789-3.999-4c0-2.21,1.789-3.999,3.999-3.999h15.998
		c2.21,0,3.999,1.789,3.999,3.999C287.955,202.18,286.166,203.969,283.956,203.969z"/>
	<path style="fill:#3A3847;" d="M475.925,203.969c-0.773,0-1.547-0.222-2.234-0.683c-1.827-1.234-2.312-3.719-1.078-5.55
		l31.979-47.973c1.219-1.847,3.703-2.347,5.546-1.117c1.836,1.226,2.336,3.706,1.109,5.546l-32.01,48.012
		C478.472,203.352,477.206,203.969,475.925,203.969z"/>
	<path style="fill:#3A3847;" d="M507.92,155.977h-23.996c-2.211,0-4-1.789-4-4c0-2.21,1.789-3.999,4-3.999h23.996
		c2.21,0,3.999,1.789,3.999,3.999C511.919,154.188,510.13,155.977,507.92,155.977z"/>
	<path style="fill:#3A3847;" d="M163.976,203.969c-2.21,0-4-1.789-4-4v-43.993H87.988v43.993c0,2.211-1.789,4-3.999,4
		c-2.211,0-4-1.789-4-4v-47.992c0-2.21,1.789-3.999,4-3.999h79.987c2.21,0,4,1.789,4,3.999v47.992
		C167.975,202.18,166.186,203.969,163.976,203.969z"/>
	<path style="fill:#3A3847;" d="M211.968,203.969h-31.995c-2.211,0-4-1.789-4-4c0-2.21,1.789-3.999,4-3.999h31.995
		c2.21,0,4,1.789,4,3.999C215.967,202.18,214.178,203.969,211.968,203.969z"/>
	<path style="fill:#3A3847;" d="M163.98,155.977c-1.292,0-2.562-0.625-3.332-1.781L144.651,130.2c-1.227-1.84-0.73-4.32,1.109-5.546
		c1.835-1.227,4.32-0.73,5.546,1.109l15.998,23.996c1.227,1.839,0.73,4.32-1.109,5.546
		C165.51,155.758,164.741,155.977,163.98,155.977z"/>
	<path style="fill:#3A3847;" d="M83.993,155.977c-1.293,0-2.562-0.625-3.332-1.781L64.664,130.2c-1.227-1.84-0.73-4.32,1.109-5.546
		c1.839-1.227,4.323-0.73,5.546,1.109l15.997,23.996c1.227,1.839,0.73,4.32-1.109,5.546
		C85.523,155.758,84.754,155.977,83.993,155.977z"/>
	<path style="fill:#3A3847;" d="M51.99,155.977c-0.762,0-1.531-0.219-2.215-0.672c-1.839-1.226-2.335-3.707-1.109-5.546
		l15.998-23.996c1.218-1.839,3.698-2.335,5.546-1.109c1.839,1.226,2.335,3.706,1.109,5.546l-15.998,23.996
		C54.552,155.352,53.283,155.977,51.99,155.977z"/>
	<path style="fill:#3A3847;" d="M51.994,203.969c-2.211,0-4-1.789-4-4v-47.992c0-2.21,1.789-3.999,4-3.999
		c2.21,0,3.999,1.789,3.999,3.999v47.992C55.993,202.18,54.204,203.969,51.994,203.969z"/>
	<path style="fill:#3A3847;" d="M67.991,203.969c-2.21,0-3.999-1.789-3.999-4v-39.993c0-2.211,1.789-4,3.999-4c2.211,0,4,1.789,4,4
		v39.993C71.99,202.18,70.202,203.969,67.991,203.969z"/>
	<path style="fill:#3A3847;" d="M147.978,131.98H67.991c-2.21,0-3.999-1.789-3.999-4v-15.997c0-2.211,1.789-4,3.999-4h79.987
		c2.211,0,4,1.789,4,4v15.997C151.978,130.192,150.189,131.98,147.978,131.98z M71.99,123.982h71.989v-7.999H71.99V123.982z"/>
	<path style="fill:#3A3847;" d="M275.957,43.995h-23.996c-2.211,0-4-1.789-4-3.999c0-2.211,1.789-4,4-4h23.996
		c2.21,0,3.999,1.789,3.999,4C279.956,42.206,278.167,43.995,275.957,43.995z"/>
	<path style="fill:#3A3847;" d="M347.945,203.969c-2.21,0-3.999-1.789-3.999-4c0-11.025-8.968-19.997-19.997-19.997
		s-19.997,8.971-19.997,19.997c0,2.211-1.788,4-3.999,4s-3.999-1.789-3.999-4c0-15.435,12.561-27.995,27.995-27.995
		s27.995,12.561,27.995,27.995C351.944,202.18,350.156,203.969,347.945,203.969z"/>
	<path style="fill:#3A3847;" d="M315.95,171.974c-2.21,0-3.999-1.789-3.999-4v-7.999c0-2.211,1.789-4,3.999-4c2.211,0,4,1.789,4,4
		v7.999C319.95,170.185,318.161,171.974,315.95,171.974z"/>
	<path style="fill:#3A3847;" d="M331.948,171.974c-2.211,0-4-1.789-4-4v-7.999c0-2.211,1.789-4,4-4c2.21,0,3.999,1.789,3.999,4
		v7.999C335.947,170.185,334.158,171.974,331.948,171.974z"/>
	<path style="fill:#3A3847;" d="M347.945,155.977c-0.25,0-0.516-0.023-0.781-0.078l-39.993-7.999
		c-2.172-0.434-3.578-2.539-3.141-4.707s2.531-3.601,4.703-3.136l39.993,7.999c2.171,0.434,3.577,2.539,3.14,4.706
		C351.491,154.665,349.82,155.977,347.945,155.977z"/>
	<path style="fill:#3A3847;" d="M307.952,163.975c-2.211,0-4-1.789-4-3.999v-15.997c0-2.21,1.789-4,4-4c2.21,0,3.999,1.789,3.999,4
		v15.998C311.951,162.187,310.162,163.975,307.952,163.975z"/>
	<path style="fill:#3A3847;" d="M347.945,163.975h-39.993c-2.211,0-4-1.789-4-3.999c0-2.211,1.789-4,4-4h39.993
		c2.211,0,3.999,1.789,3.999,4C351.944,162.187,350.156,163.975,347.945,163.975z"/>
	<path style="fill:#3A3847;" d="M347.945,163.975c-2.21,0-3.999-1.789-3.999-3.999v-7.999c0-2.21,1.789-3.999,3.999-3.999
		c2.211,0,3.999,1.789,3.999,3.999v7.999C351.944,162.187,350.156,163.975,347.945,163.975z"/>
	<path style="fill:#3A3847;" d="M141.901,203.969c-1.09,0-2.179-0.445-2.968-1.32c-7.69-8.522-22.086-8.593-29.815,0
		c-1.496,1.636-4.011,1.761-5.651,0.293c-1.64-1.48-1.769-4.011-0.293-5.651c5.343-5.921,12.923-9.319,20.809-9.319
		c7.933,0,15.544,3.398,20.887,9.319c1.48,1.64,1.351,4.167-0.289,5.647C143.815,203.629,142.858,203.969,141.901,203.969z"/>
	<path style="fill:#3A3847;" d="M251.961,231.964h-23.996c-2.211,0-4-1.789-4-3.999c0-2.211,1.789-4,4-4h23.996
		c2.21,0,3.999,1.789,3.999,4C255.96,230.175,254.172,231.964,251.961,231.964z"/>
</g>
<g>
</g>
<g>
</g>
<g>
</g>
<g>
</g>
<g>
</g>
<g>
</g>
<g>
</g>
<g>
</g>
<g>
</g>
<g>
</g>
<g>
</g>
<g>
</g>
<g>
</g>
<g>
</g>
<g>
</g>
</svg>
