<?xml version="1.0" encoding="iso-8859-1"?>
<!-- Generator: Adobe Illustrator 19.0.0, SVG Export Plug-In . SVG Version: 6.00 Build 0)  -->
<svg version="1.1" id="Capa_1" xmlns="http://www.w3.org/2000/svg" xmlns:xlink="http://www.w3.org/1999/xlink" x="0px" y="0px"
	 viewBox="0 0 512 512" style="enable-background:new 0 0 512 512;" xml:space="preserve">
<path style="fill:#FF3501;" d="M345.784,20.722c-0.027,0.142-27.89,144.555-27.913,144.67c-4.022,20.851-25.785,33.07-45.643,25.765
	l-0.091-0.041l-0.041-0.01c-2.551-1.428-15.494-3.553-23.252-17.457c-0.01-0.01-0.01-0.02-0.01-0.03
	c-11.735-20.963,3.308-38.204,3.891-39.99c69.805-115.618-65.18,107.877,69.29-114.761c2.549-3.172,4.504-11.256,12.553-11.256v0.01
	c1.348-0.02,2.695,0.193,3.972,0.628C343.271,9.881,346.969,14.542,345.784,20.722z"/>
<path style="fill:#FF5023;" d="M322.015,18.868l-9.159,47.497l-15.907,82.452c-4.032,20.861-25.795,33.08-45.653,25.765l-0.091-0.03
	c-0.792-0.312-2.487-0.978-2.371-0.932c-5.781-10.328-6.089-23.495,0.588-34.539l3.303-5.451l7.913-13.141l32.188-53.293
	L322.015,18.868z"/>
<path style="fill:#4E901E;" d="M264.852,191.654l-27.426,23.495c-3.799,3.262-9.585,2.817-12.857-0.993l-27.801-32.452
	c-34.682-41.428-37.839-41.781-38.257-47.335c1.491-4.951,3.103-4.042,33.84-31.084c1.246-1.064,2.675-1.773,4.164-2.138
	c5.787,0.949,5.597,4.341,31.358,33.333l37.974,44.316C269.107,182.606,268.662,188.391,264.852,191.654z"/>
<path style="fill:#47821C;" d="M196.514,101.147c-4.141,1.014-3.062,1.688-34.904,28.48c-1.52,1.297-2.563,2.958-3.1,4.742
	c0.442,5.864,4.146,6.223,38.257,47.335l5.42,6.312c3.131-9.706,3.323-20.334,0.172-30.425c0.101-0.062,4.677-2.284,10.456-6.9
	c5.917-4.681,10.952-10.172,15.056-16.211C201.563,104.872,202.258,102.09,196.514,101.147z"/>
<path style="fill:#85BB04;" d="M249.259,129.557c-21.712,12.384-49.123,4.598-61.297-16.768
	c-20.657-36.223,15.406-79.391,55.055-64.225C278.022,61.856,282.439,110.619,249.259,129.557z"/>
<g>
	<path style="fill:#79AB03;" d="M227.193,135.463c-15.727,0.052-30.968-8.174-39.23-22.675
		c-20.657-36.223,15.406-79.391,55.055-64.225C252.998,78.574,246.676,111.411,227.193,135.463z"/>
	<path style="fill:#79AB03;" d="M166.869,194.602c0,0,0,0.01-0.01,0.01c-0.388,0.258-1.849,1.042-2.736,1.479
		c-21.155,10.486-47.072,2.756-58.926-18.024c-15.315-26.854,0.499-60.842,30.881-66.444c0.01,0,0.01,0,0.02-0.01
		c18.24-3.364,37.439,4.896,47.153,21.935C195.48,154.977,188.135,182.211,166.869,194.602z"/>
</g>
<path style="fill:#91CC04;" d="M166.869,194.602c0,0,0,0.01-0.01,0.01c-0.388,0.258-1.849,1.042-2.736,1.479
	c-14.184-1.246-27.528-9.21-35.127-22.513c-12.209-21.418-4.873-48.642,16.363-61.043c0.01,0,0.01,0,0.02-0.01
	c2.594-0.476,5.208-0.719,7.801-0.74C193.413,119.972,202.466,173.86,166.869,194.602z"/>
<path style="fill:#85BB04;" d="M181.033,145.463c-30.284,12.837-66.069,1.256-82.766-28.034
	c-18.952-33.208-5.083-74.398,25.299-90.212c31.317-17.37,71.141-6.497,89.078,24.975
	C232.28,86.622,217.168,130.351,181.033,145.463z"/>
<path style="fill:#91CC04;" d="M181.033,145.463c-23.232,0.395-45.957-11.58-58.288-33.201
	c-16.322-28.602-8.835-64.285,16.18-84.133c8.916-4.944,18.5-7.599,28.065-8.136c18.571,3.303,35.582,14.529,45.653,32.198
	C232.409,86.85,216.915,130.456,181.033,145.463z"/>
<path style="fill:#4E901E;" d="M338.15,36.947l29.856-14.179c4.138-1.971,9.141-0.19,11.118,3.958l16.778,35.326
	c20.269,44.477,23.451,45.746,22.446,50.979c-0.902,1.446-2.222,2.664-3.874,3.445c-34.508,16.015-33.744,16.886-37.654,16.789
	c-4.879-2.224-3.867-5.104-19.707-36.957l-22.921-48.243C332.223,43.919,334.004,38.916,338.15,36.947z"/>
<path style="fill:#47821C;" d="M376.817,133.266c1.403,0.034,2.835-0.249,4.19-0.89c33.645-16.527,34.837-15.33,37.339-19.344
	c1.018-5.298-2.232-6.624-22.446-50.979l-3.275-6.874c-5.091,7.823-7.808,17.164-7.445,26.832
	c-0.101,0.037-14.436,2.601-28.072,14.298C373.271,128.808,371.988,131.065,376.817,133.266z"/>
<path style="fill:#85BB04;" d="M357.945,95.603c40.926,10.96,40.25,69.049-0.285,79.543c-21.857,5.694-44.416-7.461-50.115-29.49
	C299.595,114.957,327.915,87.542,357.945,95.603z"/>
<g>
	<path style="fill:#79AB03;" d="M357.945,95.603c14.005,3.751,25.418,14.74,29.215,29.43c9.683,37.405-33.048,66.128-64.021,43.531
		C321.517,139.666,334.971,112.178,357.945,95.603z"/>
	<path style="fill:#79AB03;" d="M425.401,57.827c0,0,0.002-0.009,0.011-0.007c18.184-6.078,44.162,4.932,50.497,29.392
		c5.69,21.98-7.518,44.414-29.499,50.112c-8.348,2.172-13.442,1.015-13.722,1.176c-16.917-1.401-31.895-13.297-36.39-30.676
		C390.632,85.969,403.647,63.675,425.401,57.827z"/>
</g>
<path style="fill:#91CC04;" d="M425.401,57.827c0,0,0.002-0.009,0.011-0.007c0.127-0.043,0.26-0.073,0.384-0.106
	c0.796-0.207,1.585-0.387,2.386-0.544c12.23,4.5,22.106,14.732,25.63,28.304c5.649,21.844-7.355,44.132-29.083,49.995
	c-0.009-0.002-0.009-0.002-0.02,0.004c-2.405-0.201-4.772-0.613-7.068-1.217c-10.222-5.138-18.254-14.484-21.344-26.429
	C390.632,85.969,403.647,63.675,425.401,57.827z"/>
<path style="fill:#85BB04;" d="M401.113,97.834c29.825-4.08,58.656,14.725,66.384,44.599c12.851,49.572-38.34,91.239-84.053,69.589
	c-15.612-7.369-27.946-21.361-32.606-39.382C341.745,137.522,365.575,102.521,401.113,97.834z"/>
<path style="fill:#91CC04;" d="M401.113,97.834c20.614,5.219,37.816,21.243,43.525,43.296c7.561,29.174-7.605,58.897-34.457,70.432
	c-9.06,2.23-18.162,2.278-26.738,0.459c-15.612-7.369-27.946-21.361-32.606-39.382C341.745,137.522,365.575,102.521,401.113,97.834z
	"/>
<path style="fill:#85BB04;" d="M54.863,76.325c-0.671,0.373-16.117,8.974-15.704,8.744C11.224,38.303,11.054,40.363,11.054,36.75
	c0-2.867,1.733-5.623,4.661-6.717l20.04-7.487c2.786-1.044,5.755-0.243,7.649,1.722c2.233,2.234,1.938,4.954,2.817,8.318
	C57.799,91.184,54.123,72.583,54.863,76.325z"/>
<path style="fill:#91CC04;" d="M54.863,76.325l-2.381,1.327C35.516,48.976,34.529,49.588,34.529,46.041
	c0-2.867,1.733-5.623,4.661-6.717l7.791-2.908L54.863,76.325z"/>
<path style="fill:#FF3501;" d="M116.312,256.537h-0.01c-4.386,4.386-13.033,4.453-17.082-2.381L66.97,199.617l-42.735-72.279
	c-10.81-18.288-2.614-41.864,17.102-49.554c6.215-2.289,7.211-2.656,7.072-2.604c19.408-6.407,40.708,5.653,44.519,26.484
	c3.197,17.413,3.252,17.697,15.147,82.593l11.418,62.32C120.193,250.307,119.114,253.95,116.312,256.537z"/>
<path style="fill:#FF5023;" d="M119.685,248.472l-23.84-40.324L53.11,135.869c-10.81-18.288-2.614-41.864,17.102-49.554
	c6.215-2.289,7.211-2.656,7.072-2.604c3.21-1.051,3.795-0.992,5.36-0.942c10.691,10.018,10.396,21.82,11.429,25.167
	c16.874,91.98,13.563,73.929,14.002,76.322C120.044,249.885,119.656,246.718,119.685,248.472z"/>
<path style="fill:#CC7400;" d="M483.139,212.616v269.857c0,11.986-9.807,21.793-21.783,21.793H50.547
	c-11.986,0-21.793-9.807-21.793-21.793V212.616c0-3.607,2.128-6.748,5.187-8.217c1.196-0.578,2.523-0.902,3.931-0.902H474.02
	C479.036,203.498,483.139,207.601,483.139,212.616z"/>
<path style="fill:#AB2300;" d="M356.159,169.435c0,28.966-20.314,53.201-47.477,59.22c-0.557,0.122-1.114,0.233-1.682,0.344
	c-0.952,0.182-1.915,0.344-2.888,0.486c-2.817,0.405-5.684,0.608-8.612,0.608c-33.495,0-60.658-27.153-60.658-60.658
	c0-33.495,27.163-60.658,60.658-60.658c0.334,0,0.659,0,0.993,0.02c1.033,0.01,2.057,0.051,3.07,0.122
	c1.53,0.091,3.05,0.253,4.549,0.466C333.535,113.569,356.159,138.868,356.159,169.435z"/>
<path style="fill:#CD2A00;" d="M356.159,169.435c0,28.966-20.314,53.201-47.477,59.22c-28.146-6.18-49.189-31.256-49.189-61.246
	c0-26.646,16.626-49.402,40.071-58.49c1.53,0.091,3.05,0.253,4.549,0.466C333.535,113.569,356.159,138.868,356.159,169.435z"/>
<path style="fill:#AA6100;" d="M504.304,183.315v47.558c0,7.082-5.805,12.887-12.888,12.887H20.486
	c-7.092,0-12.887-5.805-12.887-12.887v-47.558c0-7.082,5.795-12.887,12.887-12.887h470.93
	C498.498,170.428,504.304,176.233,504.304,183.315z"/>
<path style="fill:#CC7400;" d="M504.304,183.315v47.558c0,7.082-5.805,12.887-12.888,12.887H53.789
	c-7.092,0-12.887-5.805-12.887-12.887v-47.558c0-7.082,5.795-12.887,12.887-12.887h437.627
	C498.498,170.428,504.304,176.233,504.304,183.315z"/>
<path id="SVGCleanerId_0" style="fill:#EE8700;" d="M483.139,243.761v238.712c0,11.986-9.807,21.793-21.783,21.793H85.714
	c-11.986,0-21.793-9.807-21.793-21.793V243.761H483.139z"/>
<g>
	<path id="SVGCleanerId_0_1_" style="fill:#EE8700;" d="M483.139,243.761v238.712c0,11.986-9.807,21.793-21.783,21.793H85.714
		c-11.986,0-21.793-9.807-21.793-21.793V243.761H483.139z"/>
</g>
<path d="M89.647,125.948c-0.001-0.006-0.003-0.014-0.004-0.019C89.653,125.98,89.656,125.999,89.647,125.948z"/>
<path d="M508.934,172.697c0,0-0.01,0,0-0.01c-1.712-2.817-4.073-5.177-6.889-6.89c-0.01,0.01-0.01,0-0.01,0
	c-7.287-4.425-13.222-2.496-22.452-2.969c0.324-10.243-1.722-20.344-5.491-29.189c9.311-9.787,14.053-22.969,13.637-34.995
	c-0.071-4.154-3.455-7.477-7.599-7.477c-0.041,0-0.081,0-0.122,0.01c-3.88,0.061-7.467,2.918-7.467,8.308
	c0,7.406-2.381,14.387-6.494,20.091c-14.134-19.068-37.396-29.838-61.469-27.791c1.084-4.823,3.212-9.301,6.14-13.151
	c12.989-17.072,38.298-18.278,52.827-2.371c2.837,3.1,7.639,3.313,10.74,0.476c3.1-2.827,3.313-7.629,0.476-10.729
	c-18.906-20.679-51.023-21.591-71.074-2.28L385.47,25.119c-3.944-8.35-13.913-11.911-22.249-7.994l-10.152,4.792
	c2.036-11.773-7.173-21.712-18.521-21.712c-12.026,0-16.636,10.851-17.092,11.337c-2.148,3.607-0.963,8.267,2.644,10.415
	c3.607,2.138,8.278,0.952,10.415-2.654c1.104-1.51,1.57-3.901,4.032-3.901c1.925,0,3.972,1.388,3.526,4.063l-1.935,10.446
	l-0.608,0.284c-4.032,1.895-7.082,5.268-8.592,9.473c-1.51,4.215-1.297,8.744,0.608,12.776l3.161,6.707l-6.454,34.802
	c-4.64,2.442-8.794,5.572-12.34,9.23c-10.051-2.523-20.821-2.675-30.962-0.436l34.042-57.315c2.148-3.607,0.952-8.267-2.654-10.415
	c-3.607-2.138-8.267-0.952-10.415,2.654l-23.921,40.263c-6.866-28.467-36.36-45.76-64.529-38.196
	C189.281,8.463,145.166,2.594,113.677,24.39c-3.445,2.391-4.306,7.123-1.925,10.567c2.391,3.455,7.123,4.316,10.577,1.925
	c26.87-18.569,65.938-12.017,83.9,19.412c17.863,31.853-2.259,60.575-2.259,60.679c-16.384,25.002-42.762,25.444-45.349,26.15
	c-0.01,0-0.02,0-0.03,0.01c-0.223,0.061-0.426,0.132-0.638,0.213c-0.01-0.01-0.02,0.01-0.02,0.01
	c-1.37,0.457-2.807,1.766-2.908,1.966c-0.379,0.404-0.735,0.877-1.155,1.641c0,0.01,0,0.01,0,0.01
	c-0.367,0.666-0.719,1.746-0.811,2.705c-0.01,0.02-0.01,0.041,0,0.061c-0.42,3.357,1.81,6.975,5.42,8.014
	c4.317,1.277,17.288-2.12,22.999-4.276c0.251,4.316-0.187,6.727-0.598,9.352h-69.007l-3.313-18.055
	c0.284-0.912,0.598-1.803,0.942-2.675c4.143,3.329,16.381,11.388,21.337,11.388c8.335,0,10.549-11.522,2.847-14.65
	c-32.521-13.122-46.077-51.663-29.22-82.178c2.026-3.668,0.699-8.298-2.979-10.324c-3.668-2.026-8.298-0.699-10.324,2.979
	c-4.124,7.467-6.91,15.593-8.247,23.961c-6.396-4.401-14.199-7.127-22.371-7.396c-8.401-40.745-7.131-42.339-11.722-46.93
	c-4.073-4.195-10.253-5.572-15.734-3.526l-20.03,7.487C4.475,26.12,0.762,36.399,5.603,44.41L26.14,78.26
	c-5.42,4.752-9.574,10.871-11.986,17.862c-4.032,11.672-2.746,24.458,3.536,35.086l18.703,31.621
	c-9.594,0.556-17.286-1.241-23.87,1.611h-0.01c-0.922,0.385-1.803,0.841-2.644,1.358c0,0,0,0.01-0.01,0
	c-2.817,1.712-5.177,4.073-6.89,6.89c0.01,0.01,0,0.01,0,0.01C0.978,175.977,0,179.635,0,183.315c0,6.689,0,40.875,0,47.558
	c0,11.297,9.189,20.486,20.486,20.486h1.591c0,44.893,0,185.671,0,231.043c0,16.211,13.181,29.392,29.392,29.392
	c212.997,0,287.691,0,410.799,0c16.211,0,29.392-13.181,29.392-29.392c0-75.85,0-142.852,0-231.053
	c11.185-0.122,20.243-9.26,20.243-20.476C511.903,179.613,512.833,179.12,508.934,172.697z M424.801,108.685
	c24.286,6.768,40.517,29.149,39.584,54.144c-33.814,0-75.733,0-107.842,0C355.044,126.872,389.239,98.858,424.801,108.685z
	 M341.245,44.805c0.101-0.274,0.314-0.648,0.77-0.871c21.793-10.274,26.393-12.452,27.183-12.817c0,0,0.01-0.01,0.02-0.01
	c0.071-0.041,0.101-0.051,0.111-0.061h0.01c0.091-0.041,0.203-0.091,0.365-0.172c0.75-0.355,1.682,0,2.016,0.729l21.773,46.15
	c-2.594,5.329-4.255,11.175-4.792,17.285c-3.516,1.165-6.9,2.584-10.142,4.265c-4.813-3.88-10.324-6.859-16.231-8.734
	c0,0,0-0.001-0.001-0.001c-0.001-0.001-0.006-0.013-0.017-0.036c-0.018-0.037-0.032-0.069-0.048-0.1
	c0.001,0.002,0.002,0.005,0.003,0.007c-0.007-0.015-0.015-0.032-0.024-0.051c-0.002-0.005-0.004-0.009-0.006-0.014
	c0.002,0.004,0.003,0.007,0.005,0.011c-0.002-0.005-0.005-0.01-0.007-0.015c-0.026-0.057-0.049-0.104-0.066-0.14
	c-0.004-0.008-0.008-0.017-0.012-0.026c0.003,0.005,0.005,0.011,0.008,0.017c-0.013-0.028-0.019-0.042-0.027-0.057
	c-0.822-1.742-4.795-10.165-20.852-44.203C341.073,45.504,341.143,45.079,341.245,44.805z M341.812,82.667l2.665,5.653
	c-1.256,0.081-2.523,0.203-3.789,0.385L341.812,82.667z M351.731,103.701c5.795,0.74,11.55,3.303,13.414,4.701
	c-6.049,5.238-11.348,11.722-15.552,19.443c-5.978-7.761-13.495-14.032-21.611-18.419
	C334.801,104.744,343.352,102.647,351.731,103.701z M342.927,145.666c2.665,5.279,4.468,11.064,5.228,17.163H242.856
	C249.24,111.588,319.264,98.432,342.927,145.666z M221.894,53.559c17.48-2.542,35.402,7.931,40.993,26.717
	c8.343,27.982-18.388,54.664-46.798,45.947C230.673,104.741,233.045,77.216,221.894,53.559z M205.582,138.472
	c6.16,2.746,12.817,4.286,19.585,4.529l5.187,6.059c-1.388,4.417-2.33,9.017-2.786,13.769h-31.287
	c0.796-5.68,0.616-11.31-0.405-16.727C199.425,143.781,202.499,141.335,205.582,138.472z M18.865,36.973l19.068-7.133l7.578,38.308
	l-6.312,2.32L18.865,36.973z M30.78,123.467c-8.663-14.635-1.47-33.215,13.506-38.673c3.793-1.209,13.874-6.964,25.795-1.368
	c6.915,3.119,11.817,9.012,13.141,13.283c0.669,2.138,1.986,6.768,3.485,13.951l-18.115,7.042c-3.921,1.52-5.856,5.917-4.336,9.838
	c1.165,2.999,4.043,4.843,7.082,4.843c0.922,0,1.854-0.162,2.756-0.517l15.532-6.038c0.002,0.011,0.049,0.265,0.051,0.277
	c0-0.001,0-0.002,0-0.002c4.154,22.79-6.134-33.432,6.738,36.726H54.052L30.78,123.467z M51.469,496.597
	c-7.832,0-14.194-6.363-14.194-14.194v-42.654l53.029-53.029l50.375,50.375l-59.503,59.503H51.469z M151.428,281.278l11.408,11.408
	l-50.375,50.375l-11.408-11.408L151.428,281.278z M143.009,251.36h16.839l-8.419,8.419L143.009,251.36z M195.744,281.278
	l50.375,50.375l-11.408,11.408l-50.375-50.375L195.744,281.278z M187.324,251.36h16.839l-8.419,8.419L187.324,251.36z
	 M317.993,281.278l11.408,11.408l-50.375,50.375l-11.408-11.408L317.993,281.278z M309.573,251.36h16.839l-8.419,8.419
	L309.573,251.36z M362.309,281.278l50.375,50.375l-11.408,11.408L350.9,292.687L362.309,281.278z M353.889,251.36h16.839
	l-8.419,8.419L353.889,251.36z M162.836,414.935l-11.408,11.408l-50.375-50.375l11.408-11.408L162.836,414.935z M123.211,353.811
	l50.375-50.375l50.375,50.375l-50.375,50.375L123.211,353.811z M173.586,425.685l11.408,11.408l-11.408,11.408l-11.408-11.408
	L173.586,425.685z M184.336,414.935l50.375-50.375l11.408,11.408l0,0l-50.375,50.375L184.336,414.935z M245.46,353.811
	l11.408-11.408l11.408,11.408l-11.408,11.408L245.46,353.811z M279.026,364.561l50.375,50.375l-11.408,11.408l-50.375-50.375l0,0
	L279.026,364.561z M289.776,353.811l50.375-50.375l50.375,50.375l-50.375,50.375L289.776,353.811z M340.151,425.685l11.408,11.408
	l-11.408,11.408l-11.408-11.408L340.151,425.685z M350.9,414.935l50.375-50.375l11.408,11.408l-50.375,50.375L350.9,414.935z
	 M412.025,353.811L412.025,353.811l11.408-11.408l11.408,11.408l-11.408,11.408L412.025,353.811z M340.151,281.937l-11.408-11.408
	l11.408-11.408l11.408,11.408L340.151,281.937z M256.868,320.903l-50.375-50.375l19.169-19.169h62.411l19.169,19.169
	L256.868,320.903z M173.586,281.937l-11.408-11.408l11.408-11.408l11.408,11.408L173.586,281.937z M101.712,353.811L101.712,353.811
	l-11.408,11.408l-11.408-11.408l11.408-11.408l0,0L101.712,353.811z M68.146,343.061L37.274,312.19v-22.816l42.279,42.279
	L68.146,343.061z M57.396,353.811l-20.121,20.121V333.69L57.396,353.811z M68.146,364.561l11.408,11.408l-42.279,42.279v-22.816
	L68.146,364.561z M102.674,496.597l48.754-48.754l11.408,11.408l-37.345,37.345H102.674z M146.99,496.597l26.596-26.596
	l26.596,26.596H146.99z M221.681,496.597l-37.345-37.345l11.408-11.408l0,0l48.754,48.754H221.681z M206.494,437.093l50.375-50.375
	l50.375,50.375l-50.375,50.375L206.494,437.093z M269.239,496.597l48.754-48.754l0,0l11.408,11.408l-37.345,37.345H269.239z
	 M313.555,496.597l26.596-26.596l26.596,26.596H313.555z M388.246,496.597L350.9,459.251l11.408-11.408l48.754,48.754H388.246z
	 M476.462,482.402c0,7.832-6.363,14.194-14.194,14.194h-29.706l-59.503-59.503l50.375-50.375l53.029,53.029L476.462,482.402
	L476.462,482.402z M476.462,418.248l-42.279-42.279l11.408-11.408l30.871,30.871V418.248z M476.462,373.932l-20.122-20.121
	l20.121-20.121L476.462,373.932L476.462,373.932z M476.462,312.19l-30.871,30.871l-11.408-11.408l42.279-42.279V312.19z
	 M476.462,267.874l-53.029,53.029l-50.375-50.375l19.169-19.169h84.235L476.462,267.874L476.462,267.874z M496.705,230.873
	c0,2.837-2.239,5.157-5.046,5.279c-0.081,0.01-0.162,0.01-0.243,0.01H89.189c-4.205,0-7.599,3.404-7.599,7.599
	c0,4.195,3.394,7.599,7.599,7.599h32.32l19.169,19.169l-50.375,50.375l-53.029-53.029V251.36h21.52c4.195,0,7.599-3.404,7.599-7.599
	c0-4.195-3.404-7.599-7.599-7.599c-12.292,0-25.89,0-38.308,0c-2.918,0-5.289-2.371-5.289-5.289c0-6.686,0-40.87,0-47.558
	c0-2.918,2.371-5.289,5.289-5.289c13.066,0,445.574,0,470.93,0c2.918,0,5.289,2.371,5.289,5.289
	C496.705,190.004,496.705,224.189,496.705,230.873z"/>
<path d="M89.714,126.313c0.002,0.014,0.005,0.027,0.007,0.038C89.712,126.304,89.715,126.319,89.714,126.313z"/>
<path d="M362.305,90.518c0.002,0.005,0.004,0.009,0.006,0.013c0.003,0.006,0.005,0.011,0.009,0.018
	C362.316,90.542,362.311,90.531,362.305,90.518z"/>
<g>
</g>
<g>
</g>
<g>
</g>
<g>
</g>
<g>
</g>
<g>
</g>
<g>
</g>
<g>
</g>
<g>
</g>
<g>
</g>
<g>
</g>
<g>
</g>
<g>
</g>
<g>
</g>
<g>
</g>
</svg>
